<?xml version="1.0" encoding="utf-8" standalone="no"?>
<!DOCTYPE svg PUBLIC "-//W3C//DTD SVG 1.1//EN"
  "http://www.w3.org/Graphics/SVG/1.1/DTD/svg11.dtd">
<svg xmlns:xlink="http://www.w3.org/1999/xlink" width="720pt" height="360pt" viewBox="0 0 720 360" xmlns="http://www.w3.org/2000/svg" version="1.1">
 <metadata>
  <rdf:RDF xmlns:dc="http://purl.org/dc/elements/1.1/" xmlns:cc="http://creativecommons.org/ns#" xmlns:rdf="http://www.w3.org/1999/02/22-rdf-syntax-ns#">
   <cc:Work>
    <dc:type rdf:resource="http://purl.org/dc/dcmitype/StillImage"/>
    <dc:date>2023-10-17T16:37:13.686754</dc:date>
    <dc:format>image/svg+xml</dc:format>
    <dc:creator>
     <cc:Agent>
      <dc:title>Matplotlib v3.6.2, https://matplotlib.org/</dc:title>
     </cc:Agent>
    </dc:creator>
   </cc:Work>
  </rdf:RDF>
 </metadata>
 <defs>
  <style type="text/css">*{stroke-linejoin: round; stroke-linecap: butt}</style>
 </defs>
 <g id="figure_1">
  <g id="patch_1">
   <path d="M 0 360 
L 720 360 
L 720 0 
L 0 0 
z
" style="fill: #ffffff"/>
  </g>
  <g id="axes_1">
   <g id="patch_2">
    <path d="M 43.58 321.64 
L 709.2 321.64 
L 709.2 24.72 
L 43.58 24.72 
z
" style="fill: #e5e5e5"/>
   </g>
   <g id="line2d_1">
    <path d="M 206.203068 321.64 
L 206.203068 119.274942 
" clip-path="url(#p06e8ba5163)" style="fill: none; stroke-dasharray: 5.55,2.4; stroke-dashoffset: 0; stroke: #0024ed; stroke-opacity: 0.5; stroke-width: 1.5"/>
   </g>
   <g id="line2d_2">
    <path d="M 43.58 108.115415 
L 204.942424 108.115415 
" clip-path="url(#p06e8ba5163)" style="fill: none; stroke-dasharray: 5.55,2.4; stroke-dashoffset: 0; stroke: #0024ed; stroke-opacity: 0.5; stroke-width: 1.5"/>
   </g>
   <g id="matplotlib.axis_1">
    <g id="xtick_1">
     <g id="line2d_3">
      <path d="M 54.925795 321.64 
L 54.925795 24.72 
" clip-path="url(#p06e8ba5163)" style="fill: none; stroke: #ffffff; stroke-width: 0.8; stroke-linecap: square"/>
     </g>
     <g id="line2d_4">
      <defs>
       <path id="m53f43214f7" d="M 0 0 
L 0 3.5 
" style="stroke: #555555; stroke-width: 0.8"/>
      </defs>
      <g>
       <use xlink:href="#m53f43214f7" x="54.925795" y="321.64" style="fill: #555555; stroke: #555555; stroke-width: 0.8"/>
      </g>
     </g>
     <g id="text_1">
      <!-- 0 -->
      <g style="fill: #555555" transform="translate(52.511435 333.913316) scale(0.0694 -0.0694)">
       <defs>
        <path id="DejaVuSans-Bold-30" d="M 2944 2338 
Q 2944 3213 2780 3570 
Q 2616 3928 2228 3928 
Q 1841 3928 1675 3570 
Q 1509 3213 1509 2338 
Q 1509 1453 1675 1090 
Q 1841 728 2228 728 
Q 2613 728 2778 1090 
Q 2944 1453 2944 2338 
z
M 4147 2328 
Q 4147 1169 3647 539 
Q 3147 -91 2228 -91 
Q 1306 -91 806 539 
Q 306 1169 306 2328 
Q 306 3491 806 4120 
Q 1306 4750 2228 4750 
Q 3147 4750 3647 4120 
Q 4147 3491 4147 2328 
z
" transform="scale(0.015625)"/>
       </defs>
       <use xlink:href="#DejaVuSans-Bold-30"/>
      </g>
     </g>
    </g>
    <g id="xtick_2">
     <g id="line2d_5">
      <path d="M 149.474091 321.64 
L 149.474091 24.72 
" clip-path="url(#p06e8ba5163)" style="fill: none; stroke: #ffffff; stroke-width: 0.8; stroke-linecap: square"/>
     </g>
     <g id="line2d_6">
      <g>
       <use xlink:href="#m53f43214f7" x="149.474091" y="321.64" style="fill: #555555; stroke: #555555; stroke-width: 0.8"/>
      </g>
     </g>
     <g id="text_2">
      <!-- 5 -->
      <g style="fill: #555555" transform="translate(147.05973 333.913316) scale(0.0694 -0.0694)">
       <defs>
        <path id="DejaVuSans-Bold-35" d="M 678 4666 
L 3669 4666 
L 3669 3781 
L 1638 3781 
L 1638 3059 
Q 1775 3097 1914 3117 
Q 2053 3138 2203 3138 
Q 3056 3138 3531 2711 
Q 4006 2284 4006 1522 
Q 4006 766 3489 337 
Q 2972 -91 2053 -91 
Q 1656 -91 1267 -14 
Q 878 63 494 219 
L 494 1166 
Q 875 947 1217 837 
Q 1559 728 1863 728 
Q 2300 728 2551 942 
Q 2803 1156 2803 1522 
Q 2803 1891 2551 2103 
Q 2300 2316 1863 2316 
Q 1603 2316 1309 2248 
Q 1016 2181 678 2041 
L 678 4666 
z
" transform="scale(0.015625)"/>
       </defs>
       <use xlink:href="#DejaVuSans-Bold-35"/>
      </g>
     </g>
    </g>
    <g id="xtick_3">
     <g id="line2d_7">
      <path d="M 244.022386 321.64 
L 244.022386 24.72 
" clip-path="url(#p06e8ba5163)" style="fill: none; stroke: #ffffff; stroke-width: 0.8; stroke-linecap: square"/>
     </g>
     <g id="line2d_8">
      <g>
       <use xlink:href="#m53f43214f7" x="244.022386" y="321.64" style="fill: #555555; stroke: #555555; stroke-width: 0.8"/>
      </g>
     </g>
     <g id="text_3">
      <!-- 10 -->
      <g style="fill: #555555" transform="translate(239.193664 333.913316) scale(0.0694 -0.0694)">
       <defs>
        <path id="DejaVuSans-Bold-31" d="M 750 831 
L 1813 831 
L 1813 3847 
L 722 3622 
L 722 4441 
L 1806 4666 
L 2950 4666 
L 2950 831 
L 4013 831 
L 4013 0 
L 750 0 
L 750 831 
z
" transform="scale(0.015625)"/>
       </defs>
       <use xlink:href="#DejaVuSans-Bold-31"/>
       <use xlink:href="#DejaVuSans-Bold-30" x="69.580078"/>
      </g>
     </g>
    </g>
    <g id="xtick_4">
     <g id="line2d_9">
      <path d="M 338.570682 321.64 
L 338.570682 24.72 
" clip-path="url(#p06e8ba5163)" style="fill: none; stroke: #ffffff; stroke-width: 0.8; stroke-linecap: square"/>
     </g>
     <g id="line2d_10">
      <g>
       <use xlink:href="#m53f43214f7" x="338.570682" y="321.64" style="fill: #555555; stroke: #555555; stroke-width: 0.8"/>
      </g>
     </g>
     <g id="text_4">
      <!-- 15 -->
      <g style="fill: #555555" transform="translate(333.74196 333.913316) scale(0.0694 -0.0694)">
       <use xlink:href="#DejaVuSans-Bold-31"/>
       <use xlink:href="#DejaVuSans-Bold-35" x="69.580078"/>
      </g>
     </g>
    </g>
    <g id="xtick_5">
     <g id="line2d_11">
      <path d="M 433.118977 321.64 
L 433.118977 24.72 
" clip-path="url(#p06e8ba5163)" style="fill: none; stroke: #ffffff; stroke-width: 0.8; stroke-linecap: square"/>
     </g>
     <g id="line2d_12">
      <g>
       <use xlink:href="#m53f43214f7" x="433.118977" y="321.64" style="fill: #555555; stroke: #555555; stroke-width: 0.8"/>
      </g>
     </g>
     <g id="text_5">
      <!-- 20 -->
      <g style="fill: #555555" transform="translate(428.290255 333.913316) scale(0.0694 -0.0694)">
       <defs>
        <path id="DejaVuSans-Bold-32" d="M 1844 884 
L 3897 884 
L 3897 0 
L 506 0 
L 506 884 
L 2209 2388 
Q 2438 2594 2547 2791 
Q 2656 2988 2656 3200 
Q 2656 3528 2436 3728 
Q 2216 3928 1850 3928 
Q 1569 3928 1234 3808 
Q 900 3688 519 3450 
L 519 4475 
Q 925 4609 1322 4679 
Q 1719 4750 2100 4750 
Q 2938 4750 3402 4381 
Q 3866 4013 3866 3353 
Q 3866 2972 3669 2642 
Q 3472 2313 2841 1759 
L 1844 884 
z
" transform="scale(0.015625)"/>
       </defs>
       <use xlink:href="#DejaVuSans-Bold-32"/>
       <use xlink:href="#DejaVuSans-Bold-30" x="69.580078"/>
      </g>
     </g>
    </g>
    <g id="xtick_6">
     <g id="line2d_13">
      <path d="M 527.667273 321.64 
L 527.667273 24.72 
" clip-path="url(#p06e8ba5163)" style="fill: none; stroke: #ffffff; stroke-width: 0.8; stroke-linecap: square"/>
     </g>
     <g id="line2d_14">
      <g>
       <use xlink:href="#m53f43214f7" x="527.667273" y="321.64" style="fill: #555555; stroke: #555555; stroke-width: 0.8"/>
      </g>
     </g>
     <g id="text_6">
      <!-- 25 -->
      <g style="fill: #555555" transform="translate(522.838551 333.913316) scale(0.0694 -0.0694)">
       <use xlink:href="#DejaVuSans-Bold-32"/>
       <use xlink:href="#DejaVuSans-Bold-35" x="69.580078"/>
      </g>
     </g>
    </g>
    <g id="xtick_7">
     <g id="line2d_15">
      <path d="M 622.215568 321.64 
L 622.215568 24.72 
" clip-path="url(#p06e8ba5163)" style="fill: none; stroke: #ffffff; stroke-width: 0.8; stroke-linecap: square"/>
     </g>
     <g id="line2d_16">
      <g>
       <use xlink:href="#m53f43214f7" x="622.215568" y="321.64" style="fill: #555555; stroke: #555555; stroke-width: 0.8"/>
      </g>
     </g>
     <g id="text_7">
      <!-- 30 -->
      <g style="fill: #555555" transform="translate(617.386846 333.913316) scale(0.0694 -0.0694)">
       <defs>
        <path id="DejaVuSans-Bold-33" d="M 2981 2516 
Q 3453 2394 3698 2092 
Q 3944 1791 3944 1325 
Q 3944 631 3412 270 
Q 2881 -91 1863 -91 
Q 1503 -91 1142 -33 
Q 781 25 428 141 
L 428 1069 
Q 766 900 1098 814 
Q 1431 728 1753 728 
Q 2231 728 2486 893 
Q 2741 1059 2741 1369 
Q 2741 1688 2480 1852 
Q 2219 2016 1709 2016 
L 1228 2016 
L 1228 2791 
L 1734 2791 
Q 2188 2791 2409 2933 
Q 2631 3075 2631 3366 
Q 2631 3634 2415 3781 
Q 2200 3928 1806 3928 
Q 1516 3928 1219 3862 
Q 922 3797 628 3669 
L 628 4550 
Q 984 4650 1334 4700 
Q 1684 4750 2022 4750 
Q 2931 4750 3382 4451 
Q 3834 4153 3834 3553 
Q 3834 3144 3618 2883 
Q 3403 2622 2981 2516 
z
" transform="scale(0.015625)"/>
       </defs>
       <use xlink:href="#DejaVuSans-Bold-33"/>
       <use xlink:href="#DejaVuSans-Bold-30" x="69.580078"/>
      </g>
     </g>
    </g>
    <g id="text_8">
     <!-- k -->
     <g style="fill: #555555" transform="translate(373.620275 345.686117) scale(0.0833 -0.0833)">
      <defs>
       <path id="DejaVuSans-Bold-6b" d="M 538 4863 
L 1656 4863 
L 1656 2216 
L 2944 3500 
L 4244 3500 
L 2534 1894 
L 4378 0 
L 3022 0 
L 1656 1459 
L 1656 0 
L 538 0 
L 538 4863 
z
" transform="scale(0.015625)"/>
      </defs>
      <use xlink:href="#DejaVuSans-Bold-6b"/>
     </g>
    </g>
   </g>
   <g id="matplotlib.axis_2">
    <g id="ytick_1">
     <g id="line2d_17">
      <path d="M 43.58 290.858495 
L 709.2 290.858495 
" clip-path="url(#p06e8ba5163)" style="fill: none; stroke: #ffffff; stroke-width: 0.8; stroke-linecap: square"/>
     </g>
     <g id="line2d_18">
      <defs>
       <path id="m6aeb996cf9" d="M 0 0 
L -3.5 0 
" style="stroke: #555555; stroke-width: 0.8"/>
      </defs>
      <g>
       <use xlink:href="#m6aeb996cf9" x="43.58" y="290.858495" style="fill: #555555; stroke: #555555; stroke-width: 0.8"/>
      </g>
     </g>
     <g id="text_9">
      <!-- 0.4 -->
      <g style="fill: #555555" transform="translate(24.286441 293.495153) scale(0.0694 -0.0694)">
       <defs>
        <path id="DejaVuSans-Bold-2e" d="M 653 1209 
L 1778 1209 
L 1778 0 
L 653 0 
L 653 1209 
z
" transform="scale(0.015625)"/>
        <path id="DejaVuSans-Bold-34" d="M 2356 3675 
L 1038 1722 
L 2356 1722 
L 2356 3675 
z
M 2156 4666 
L 3494 4666 
L 3494 1722 
L 4159 1722 
L 4159 850 
L 3494 850 
L 3494 0 
L 2356 0 
L 2356 850 
L 288 850 
L 288 1881 
L 2156 4666 
z
" transform="scale(0.015625)"/>
       </defs>
       <use xlink:href="#DejaVuSans-Bold-30"/>
       <use xlink:href="#DejaVuSans-Bold-2e" x="69.580078"/>
       <use xlink:href="#DejaVuSans-Bold-34" x="107.568359"/>
      </g>
     </g>
    </g>
    <g id="ytick_2">
     <g id="line2d_19">
      <path d="M 43.58 225.951814 
L 709.2 225.951814 
" clip-path="url(#p06e8ba5163)" style="fill: none; stroke: #ffffff; stroke-width: 0.8; stroke-linecap: square"/>
     </g>
     <g id="line2d_20">
      <g>
       <use xlink:href="#m6aeb996cf9" x="43.58" y="225.951814" style="fill: #555555; stroke: #555555; stroke-width: 0.8"/>
      </g>
     </g>
     <g id="text_10">
      <!-- 0.5 -->
      <g style="fill: #555555" transform="translate(24.286441 228.588472) scale(0.0694 -0.0694)">
       <use xlink:href="#DejaVuSans-Bold-30"/>
       <use xlink:href="#DejaVuSans-Bold-2e" x="69.580078"/>
       <use xlink:href="#DejaVuSans-Bold-35" x="107.568359"/>
      </g>
     </g>
    </g>
    <g id="ytick_3">
     <g id="line2d_21">
      <path d="M 43.58 161.045133 
L 709.2 161.045133 
" clip-path="url(#p06e8ba5163)" style="fill: none; stroke: #ffffff; stroke-width: 0.8; stroke-linecap: square"/>
     </g>
     <g id="line2d_22">
      <g>
       <use xlink:href="#m6aeb996cf9" x="43.58" y="161.045133" style="fill: #555555; stroke: #555555; stroke-width: 0.8"/>
      </g>
     </g>
     <g id="text_11">
      <!-- 0.6 -->
      <g style="fill: #555555" transform="translate(24.286441 163.681791) scale(0.0694 -0.0694)">
       <defs>
        <path id="DejaVuSans-Bold-36" d="M 2316 2303 
Q 2000 2303 1842 2098 
Q 1684 1894 1684 1484 
Q 1684 1075 1842 870 
Q 2000 666 2316 666 
Q 2634 666 2792 870 
Q 2950 1075 2950 1484 
Q 2950 1894 2792 2098 
Q 2634 2303 2316 2303 
z
M 3803 4544 
L 3803 3681 
Q 3506 3822 3243 3889 
Q 2981 3956 2731 3956 
Q 2194 3956 1894 3657 
Q 1594 3359 1544 2772 
Q 1750 2925 1990 3001 
Q 2231 3078 2516 3078 
Q 3231 3078 3670 2659 
Q 4109 2241 4109 1563 
Q 4109 813 3618 361 
Q 3128 -91 2303 -91 
Q 1394 -91 895 523 
Q 397 1138 397 2266 
Q 397 3422 980 4083 
Q 1563 4744 2578 4744 
Q 2900 4744 3203 4694 
Q 3506 4644 3803 4544 
z
" transform="scale(0.015625)"/>
       </defs>
       <use xlink:href="#DejaVuSans-Bold-30"/>
       <use xlink:href="#DejaVuSans-Bold-2e" x="69.580078"/>
       <use xlink:href="#DejaVuSans-Bold-36" x="107.568359"/>
      </g>
     </g>
    </g>
    <g id="ytick_4">
     <g id="line2d_23">
      <path d="M 43.58 96.138452 
L 709.2 96.138452 
" clip-path="url(#p06e8ba5163)" style="fill: none; stroke: #ffffff; stroke-width: 0.8; stroke-linecap: square"/>
     </g>
     <g id="line2d_24">
      <g>
       <use xlink:href="#m6aeb996cf9" x="43.58" y="96.138452" style="fill: #555555; stroke: #555555; stroke-width: 0.8"/>
      </g>
     </g>
     <g id="text_12">
      <!-- 0.7 -->
      <g style="fill: #555555" transform="translate(24.286441 98.77511) scale(0.0694 -0.0694)">
       <defs>
        <path id="DejaVuSans-Bold-37" d="M 428 4666 
L 3944 4666 
L 3944 3988 
L 2125 0 
L 953 0 
L 2675 3781 
L 428 3781 
L 428 4666 
z
" transform="scale(0.015625)"/>
       </defs>
       <use xlink:href="#DejaVuSans-Bold-30"/>
       <use xlink:href="#DejaVuSans-Bold-2e" x="69.580078"/>
       <use xlink:href="#DejaVuSans-Bold-37" x="107.568359"/>
      </g>
     </g>
    </g>
    <g id="ytick_5">
     <g id="line2d_25">
      <path d="M 43.58 31.231771 
L 709.2 31.231771 
" clip-path="url(#p06e8ba5163)" style="fill: none; stroke: #ffffff; stroke-width: 0.8; stroke-linecap: square"/>
     </g>
     <g id="line2d_26">
      <g>
       <use xlink:href="#m6aeb996cf9" x="43.58" y="31.231771" style="fill: #555555; stroke: #555555; stroke-width: 0.8"/>
      </g>
     </g>
     <g id="text_13">
      <!-- 0.8 -->
      <g style="fill: #555555" transform="translate(24.286441 33.868429) scale(0.0694 -0.0694)">
       <defs>
        <path id="DejaVuSans-Bold-38" d="M 2228 2088 
Q 1891 2088 1709 1903 
Q 1528 1719 1528 1375 
Q 1528 1031 1709 848 
Q 1891 666 2228 666 
Q 2563 666 2741 848 
Q 2919 1031 2919 1375 
Q 2919 1722 2741 1905 
Q 2563 2088 2228 2088 
z
M 1350 2484 
Q 925 2613 709 2878 
Q 494 3144 494 3541 
Q 494 4131 934 4440 
Q 1375 4750 2228 4750 
Q 3075 4750 3515 4442 
Q 3956 4134 3956 3541 
Q 3956 3144 3739 2878 
Q 3522 2613 3097 2484 
Q 3572 2353 3814 2058 
Q 4056 1763 4056 1313 
Q 4056 619 3595 264 
Q 3134 -91 2228 -91 
Q 1319 -91 855 264 
Q 391 619 391 1313 
Q 391 1763 633 2058 
Q 875 2353 1350 2484 
z
M 1631 3419 
Q 1631 3141 1786 2991 
Q 1941 2841 2228 2841 
Q 2509 2841 2662 2991 
Q 2816 3141 2816 3419 
Q 2816 3697 2662 3845 
Q 2509 3994 2228 3994 
Q 1941 3994 1786 3844 
Q 1631 3694 1631 3419 
z
" transform="scale(0.015625)"/>
       </defs>
       <use xlink:href="#DejaVuSans-Bold-30"/>
       <use xlink:href="#DejaVuSans-Bold-2e" x="69.580078"/>
       <use xlink:href="#DejaVuSans-Bold-38" x="107.568359"/>
      </g>
     </g>
    </g>
    <g id="text_14">
     <!-- CV score (R2) -->
     <g style="fill: #555555" transform="translate(18.554061 204.960252) rotate(-90) scale(0.0833 -0.0833)">
      <defs>
       <path id="DejaVuSans-Bold-43" d="M 4288 256 
Q 3956 84 3597 -3 
Q 3238 -91 2847 -91 
Q 1681 -91 1000 561 
Q 319 1213 319 2328 
Q 319 3447 1000 4098 
Q 1681 4750 2847 4750 
Q 3238 4750 3597 4662 
Q 3956 4575 4288 4403 
L 4288 3438 
Q 3953 3666 3628 3772 
Q 3303 3878 2944 3878 
Q 2300 3878 1931 3465 
Q 1563 3053 1563 2328 
Q 1563 1606 1931 1193 
Q 2300 781 2944 781 
Q 3303 781 3628 887 
Q 3953 994 4288 1222 
L 4288 256 
z
" transform="scale(0.015625)"/>
       <path id="DejaVuSans-Bold-56" d="M 31 4666 
L 1241 4666 
L 2478 1222 
L 3713 4666 
L 4922 4666 
L 3194 0 
L 1759 0 
L 31 4666 
z
" transform="scale(0.015625)"/>
       <path id="DejaVuSans-Bold-20" transform="scale(0.015625)"/>
       <path id="DejaVuSans-Bold-73" d="M 3272 3391 
L 3272 2541 
Q 2913 2691 2578 2766 
Q 2244 2841 1947 2841 
Q 1628 2841 1473 2761 
Q 1319 2681 1319 2516 
Q 1319 2381 1436 2309 
Q 1553 2238 1856 2203 
L 2053 2175 
Q 2913 2066 3209 1816 
Q 3506 1566 3506 1031 
Q 3506 472 3093 190 
Q 2681 -91 1863 -91 
Q 1516 -91 1145 -36 
Q 775 19 384 128 
L 384 978 
Q 719 816 1070 734 
Q 1422 653 1784 653 
Q 2113 653 2278 743 
Q 2444 834 2444 1013 
Q 2444 1163 2330 1236 
Q 2216 1309 1875 1350 
L 1678 1375 
Q 931 1469 631 1722 
Q 331 1975 331 2491 
Q 331 3047 712 3315 
Q 1094 3584 1881 3584 
Q 2191 3584 2531 3537 
Q 2872 3491 3272 3391 
z
" transform="scale(0.015625)"/>
       <path id="DejaVuSans-Bold-63" d="M 3366 3391 
L 3366 2478 
Q 3138 2634 2908 2709 
Q 2678 2784 2431 2784 
Q 1963 2784 1702 2511 
Q 1441 2238 1441 1747 
Q 1441 1256 1702 982 
Q 1963 709 2431 709 
Q 2694 709 2930 787 
Q 3166 866 3366 1019 
L 3366 103 
Q 3103 6 2833 -42 
Q 2563 -91 2291 -91 
Q 1344 -91 809 395 
Q 275 881 275 1747 
Q 275 2613 809 3098 
Q 1344 3584 2291 3584 
Q 2566 3584 2833 3536 
Q 3100 3488 3366 3391 
z
" transform="scale(0.015625)"/>
       <path id="DejaVuSans-Bold-6f" d="M 2203 2784 
Q 1831 2784 1636 2517 
Q 1441 2250 1441 1747 
Q 1441 1244 1636 976 
Q 1831 709 2203 709 
Q 2569 709 2762 976 
Q 2956 1244 2956 1747 
Q 2956 2250 2762 2517 
Q 2569 2784 2203 2784 
z
M 2203 3584 
Q 3106 3584 3614 3096 
Q 4122 2609 4122 1747 
Q 4122 884 3614 396 
Q 3106 -91 2203 -91 
Q 1297 -91 786 396 
Q 275 884 275 1747 
Q 275 2609 786 3096 
Q 1297 3584 2203 3584 
z
" transform="scale(0.015625)"/>
       <path id="DejaVuSans-Bold-72" d="M 3138 2547 
Q 2991 2616 2845 2648 
Q 2700 2681 2553 2681 
Q 2122 2681 1889 2404 
Q 1656 2128 1656 1613 
L 1656 0 
L 538 0 
L 538 3500 
L 1656 3500 
L 1656 2925 
Q 1872 3269 2151 3426 
Q 2431 3584 2822 3584 
Q 2878 3584 2943 3579 
Q 3009 3575 3134 3559 
L 3138 2547 
z
" transform="scale(0.015625)"/>
       <path id="DejaVuSans-Bold-65" d="M 4031 1759 
L 4031 1441 
L 1416 1441 
Q 1456 1047 1700 850 
Q 1944 653 2381 653 
Q 2734 653 3104 758 
Q 3475 863 3866 1075 
L 3866 213 
Q 3469 63 3072 -14 
Q 2675 -91 2278 -91 
Q 1328 -91 801 392 
Q 275 875 275 1747 
Q 275 2603 792 3093 
Q 1309 3584 2216 3584 
Q 3041 3584 3536 3087 
Q 4031 2591 4031 1759 
z
M 2881 2131 
Q 2881 2450 2695 2645 
Q 2509 2841 2209 2841 
Q 1884 2841 1681 2658 
Q 1478 2475 1428 2131 
L 2881 2131 
z
" transform="scale(0.015625)"/>
       <path id="DejaVuSans-Bold-28" d="M 2413 -844 
L 1484 -844 
Q 1006 -72 778 623 
Q 550 1319 550 2003 
Q 550 2688 779 3389 
Q 1009 4091 1484 4856 
L 2413 4856 
Q 2013 4116 1813 3408 
Q 1613 2700 1613 2009 
Q 1613 1319 1811 609 
Q 2009 -100 2413 -844 
z
" transform="scale(0.015625)"/>
       <path id="DejaVuSans-Bold-52" d="M 2297 2597 
Q 2675 2597 2839 2737 
Q 3003 2878 3003 3200 
Q 3003 3519 2839 3656 
Q 2675 3794 2297 3794 
L 1791 3794 
L 1791 2597 
L 2297 2597 
z
M 1791 1766 
L 1791 0 
L 588 0 
L 588 4666 
L 2425 4666 
Q 3347 4666 3776 4356 
Q 4206 4047 4206 3378 
Q 4206 2916 3982 2619 
Q 3759 2322 3309 2181 
Q 3556 2125 3751 1926 
Q 3947 1728 4147 1325 
L 4800 0 
L 3519 0 
L 2950 1159 
Q 2778 1509 2601 1637 
Q 2425 1766 2131 1766 
L 1791 1766 
z
" transform="scale(0.015625)"/>
       <path id="DejaVuSans-Bold-29" d="M 513 -844 
Q 913 -100 1113 609 
Q 1313 1319 1313 2009 
Q 1313 2700 1113 3408 
Q 913 4116 513 4856 
L 1441 4856 
Q 1916 4091 2145 3389 
Q 2375 2688 2375 2003 
Q 2375 1319 2147 623 
Q 1919 -72 1441 -844 
L 513 -844 
z
" transform="scale(0.015625)"/>
      </defs>
      <use xlink:href="#DejaVuSans-Bold-43"/>
      <use xlink:href="#DejaVuSans-Bold-56" x="73.388672"/>
      <use xlink:href="#DejaVuSans-Bold-20" x="150.78125"/>
      <use xlink:href="#DejaVuSans-Bold-73" x="185.595703"/>
      <use xlink:href="#DejaVuSans-Bold-63" x="245.117188"/>
      <use xlink:href="#DejaVuSans-Bold-6f" x="304.394531"/>
      <use xlink:href="#DejaVuSans-Bold-72" x="373.095703"/>
      <use xlink:href="#DejaVuSans-Bold-65" x="422.412109"/>
      <use xlink:href="#DejaVuSans-Bold-20" x="490.234375"/>
      <use xlink:href="#DejaVuSans-Bold-28" x="525.048828"/>
      <use xlink:href="#DejaVuSans-Bold-52" x="570.751953"/>
      <use xlink:href="#DejaVuSans-Bold-32" x="647.753906"/>
      <use xlink:href="#DejaVuSans-Bold-29" x="717.333984"/>
     </g>
    </g>
   </g>
   <g id="LineCollection_1">
    <path d="M 73.835455 235.051742 
L 73.835455 128.036874 
" clip-path="url(#p06e8ba5163)" style="fill: none; stroke: #a9a9a9; stroke-width: 1.5"/>
    <path d="M 92.745114 260.190154 
L 92.745114 124.808447 
" clip-path="url(#p06e8ba5163)" style="fill: none; stroke: #a9a9a9; stroke-width: 1.5"/>
    <path d="M 111.654773 216.497607 
L 111.654773 109.295402 
" clip-path="url(#p06e8ba5163)" style="fill: none; stroke: #a9a9a9; stroke-width: 1.5"/>
    <path d="M 130.564432 187.385222 
L 130.564432 74.838198 
" clip-path="url(#p06e8ba5163)" style="fill: none; stroke: #a9a9a9; stroke-width: 1.5"/>
    <path d="M 149.474091 182.996111 
L 149.474091 76.405261 
" clip-path="url(#p06e8ba5163)" style="fill: none; stroke: #a9a9a9; stroke-width: 1.5"/>
    <path d="M 168.38375 154.551258 
L 168.38375 67.692965 
" clip-path="url(#p06e8ba5163)" style="fill: none; stroke: #a9a9a9; stroke-width: 1.5"/>
    <path d="M 187.293409 139.206847 
L 187.293409 79.85031 
" clip-path="url(#p06e8ba5163)" style="fill: none; stroke: #a9a9a9; stroke-width: 1.5"/>
    <path d="M 206.203068 137.924325 
L 206.203068 78.306504 
" clip-path="url(#p06e8ba5163)" style="fill: none; stroke: #a9a9a9; stroke-width: 1.5"/>
    <path d="M 225.112727 163.601922 
L 225.112727 79.975114 
" clip-path="url(#p06e8ba5163)" style="fill: none; stroke: #a9a9a9; stroke-width: 1.5"/>
    <path d="M 244.022386 164.340806 
L 244.022386 79.041734 
" clip-path="url(#p06e8ba5163)" style="fill: none; stroke: #a9a9a9; stroke-width: 1.5"/>
    <path d="M 262.932045 168.23962 
L 262.932045 75.49032 
" clip-path="url(#p06e8ba5163)" style="fill: none; stroke: #a9a9a9; stroke-width: 1.5"/>
    <path d="M 281.841705 168.49079 
L 281.841705 79.612665 
" clip-path="url(#p06e8ba5163)" style="fill: none; stroke: #a9a9a9; stroke-width: 1.5"/>
    <path d="M 300.751364 191.383007 
L 300.751364 81.142771 
" clip-path="url(#p06e8ba5163)" style="fill: none; stroke: #a9a9a9; stroke-width: 1.5"/>
    <path d="M 319.661023 190.047801 
L 319.661023 81.383802 
" clip-path="url(#p06e8ba5163)" style="fill: none; stroke: #a9a9a9; stroke-width: 1.5"/>
    <path d="M 338.570682 201.489832 
L 338.570682 78.134842 
" clip-path="url(#p06e8ba5163)" style="fill: none; stroke: #a9a9a9; stroke-width: 1.5"/>
    <path d="M 357.480341 203.903734 
L 357.480341 66.19376 
" clip-path="url(#p06e8ba5163)" style="fill: none; stroke: #a9a9a9; stroke-width: 1.5"/>
    <path d="M 376.39 208.358546 
L 376.39 68.319698 
" clip-path="url(#p06e8ba5163)" style="fill: none; stroke: #a9a9a9; stroke-width: 1.5"/>
    <path d="M 395.299659 204.931582 
L 395.299659 57.007026 
" clip-path="url(#p06e8ba5163)" style="fill: none; stroke: #a9a9a9; stroke-width: 1.5"/>
    <path d="M 414.209318 211.316529 
L 414.209318 53.408464 
" clip-path="url(#p06e8ba5163)" style="fill: none; stroke: #a9a9a9; stroke-width: 1.5"/>
    <path d="M 433.118977 206.906786 
L 433.118977 57.233532 
" clip-path="url(#p06e8ba5163)" style="fill: none; stroke: #a9a9a9; stroke-width: 1.5"/>
    <path d="M 452.028636 252.224562 
L 452.028636 44.530386 
" clip-path="url(#p06e8ba5163)" style="fill: none; stroke: #a9a9a9; stroke-width: 1.5"/>
    <path d="M 470.938295 249.81902 
L 470.938295 43.585063 
" clip-path="url(#p06e8ba5163)" style="fill: none; stroke: #a9a9a9; stroke-width: 1.5"/>
    <path d="M 489.847955 247.577207 
L 489.847955 41.007443 
" clip-path="url(#p06e8ba5163)" style="fill: none; stroke: #a9a9a9; stroke-width: 1.5"/>
    <path d="M 508.757614 241.996635 
L 508.757614 42.52586 
" clip-path="url(#p06e8ba5163)" style="fill: none; stroke: #a9a9a9; stroke-width: 1.5"/>
    <path d="M 527.667273 259.615116 
L 527.667273 41.24676 
" clip-path="url(#p06e8ba5163)" style="fill: none; stroke: #a9a9a9; stroke-width: 1.5"/>
    <path d="M 546.576932 252.336116 
L 546.576932 48.628092 
" clip-path="url(#p06e8ba5163)" style="fill: none; stroke: #a9a9a9; stroke-width: 1.5"/>
    <path d="M 565.486591 251.96426 
L 565.486591 46.543196 
" clip-path="url(#p06e8ba5163)" style="fill: none; stroke: #a9a9a9; stroke-width: 1.5"/>
    <path d="M 584.39625 253.584018 
L 584.39625 39.470781 
" clip-path="url(#p06e8ba5163)" style="fill: none; stroke: #a9a9a9; stroke-width: 1.5"/>
    <path d="M 603.305909 248.120916 
L 603.305909 44.126536 
" clip-path="url(#p06e8ba5163)" style="fill: none; stroke: #a9a9a9; stroke-width: 1.5"/>
    <path d="M 622.215568 252.05393 
L 622.215568 47.0054 
" clip-path="url(#p06e8ba5163)" style="fill: none; stroke: #a9a9a9; stroke-width: 1.5"/>
    <path d="M 641.125227 263.371328 
L 641.125227 49.366772 
" clip-path="url(#p06e8ba5163)" style="fill: none; stroke: #a9a9a9; stroke-width: 1.5"/>
    <path d="M 660.034886 278.192176 
L 660.034886 47.782931 
" clip-path="url(#p06e8ba5163)" style="fill: none; stroke: #a9a9a9; stroke-width: 1.5"/>
    <path d="M 678.944545 308.143636 
L 678.944545 38.216364 
" clip-path="url(#p06e8ba5163)" style="fill: none; stroke: #a9a9a9; stroke-width: 1.5"/>
   </g>
   <g id="line2d_27">
    <path d="M 73.835455 181.544308 
L 92.745114 192.499301 
L 111.654773 162.896504 
L 130.564432 131.11171 
L 149.474091 129.700686 
L 168.38375 111.122111 
L 187.293409 109.528579 
L 206.203068 108.115415 
L 225.112727 121.788518 
L 244.022386 121.69127 
L 262.932045 121.86497 
L 281.841705 124.051728 
L 300.751364 136.262889 
L 319.661023 135.715802 
L 338.570682 139.812337 
L 357.480341 135.048747 
L 376.39 138.339122 
L 395.299659 130.969304 
L 414.209318 132.362496 
L 433.118977 132.070159 
L 452.028636 148.377474 
L 470.938295 146.702041 
L 489.847955 144.292325 
L 508.757614 142.261247 
L 527.667273 150.430938 
L 546.576932 150.482104 
L 565.486591 149.253728 
L 584.39625 146.5274 
L 603.305909 146.123726 
L 622.215568 149.529665 
L 641.125227 156.36905 
L 660.034886 162.987553 
L 678.944545 173.18 
" clip-path="url(#p06e8ba5163)" style="fill: none; stroke-dasharray: 5.55,2.4; stroke-dashoffset: 0; stroke: #a9a9a9; stroke-width: 1.5"/>
    <defs>
     <path id="m8bac554ffd" d="M 0 3 
C 0.795609 3 1.55874 2.683901 2.12132 2.12132 
C 2.683901 1.55874 3 0.795609 3 0 
C 3 -0.795609 2.683901 -1.55874 2.12132 -2.12132 
C 1.55874 -2.683901 0.795609 -3 0 -3 
C -0.795609 -3 -1.55874 -2.683901 -2.12132 -2.12132 
C -2.683901 -1.55874 -3 -0.795609 -3 0 
C -3 0.795609 -2.683901 1.55874 -2.12132 2.12132 
C -1.55874 2.683901 -0.795609 3 0 3 
z
" style="stroke: #a9a9a9"/>
    </defs>
    <g clip-path="url(#p06e8ba5163)">
     <use xlink:href="#m8bac554ffd" x="73.835455" y="181.544308" style="fill: #a9a9a9; stroke: #a9a9a9"/>
     <use xlink:href="#m8bac554ffd" x="92.745114" y="192.499301" style="fill: #a9a9a9; stroke: #a9a9a9"/>
     <use xlink:href="#m8bac554ffd" x="111.654773" y="162.896504" style="fill: #a9a9a9; stroke: #a9a9a9"/>
     <use xlink:href="#m8bac554ffd" x="130.564432" y="131.11171" style="fill: #a9a9a9; stroke: #a9a9a9"/>
     <use xlink:href="#m8bac554ffd" x="149.474091" y="129.700686" style="fill: #a9a9a9; stroke: #a9a9a9"/>
     <use xlink:href="#m8bac554ffd" x="168.38375" y="111.122111" style="fill: #a9a9a9; stroke: #a9a9a9"/>
     <use xlink:href="#m8bac554ffd" x="187.293409" y="109.528579" style="fill: #a9a9a9; stroke: #a9a9a9"/>
     <use xlink:href="#m8bac554ffd" x="206.203068" y="108.115415" style="fill: #a9a9a9; stroke: #a9a9a9"/>
     <use xlink:href="#m8bac554ffd" x="225.112727" y="121.788518" style="fill: #a9a9a9; stroke: #a9a9a9"/>
     <use xlink:href="#m8bac554ffd" x="244.022386" y="121.69127" style="fill: #a9a9a9; stroke: #a9a9a9"/>
     <use xlink:href="#m8bac554ffd" x="262.932045" y="121.86497" style="fill: #a9a9a9; stroke: #a9a9a9"/>
     <use xlink:href="#m8bac554ffd" x="281.841705" y="124.051728" style="fill: #a9a9a9; stroke: #a9a9a9"/>
     <use xlink:href="#m8bac554ffd" x="300.751364" y="136.262889" style="fill: #a9a9a9; stroke: #a9a9a9"/>
     <use xlink:href="#m8bac554ffd" x="319.661023" y="135.715802" style="fill: #a9a9a9; stroke: #a9a9a9"/>
     <use xlink:href="#m8bac554ffd" x="338.570682" y="139.812337" style="fill: #a9a9a9; stroke: #a9a9a9"/>
     <use xlink:href="#m8bac554ffd" x="357.480341" y="135.048747" style="fill: #a9a9a9; stroke: #a9a9a9"/>
     <use xlink:href="#m8bac554ffd" x="376.39" y="138.339122" style="fill: #a9a9a9; stroke: #a9a9a9"/>
     <use xlink:href="#m8bac554ffd" x="395.299659" y="130.969304" style="fill: #a9a9a9; stroke: #a9a9a9"/>
     <use xlink:href="#m8bac554ffd" x="414.209318" y="132.362496" style="fill: #a9a9a9; stroke: #a9a9a9"/>
     <use xlink:href="#m8bac554ffd" x="433.118977" y="132.070159" style="fill: #a9a9a9; stroke: #a9a9a9"/>
     <use xlink:href="#m8bac554ffd" x="452.028636" y="148.377474" style="fill: #a9a9a9; stroke: #a9a9a9"/>
     <use xlink:href="#m8bac554ffd" x="470.938295" y="146.702041" style="fill: #a9a9a9; stroke: #a9a9a9"/>
     <use xlink:href="#m8bac554ffd" x="489.847955" y="144.292325" style="fill: #a9a9a9; stroke: #a9a9a9"/>
     <use xlink:href="#m8bac554ffd" x="508.757614" y="142.261247" style="fill: #a9a9a9; stroke: #a9a9a9"/>
     <use xlink:href="#m8bac554ffd" x="527.667273" y="150.430938" style="fill: #a9a9a9; stroke: #a9a9a9"/>
     <use xlink:href="#m8bac554ffd" x="546.576932" y="150.482104" style="fill: #a9a9a9; stroke: #a9a9a9"/>
     <use xlink:href="#m8bac554ffd" x="565.486591" y="149.253728" style="fill: #a9a9a9; stroke: #a9a9a9"/>
     <use xlink:href="#m8bac554ffd" x="584.39625" y="146.5274" style="fill: #a9a9a9; stroke: #a9a9a9"/>
     <use xlink:href="#m8bac554ffd" x="603.305909" y="146.123726" style="fill: #a9a9a9; stroke: #a9a9a9"/>
     <use xlink:href="#m8bac554ffd" x="622.215568" y="149.529665" style="fill: #a9a9a9; stroke: #a9a9a9"/>
     <use xlink:href="#m8bac554ffd" x="641.125227" y="156.36905" style="fill: #a9a9a9; stroke: #a9a9a9"/>
     <use xlink:href="#m8bac554ffd" x="660.034886" y="162.987553" style="fill: #a9a9a9; stroke: #a9a9a9"/>
     <use xlink:href="#m8bac554ffd" x="678.944545" y="173.18" style="fill: #a9a9a9; stroke: #a9a9a9"/>
    </g>
   </g>
   <g id="line2d_28">
    <path d="M 206.203068 108.115415 
" clip-path="url(#p06e8ba5163)" style="fill: none; stroke-dasharray: 9.6,2.4,1.5,2.4; stroke-dashoffset: 0; stroke: #0024ed; stroke-width: 1.5"/>
    <defs>
     <path id="m67e7e45e41" d="M 0 2.5 
C 0.663008 2.5 1.29895 2.236584 1.767767 1.767767 
C 2.236584 1.29895 2.5 0.663008 2.5 0 
C 2.5 -0.663008 2.236584 -1.29895 1.767767 -1.767767 
C 1.29895 -2.236584 0.663008 -2.5 0 -2.5 
C -0.663008 -2.5 -1.29895 -2.236584 -1.767767 -1.767767 
C -2.236584 -1.29895 -2.5 -0.663008 -2.5 0 
C -2.5 0.663008 -2.236584 1.29895 -1.767767 1.767767 
C -1.29895 2.236584 -0.663008 2.5 0 2.5 
z
" style="stroke: #0024ed; stroke-width: 3"/>
    </defs>
    <g clip-path="url(#p06e8ba5163)">
     <use xlink:href="#m67e7e45e41" x="206.203068" y="108.115415" style="fill: #0024ed; stroke: #0024ed; stroke-width: 3"/>
    </g>
   </g>
   <g id="patch_3">
    <path d="M 43.58 321.64 
L 43.58 24.72 
" style="fill: none; stroke: #ffffff; stroke-linejoin: miter; stroke-linecap: square"/>
   </g>
   <g id="patch_4">
    <path d="M 709.2 321.64 
L 709.2 24.72 
" style="fill: none; stroke: #ffffff; stroke-linejoin: miter; stroke-linecap: square"/>
   </g>
   <g id="patch_5">
    <path d="M 43.58 321.64 
L 709.2 321.64 
" style="fill: none; stroke: #ffffff; stroke-linejoin: miter; stroke-linecap: square"/>
   </g>
   <g id="patch_6">
    <path d="M 43.58 24.72 
L 709.2 24.72 
" style="fill: none; stroke: #ffffff; stroke-linejoin: miter; stroke-linecap: square"/>
   </g>
   <g id="patch_7">
    <path d="M 238.258091 63.403529 
Q 222.812633 84.947595 207.692891 106.037338 
" style="fill: none; stroke: #0000ff; stroke-width: 0.5; stroke-linecap: round"/>
    <path d="M 210.857743 104.368892 
L 207.692891 106.037338 
L 208.257045 102.504389 
" style="fill: none; stroke: #0000ff; stroke-width: 0.5; stroke-linecap: round"/>
   </g>
   <g id="text_15">
    <!-- best "k" value = 8 -->
    <g style="fill: #0024ed" transform="translate(206.203068 49.157165) scale(0.08 -0.08)">
     <defs>
      <path id="DejaVuSans-Bold-62" d="M 2400 722 
Q 2759 722 2948 984 
Q 3138 1247 3138 1747 
Q 3138 2247 2948 2509 
Q 2759 2772 2400 2772 
Q 2041 2772 1848 2508 
Q 1656 2244 1656 1747 
Q 1656 1250 1848 986 
Q 2041 722 2400 722 
z
M 1656 2988 
Q 1888 3294 2169 3439 
Q 2450 3584 2816 3584 
Q 3463 3584 3878 3070 
Q 4294 2556 4294 1747 
Q 4294 938 3878 423 
Q 3463 -91 2816 -91 
Q 2450 -91 2169 54 
Q 1888 200 1656 506 
L 1656 0 
L 538 0 
L 538 4863 
L 1656 4863 
L 1656 2988 
z
" transform="scale(0.015625)"/>
      <path id="DejaVuSans-Bold-74" d="M 1759 4494 
L 1759 3500 
L 2913 3500 
L 2913 2700 
L 1759 2700 
L 1759 1216 
Q 1759 972 1856 886 
Q 1953 800 2241 800 
L 2816 800 
L 2816 0 
L 1856 0 
Q 1194 0 917 276 
Q 641 553 641 1216 
L 641 2700 
L 84 2700 
L 84 3500 
L 641 3500 
L 641 4494 
L 1759 4494 
z
" transform="scale(0.015625)"/>
      <path id="DejaVuSans-Bold-22" d="M 2725 4666 
L 2725 2931 
L 1984 2931 
L 1984 4666 
L 2725 4666 
z
M 1350 4666 
L 1350 2931 
L 609 2931 
L 609 4666 
L 1350 4666 
z
" transform="scale(0.015625)"/>
      <path id="DejaVuSans-Bold-76" d="M 97 3500 
L 1216 3500 
L 2088 1081 
L 2956 3500 
L 4078 3500 
L 2700 0 
L 1472 0 
L 97 3500 
z
" transform="scale(0.015625)"/>
      <path id="DejaVuSans-Bold-61" d="M 2106 1575 
Q 1756 1575 1579 1456 
Q 1403 1338 1403 1106 
Q 1403 894 1545 773 
Q 1688 653 1941 653 
Q 2256 653 2472 879 
Q 2688 1106 2688 1447 
L 2688 1575 
L 2106 1575 
z
M 3816 1997 
L 3816 0 
L 2688 0 
L 2688 519 
Q 2463 200 2181 54 
Q 1900 -91 1497 -91 
Q 953 -91 614 226 
Q 275 544 275 1050 
Q 275 1666 698 1953 
Q 1122 2241 2028 2241 
L 2688 2241 
L 2688 2328 
Q 2688 2594 2478 2717 
Q 2269 2841 1825 2841 
Q 1466 2841 1156 2769 
Q 847 2697 581 2553 
L 581 3406 
Q 941 3494 1303 3539 
Q 1666 3584 2028 3584 
Q 2975 3584 3395 3211 
Q 3816 2838 3816 1997 
z
" transform="scale(0.015625)"/>
      <path id="DejaVuSans-Bold-6c" d="M 538 4863 
L 1656 4863 
L 1656 0 
L 538 0 
L 538 4863 
z
" transform="scale(0.015625)"/>
      <path id="DejaVuSans-Bold-75" d="M 500 1363 
L 500 3500 
L 1625 3500 
L 1625 3150 
Q 1625 2866 1622 2436 
Q 1619 2006 1619 1863 
Q 1619 1441 1641 1255 
Q 1663 1069 1716 984 
Q 1784 875 1895 815 
Q 2006 756 2150 756 
Q 2500 756 2700 1025 
Q 2900 1294 2900 1772 
L 2900 3500 
L 4019 3500 
L 4019 0 
L 2900 0 
L 2900 506 
Q 2647 200 2364 54 
Q 2081 -91 1741 -91 
Q 1134 -91 817 281 
Q 500 653 500 1363 
z
" transform="scale(0.015625)"/>
      <path id="DejaVuSans-Bold-3d" d="M 678 3084 
L 4684 3084 
L 4684 2350 
L 678 2350 
L 678 3084 
z
M 678 1663 
L 4684 1663 
L 4684 922 
L 678 922 
L 678 1663 
z
" transform="scale(0.015625)"/>
     </defs>
     <use xlink:href="#DejaVuSans-Bold-62"/>
     <use xlink:href="#DejaVuSans-Bold-65" x="71.582031"/>
     <use xlink:href="#DejaVuSans-Bold-73" x="139.404297"/>
     <use xlink:href="#DejaVuSans-Bold-74" x="198.925781"/>
     <use xlink:href="#DejaVuSans-Bold-20" x="246.728516"/>
     <use xlink:href="#DejaVuSans-Bold-22" x="281.542969"/>
     <use xlink:href="#DejaVuSans-Bold-6b" x="333.642578"/>
     <use xlink:href="#DejaVuSans-Bold-22" x="400.146484"/>
     <use xlink:href="#DejaVuSans-Bold-20" x="452.246094"/>
     <use xlink:href="#DejaVuSans-Bold-76" x="487.060547"/>
     <use xlink:href="#DejaVuSans-Bold-61" x="552.246094"/>
     <use xlink:href="#DejaVuSans-Bold-6c" x="619.726562"/>
     <use xlink:href="#DejaVuSans-Bold-75" x="654.003906"/>
     <use xlink:href="#DejaVuSans-Bold-65" x="725.195312"/>
     <use xlink:href="#DejaVuSans-Bold-20" x="793.017578"/>
     <use xlink:href="#DejaVuSans-Bold-3d" x="827.832031"/>
     <use xlink:href="#DejaVuSans-Bold-20" x="911.621094"/>
     <use xlink:href="#DejaVuSans-Bold-38" x="946.435547"/>
    </g>
    <!-- best score=0.66 -->
    <g style="fill: #0024ed" transform="translate(206.203068 58.115415) scale(0.08 -0.08)">
     <use xlink:href="#DejaVuSans-Bold-62"/>
     <use xlink:href="#DejaVuSans-Bold-65" x="71.582031"/>
     <use xlink:href="#DejaVuSans-Bold-73" x="139.404297"/>
     <use xlink:href="#DejaVuSans-Bold-74" x="198.925781"/>
     <use xlink:href="#DejaVuSans-Bold-20" x="246.728516"/>
     <use xlink:href="#DejaVuSans-Bold-73" x="281.542969"/>
     <use xlink:href="#DejaVuSans-Bold-63" x="341.064453"/>
     <use xlink:href="#DejaVuSans-Bold-6f" x="400.341797"/>
     <use xlink:href="#DejaVuSans-Bold-72" x="469.042969"/>
     <use xlink:href="#DejaVuSans-Bold-65" x="518.359375"/>
     <use xlink:href="#DejaVuSans-Bold-3d" x="586.181641"/>
     <use xlink:href="#DejaVuSans-Bold-30" x="669.970703"/>
     <use xlink:href="#DejaVuSans-Bold-2e" x="739.550781"/>
     <use xlink:href="#DejaVuSans-Bold-36" x="777.539062"/>
     <use xlink:href="#DejaVuSans-Bold-36" x="847.119141"/>
    </g>
   </g>
   <g id="text_16">
    <!-- Mean CV Score with varying SelectKBest "k" Hyper-Parameter values(error bars +/- 1 sd) -->
    <g transform="translate(124.745469 18.72) scale(0.1 -0.1)">
     <defs>
      <path id="DejaVuSans-Bold-4d" d="M 588 4666 
L 2119 4666 
L 3181 2169 
L 4250 4666 
L 5778 4666 
L 5778 0 
L 4641 0 
L 4641 3413 
L 3566 897 
L 2803 897 
L 1728 3413 
L 1728 0 
L 588 0 
L 588 4666 
z
" transform="scale(0.015625)"/>
      <path id="DejaVuSans-Bold-6e" d="M 4056 2131 
L 4056 0 
L 2931 0 
L 2931 347 
L 2931 1631 
Q 2931 2084 2911 2256 
Q 2891 2428 2841 2509 
Q 2775 2619 2662 2680 
Q 2550 2741 2406 2741 
Q 2056 2741 1856 2470 
Q 1656 2200 1656 1722 
L 1656 0 
L 538 0 
L 538 3500 
L 1656 3500 
L 1656 2988 
Q 1909 3294 2193 3439 
Q 2478 3584 2822 3584 
Q 3428 3584 3742 3212 
Q 4056 2841 4056 2131 
z
" transform="scale(0.015625)"/>
      <path id="DejaVuSans-Bold-53" d="M 3834 4519 
L 3834 3531 
Q 3450 3703 3084 3790 
Q 2719 3878 2394 3878 
Q 1963 3878 1756 3759 
Q 1550 3641 1550 3391 
Q 1550 3203 1689 3098 
Q 1828 2994 2194 2919 
L 2706 2816 
Q 3484 2659 3812 2340 
Q 4141 2022 4141 1434 
Q 4141 663 3683 286 
Q 3225 -91 2284 -91 
Q 1841 -91 1394 -6 
Q 947 78 500 244 
L 500 1259 
Q 947 1022 1364 901 
Q 1781 781 2169 781 
Q 2563 781 2772 912 
Q 2981 1044 2981 1288 
Q 2981 1506 2839 1625 
Q 2697 1744 2272 1838 
L 1806 1941 
Q 1106 2091 782 2419 
Q 459 2747 459 3303 
Q 459 4000 909 4375 
Q 1359 4750 2203 4750 
Q 2588 4750 2994 4692 
Q 3400 4634 3834 4519 
z
" transform="scale(0.015625)"/>
      <path id="DejaVuSans-Bold-77" d="M 225 3500 
L 1313 3500 
L 1900 1088 
L 2491 3500 
L 3425 3500 
L 4013 1113 
L 4603 3500 
L 5691 3500 
L 4769 0 
L 3547 0 
L 2956 2406 
L 2369 0 
L 1147 0 
L 225 3500 
z
" transform="scale(0.015625)"/>
      <path id="DejaVuSans-Bold-69" d="M 538 3500 
L 1656 3500 
L 1656 0 
L 538 0 
L 538 3500 
z
M 538 4863 
L 1656 4863 
L 1656 3950 
L 538 3950 
L 538 4863 
z
" transform="scale(0.015625)"/>
      <path id="DejaVuSans-Bold-68" d="M 4056 2131 
L 4056 0 
L 2931 0 
L 2931 347 
L 2931 1625 
Q 2931 2084 2911 2256 
Q 2891 2428 2841 2509 
Q 2775 2619 2662 2680 
Q 2550 2741 2406 2741 
Q 2056 2741 1856 2470 
Q 1656 2200 1656 1722 
L 1656 0 
L 538 0 
L 538 4863 
L 1656 4863 
L 1656 2988 
Q 1909 3294 2193 3439 
Q 2478 3584 2822 3584 
Q 3428 3584 3742 3212 
Q 4056 2841 4056 2131 
z
" transform="scale(0.015625)"/>
      <path id="DejaVuSans-Bold-79" d="M 78 3500 
L 1197 3500 
L 2138 1125 
L 2938 3500 
L 4056 3500 
L 2584 -331 
Q 2363 -916 2067 -1148 
Q 1772 -1381 1288 -1381 
L 641 -1381 
L 641 -647 
L 991 -647 
Q 1275 -647 1404 -556 
Q 1534 -466 1606 -231 
L 1638 -134 
L 78 3500 
z
" transform="scale(0.015625)"/>
      <path id="DejaVuSans-Bold-67" d="M 2919 594 
Q 2688 288 2409 144 
Q 2131 0 1766 0 
Q 1125 0 706 504 
Q 288 1009 288 1791 
Q 288 2575 706 3076 
Q 1125 3578 1766 3578 
Q 2131 3578 2409 3434 
Q 2688 3291 2919 2981 
L 2919 3500 
L 4044 3500 
L 4044 353 
Q 4044 -491 3511 -936 
Q 2978 -1381 1966 -1381 
Q 1638 -1381 1331 -1331 
Q 1025 -1281 716 -1178 
L 716 -306 
Q 1009 -475 1290 -558 
Q 1572 -641 1856 -641 
Q 2406 -641 2662 -400 
Q 2919 -159 2919 353 
L 2919 594 
z
M 2181 2772 
Q 1834 2772 1640 2515 
Q 1447 2259 1447 1791 
Q 1447 1309 1634 1061 
Q 1822 813 2181 813 
Q 2531 813 2725 1069 
Q 2919 1325 2919 1791 
Q 2919 2259 2725 2515 
Q 2531 2772 2181 2772 
z
" transform="scale(0.015625)"/>
      <path id="DejaVuSans-Bold-4b" d="M 588 4666 
L 1791 4666 
L 1791 2963 
L 3525 4666 
L 4922 4666 
L 2675 2456 
L 5153 0 
L 3647 0 
L 1791 1838 
L 1791 0 
L 588 0 
L 588 4666 
z
" transform="scale(0.015625)"/>
      <path id="DejaVuSans-Bold-42" d="M 2456 2859 
Q 2741 2859 2887 2984 
Q 3034 3109 3034 3353 
Q 3034 3594 2887 3720 
Q 2741 3847 2456 3847 
L 1791 3847 
L 1791 2859 
L 2456 2859 
z
M 2497 819 
Q 2859 819 3042 972 
Q 3225 1125 3225 1434 
Q 3225 1738 3044 1889 
Q 2863 2041 2497 2041 
L 1791 2041 
L 1791 819 
L 2497 819 
z
M 3616 2497 
Q 4003 2384 4215 2081 
Q 4428 1778 4428 1338 
Q 4428 663 3972 331 
Q 3516 0 2584 0 
L 588 0 
L 588 4666 
L 2394 4666 
Q 3366 4666 3802 4372 
Q 4238 4078 4238 3431 
Q 4238 3091 4078 2852 
Q 3919 2613 3616 2497 
z
" transform="scale(0.015625)"/>
      <path id="DejaVuSans-Bold-48" d="M 588 4666 
L 1791 4666 
L 1791 2888 
L 3566 2888 
L 3566 4666 
L 4769 4666 
L 4769 0 
L 3566 0 
L 3566 1978 
L 1791 1978 
L 1791 0 
L 588 0 
L 588 4666 
z
" transform="scale(0.015625)"/>
      <path id="DejaVuSans-Bold-70" d="M 1656 506 
L 1656 -1331 
L 538 -1331 
L 538 3500 
L 1656 3500 
L 1656 2988 
Q 1888 3294 2169 3439 
Q 2450 3584 2816 3584 
Q 3463 3584 3878 3070 
Q 4294 2556 4294 1747 
Q 4294 938 3878 423 
Q 3463 -91 2816 -91 
Q 2450 -91 2169 54 
Q 1888 200 1656 506 
z
M 2400 2772 
Q 2041 2772 1848 2508 
Q 1656 2244 1656 1747 
Q 1656 1250 1848 986 
Q 2041 722 2400 722 
Q 2759 722 2948 984 
Q 3138 1247 3138 1747 
Q 3138 2247 2948 2509 
Q 2759 2772 2400 2772 
z
" transform="scale(0.015625)"/>
      <path id="DejaVuSans-Bold-2d" d="M 347 2297 
L 2309 2297 
L 2309 1388 
L 347 1388 
L 347 2297 
z
" transform="scale(0.015625)"/>
      <path id="DejaVuSans-Bold-50" d="M 588 4666 
L 2584 4666 
Q 3475 4666 3951 4270 
Q 4428 3875 4428 3144 
Q 4428 2409 3951 2014 
Q 3475 1619 2584 1619 
L 1791 1619 
L 1791 0 
L 588 0 
L 588 4666 
z
M 1791 3794 
L 1791 2491 
L 2456 2491 
Q 2806 2491 2997 2661 
Q 3188 2831 3188 3144 
Q 3188 3456 2997 3625 
Q 2806 3794 2456 3794 
L 1791 3794 
z
" transform="scale(0.015625)"/>
      <path id="DejaVuSans-Bold-6d" d="M 3781 2919 
Q 3994 3244 4286 3414 
Q 4578 3584 4928 3584 
Q 5531 3584 5847 3212 
Q 6163 2841 6163 2131 
L 6163 0 
L 5038 0 
L 5038 1825 
Q 5041 1866 5042 1909 
Q 5044 1953 5044 2034 
Q 5044 2406 4934 2573 
Q 4825 2741 4581 2741 
Q 4263 2741 4089 2478 
Q 3916 2216 3909 1719 
L 3909 0 
L 2784 0 
L 2784 1825 
Q 2784 2406 2684 2573 
Q 2584 2741 2328 2741 
Q 2006 2741 1831 2477 
Q 1656 2213 1656 1722 
L 1656 0 
L 531 0 
L 531 3500 
L 1656 3500 
L 1656 2988 
Q 1863 3284 2130 3434 
Q 2397 3584 2719 3584 
Q 3081 3584 3359 3409 
Q 3638 3234 3781 2919 
z
" transform="scale(0.015625)"/>
      <path id="DejaVuSans-Bold-2b" d="M 3053 4013 
L 3053 2375 
L 4684 2375 
L 4684 1638 
L 3053 1638 
L 3053 0 
L 2309 0 
L 2309 1638 
L 678 1638 
L 678 2375 
L 2309 2375 
L 2309 4013 
L 3053 4013 
z
" transform="scale(0.015625)"/>
      <path id="DejaVuSans-Bold-2f" d="M 1644 4666 
L 2338 4666 
L 691 -594 
L 0 -594 
L 1644 4666 
z
" transform="scale(0.015625)"/>
      <path id="DejaVuSans-Bold-64" d="M 2919 2988 
L 2919 4863 
L 4044 4863 
L 4044 0 
L 2919 0 
L 2919 506 
Q 2688 197 2409 53 
Q 2131 -91 1766 -91 
Q 1119 -91 703 423 
Q 288 938 288 1747 
Q 288 2556 703 3070 
Q 1119 3584 1766 3584 
Q 2128 3584 2408 3439 
Q 2688 3294 2919 2988 
z
M 2181 722 
Q 2541 722 2730 984 
Q 2919 1247 2919 1747 
Q 2919 2247 2730 2509 
Q 2541 2772 2181 2772 
Q 1825 2772 1636 2509 
Q 1447 2247 1447 1747 
Q 1447 1247 1636 984 
Q 1825 722 2181 722 
z
" transform="scale(0.015625)"/>
     </defs>
     <use xlink:href="#DejaVuSans-Bold-4d"/>
     <use xlink:href="#DejaVuSans-Bold-65" x="99.511719"/>
     <use xlink:href="#DejaVuSans-Bold-61" x="167.333984"/>
     <use xlink:href="#DejaVuSans-Bold-6e" x="234.814453"/>
     <use xlink:href="#DejaVuSans-Bold-20" x="306.005859"/>
     <use xlink:href="#DejaVuSans-Bold-43" x="340.820312"/>
     <use xlink:href="#DejaVuSans-Bold-56" x="414.208984"/>
     <use xlink:href="#DejaVuSans-Bold-20" x="491.601562"/>
     <use xlink:href="#DejaVuSans-Bold-53" x="526.416016"/>
     <use xlink:href="#DejaVuSans-Bold-63" x="598.4375"/>
     <use xlink:href="#DejaVuSans-Bold-6f" x="657.714844"/>
     <use xlink:href="#DejaVuSans-Bold-72" x="726.416016"/>
     <use xlink:href="#DejaVuSans-Bold-65" x="775.732422"/>
     <use xlink:href="#DejaVuSans-Bold-20" x="843.554688"/>
     <use xlink:href="#DejaVuSans-Bold-77" x="878.369141"/>
     <use xlink:href="#DejaVuSans-Bold-69" x="970.751953"/>
     <use xlink:href="#DejaVuSans-Bold-74" x="1005.029297"/>
     <use xlink:href="#DejaVuSans-Bold-68" x="1052.832031"/>
     <use xlink:href="#DejaVuSans-Bold-20" x="1124.023438"/>
     <use xlink:href="#DejaVuSans-Bold-76" x="1158.837891"/>
     <use xlink:href="#DejaVuSans-Bold-61" x="1224.023438"/>
     <use xlink:href="#DejaVuSans-Bold-72" x="1291.503906"/>
     <use xlink:href="#DejaVuSans-Bold-79" x="1340.820312"/>
     <use xlink:href="#DejaVuSans-Bold-69" x="1406.005859"/>
     <use xlink:href="#DejaVuSans-Bold-6e" x="1440.283203"/>
     <use xlink:href="#DejaVuSans-Bold-67" x="1511.474609"/>
     <use xlink:href="#DejaVuSans-Bold-20" x="1583.056641"/>
     <use xlink:href="#DejaVuSans-Bold-53" x="1617.871094"/>
     <use xlink:href="#DejaVuSans-Bold-65" x="1689.892578"/>
     <use xlink:href="#DejaVuSans-Bold-6c" x="1757.714844"/>
     <use xlink:href="#DejaVuSans-Bold-65" x="1791.992188"/>
     <use xlink:href="#DejaVuSans-Bold-63" x="1859.814453"/>
     <use xlink:href="#DejaVuSans-Bold-74" x="1919.091797"/>
     <use xlink:href="#DejaVuSans-Bold-4b" x="1966.894531"/>
     <use xlink:href="#DejaVuSans-Bold-42" x="2044.384766"/>
     <use xlink:href="#DejaVuSans-Bold-65" x="2120.605469"/>
     <use xlink:href="#DejaVuSans-Bold-73" x="2188.427734"/>
     <use xlink:href="#DejaVuSans-Bold-74" x="2247.949219"/>
     <use xlink:href="#DejaVuSans-Bold-20" x="2295.751953"/>
     <use xlink:href="#DejaVuSans-Bold-22" x="2330.566406"/>
     <use xlink:href="#DejaVuSans-Bold-6b" x="2382.666016"/>
     <use xlink:href="#DejaVuSans-Bold-22" x="2449.169922"/>
     <use xlink:href="#DejaVuSans-Bold-20" x="2501.269531"/>
     <use xlink:href="#DejaVuSans-Bold-48" x="2536.083984"/>
     <use xlink:href="#DejaVuSans-Bold-79" x="2619.775391"/>
     <use xlink:href="#DejaVuSans-Bold-70" x="2684.960938"/>
     <use xlink:href="#DejaVuSans-Bold-65" x="2756.542969"/>
     <use xlink:href="#DejaVuSans-Bold-72" x="2824.365234"/>
     <use xlink:href="#DejaVuSans-Bold-2d" x="2873.681641"/>
     <use xlink:href="#DejaVuSans-Bold-50" x="2915.185547"/>
     <use xlink:href="#DejaVuSans-Bold-61" x="2985.851562"/>
     <use xlink:href="#DejaVuSans-Bold-72" x="3053.332031"/>
     <use xlink:href="#DejaVuSans-Bold-61" x="3102.648438"/>
     <use xlink:href="#DejaVuSans-Bold-6d" x="3170.128906"/>
     <use xlink:href="#DejaVuSans-Bold-65" x="3274.328125"/>
     <use xlink:href="#DejaVuSans-Bold-74" x="3342.150391"/>
     <use xlink:href="#DejaVuSans-Bold-65" x="3389.953125"/>
     <use xlink:href="#DejaVuSans-Bold-72" x="3457.775391"/>
     <use xlink:href="#DejaVuSans-Bold-20" x="3507.091797"/>
     <use xlink:href="#DejaVuSans-Bold-76" x="3541.90625"/>
     <use xlink:href="#DejaVuSans-Bold-61" x="3607.091797"/>
     <use xlink:href="#DejaVuSans-Bold-6c" x="3674.572266"/>
     <use xlink:href="#DejaVuSans-Bold-75" x="3708.849609"/>
     <use xlink:href="#DejaVuSans-Bold-65" x="3780.041016"/>
     <use xlink:href="#DejaVuSans-Bold-73" x="3847.863281"/>
     <use xlink:href="#DejaVuSans-Bold-28" x="3907.384766"/>
     <use xlink:href="#DejaVuSans-Bold-65" x="3953.087891"/>
     <use xlink:href="#DejaVuSans-Bold-72" x="4020.910156"/>
     <use xlink:href="#DejaVuSans-Bold-72" x="4070.226562"/>
     <use xlink:href="#DejaVuSans-Bold-6f" x="4119.542969"/>
     <use xlink:href="#DejaVuSans-Bold-72" x="4188.244141"/>
     <use xlink:href="#DejaVuSans-Bold-20" x="4237.560547"/>
     <use xlink:href="#DejaVuSans-Bold-62" x="4272.375"/>
     <use xlink:href="#DejaVuSans-Bold-61" x="4343.957031"/>
     <use xlink:href="#DejaVuSans-Bold-72" x="4411.4375"/>
     <use xlink:href="#DejaVuSans-Bold-73" x="4460.753906"/>
     <use xlink:href="#DejaVuSans-Bold-20" x="4520.275391"/>
     <use xlink:href="#DejaVuSans-Bold-2b" x="4555.089844"/>
     <use xlink:href="#DejaVuSans-Bold-2f" x="4638.878906"/>
     <use xlink:href="#DejaVuSans-Bold-2d" x="4675.402344"/>
     <use xlink:href="#DejaVuSans-Bold-20" x="4716.90625"/>
     <use xlink:href="#DejaVuSans-Bold-31" x="4751.720703"/>
     <use xlink:href="#DejaVuSans-Bold-20" x="4821.300781"/>
     <use xlink:href="#DejaVuSans-Bold-73" x="4856.115234"/>
     <use xlink:href="#DejaVuSans-Bold-64" x="4915.636719"/>
     <use xlink:href="#DejaVuSans-Bold-29" x="4987.21875"/>
    </g>
   </g>
  </g>
 </g>
 <defs>
  <clipPath id="p06e8ba5163">
   <rect x="43.58" y="24.72" width="665.62" height="296.92"/>
  </clipPath>
 </defs>
</svg>
