<?xml version="1.0" encoding="utf-8" standalone="no"?>
<!DOCTYPE svg PUBLIC "-//W3C//DTD SVG 1.1//EN"
  "http://www.w3.org/Graphics/SVG/1.1/DTD/svg11.dtd">
<svg xmlns:xlink="http://www.w3.org/1999/xlink" width="576pt" height="432pt" viewBox="0 0 576 432" xmlns="http://www.w3.org/2000/svg" version="1.1">
 <metadata>
  <rdf:RDF xmlns:dc="http://purl.org/dc/elements/1.1/" xmlns:cc="http://creativecommons.org/ns#" xmlns:rdf="http://www.w3.org/1999/02/22-rdf-syntax-ns#">
   <cc:Work>
    <dc:type rdf:resource="http://purl.org/dc/dcmitype/StillImage"/>
    <dc:date>2023-10-19T09:53:22.903686</dc:date>
    <dc:format>image/svg+xml</dc:format>
    <dc:creator>
     <cc:Agent>
      <dc:title>Matplotlib v3.6.2, https://matplotlib.org/</dc:title>
     </cc:Agent>
    </dc:creator>
   </cc:Work>
  </rdf:RDF>
 </metadata>
 <defs>
  <style type="text/css">*{stroke-linejoin: round; stroke-linecap: butt}</style>
 </defs>
 <g id="figure_1">
  <g id="patch_1">
   <path d="M 0 432 
L 576 432 
L 576 0 
L 0 0 
z
" style="fill: #ffffff"/>
  </g>
  <g id="axes_1">
   <g id="patch_2">
    <path d="M 72 384.48 
L 518.4 384.48 
L 518.4 51.84 
L 72 51.84 
z
" style="fill: #eeeeee"/>
   </g>
   <g id="matplotlib.axis_1">
    <g id="xtick_1">
     <g id="line2d_1"/>
     <g id="text_1">
      <!-- Washington -->
      <g style="fill: #555555" transform="translate(85.965097 393.253316) scale(0.0694 -0.0694)">
       <defs>
        <path id="DejaVuSans-Bold-57" d="M 191 4666 
L 1344 4666 
L 2150 1275 
L 2950 4666 
L 4109 4666 
L 4909 1275 
L 5716 4666 
L 6859 4666 
L 5759 0 
L 4372 0 
L 3525 3547 
L 2688 0 
L 1300 0 
L 191 4666 
z
" transform="scale(0.015625)"/>
        <path id="DejaVuSans-Bold-61" d="M 2106 1575 
Q 1756 1575 1579 1456 
Q 1403 1338 1403 1106 
Q 1403 894 1545 773 
Q 1688 653 1941 653 
Q 2256 653 2472 879 
Q 2688 1106 2688 1447 
L 2688 1575 
L 2106 1575 
z
M 3816 1997 
L 3816 0 
L 2688 0 
L 2688 519 
Q 2463 200 2181 54 
Q 1900 -91 1497 -91 
Q 953 -91 614 226 
Q 275 544 275 1050 
Q 275 1666 698 1953 
Q 1122 2241 2028 2241 
L 2688 2241 
L 2688 2328 
Q 2688 2594 2478 2717 
Q 2269 2841 1825 2841 
Q 1466 2841 1156 2769 
Q 847 2697 581 2553 
L 581 3406 
Q 941 3494 1303 3539 
Q 1666 3584 2028 3584 
Q 2975 3584 3395 3211 
Q 3816 2838 3816 1997 
z
" transform="scale(0.015625)"/>
        <path id="DejaVuSans-Bold-73" d="M 3272 3391 
L 3272 2541 
Q 2913 2691 2578 2766 
Q 2244 2841 1947 2841 
Q 1628 2841 1473 2761 
Q 1319 2681 1319 2516 
Q 1319 2381 1436 2309 
Q 1553 2238 1856 2203 
L 2053 2175 
Q 2913 2066 3209 1816 
Q 3506 1566 3506 1031 
Q 3506 472 3093 190 
Q 2681 -91 1863 -91 
Q 1516 -91 1145 -36 
Q 775 19 384 128 
L 384 978 
Q 719 816 1070 734 
Q 1422 653 1784 653 
Q 2113 653 2278 743 
Q 2444 834 2444 1013 
Q 2444 1163 2330 1236 
Q 2216 1309 1875 1350 
L 1678 1375 
Q 931 1469 631 1722 
Q 331 1975 331 2491 
Q 331 3047 712 3315 
Q 1094 3584 1881 3584 
Q 2191 3584 2531 3537 
Q 2872 3491 3272 3391 
z
" transform="scale(0.015625)"/>
        <path id="DejaVuSans-Bold-68" d="M 4056 2131 
L 4056 0 
L 2931 0 
L 2931 347 
L 2931 1625 
Q 2931 2084 2911 2256 
Q 2891 2428 2841 2509 
Q 2775 2619 2662 2680 
Q 2550 2741 2406 2741 
Q 2056 2741 1856 2470 
Q 1656 2200 1656 1722 
L 1656 0 
L 538 0 
L 538 4863 
L 1656 4863 
L 1656 2988 
Q 1909 3294 2193 3439 
Q 2478 3584 2822 3584 
Q 3428 3584 3742 3212 
Q 4056 2841 4056 2131 
z
" transform="scale(0.015625)"/>
        <path id="DejaVuSans-Bold-69" d="M 538 3500 
L 1656 3500 
L 1656 0 
L 538 0 
L 538 3500 
z
M 538 4863 
L 1656 4863 
L 1656 3950 
L 538 3950 
L 538 4863 
z
" transform="scale(0.015625)"/>
        <path id="DejaVuSans-Bold-6e" d="M 4056 2131 
L 4056 0 
L 2931 0 
L 2931 347 
L 2931 1631 
Q 2931 2084 2911 2256 
Q 2891 2428 2841 2509 
Q 2775 2619 2662 2680 
Q 2550 2741 2406 2741 
Q 2056 2741 1856 2470 
Q 1656 2200 1656 1722 
L 1656 0 
L 538 0 
L 538 3500 
L 1656 3500 
L 1656 2988 
Q 1909 3294 2193 3439 
Q 2478 3584 2822 3584 
Q 3428 3584 3742 3212 
Q 4056 2841 4056 2131 
z
" transform="scale(0.015625)"/>
        <path id="DejaVuSans-Bold-67" d="M 2919 594 
Q 2688 288 2409 144 
Q 2131 0 1766 0 
Q 1125 0 706 504 
Q 288 1009 288 1791 
Q 288 2575 706 3076 
Q 1125 3578 1766 3578 
Q 2131 3578 2409 3434 
Q 2688 3291 2919 2981 
L 2919 3500 
L 4044 3500 
L 4044 353 
Q 4044 -491 3511 -936 
Q 2978 -1381 1966 -1381 
Q 1638 -1381 1331 -1331 
Q 1025 -1281 716 -1178 
L 716 -306 
Q 1009 -475 1290 -558 
Q 1572 -641 1856 -641 
Q 2406 -641 2662 -400 
Q 2919 -159 2919 353 
L 2919 594 
z
M 2181 2772 
Q 1834 2772 1640 2515 
Q 1447 2259 1447 1791 
Q 1447 1309 1634 1061 
Q 1822 813 2181 813 
Q 2531 813 2725 1069 
Q 2919 1325 2919 1791 
Q 2919 2259 2725 2515 
Q 2531 2772 2181 2772 
z
" transform="scale(0.015625)"/>
        <path id="DejaVuSans-Bold-74" d="M 1759 4494 
L 1759 3500 
L 2913 3500 
L 2913 2700 
L 1759 2700 
L 1759 1216 
Q 1759 972 1856 886 
Q 1953 800 2241 800 
L 2816 800 
L 2816 0 
L 1856 0 
Q 1194 0 917 276 
Q 641 553 641 1216 
L 641 2700 
L 84 2700 
L 84 3500 
L 641 3500 
L 641 4494 
L 1759 4494 
z
" transform="scale(0.015625)"/>
        <path id="DejaVuSans-Bold-6f" d="M 2203 2784 
Q 1831 2784 1636 2517 
Q 1441 2250 1441 1747 
Q 1441 1244 1636 976 
Q 1831 709 2203 709 
Q 2569 709 2762 976 
Q 2956 1244 2956 1747 
Q 2956 2250 2762 2517 
Q 2569 2784 2203 2784 
z
M 2203 3584 
Q 3106 3584 3614 3096 
Q 4122 2609 4122 1747 
Q 4122 884 3614 396 
Q 3106 -91 2203 -91 
Q 1297 -91 786 396 
Q 275 884 275 1747 
Q 275 2609 786 3096 
Q 1297 3584 2203 3584 
z
" transform="scale(0.015625)"/>
       </defs>
       <use xlink:href="#DejaVuSans-Bold-57"/>
       <use xlink:href="#DejaVuSans-Bold-61" x="106.677734"/>
       <use xlink:href="#DejaVuSans-Bold-73" x="174.158203"/>
       <use xlink:href="#DejaVuSans-Bold-68" x="233.679688"/>
       <use xlink:href="#DejaVuSans-Bold-69" x="304.871094"/>
       <use xlink:href="#DejaVuSans-Bold-6e" x="339.148438"/>
       <use xlink:href="#DejaVuSans-Bold-67" x="410.339844"/>
       <use xlink:href="#DejaVuSans-Bold-74" x="481.921875"/>
       <use xlink:href="#DejaVuSans-Bold-6f" x="529.724609"/>
       <use xlink:href="#DejaVuSans-Bold-6e" x="598.425781"/>
      </g>
     </g>
    </g>
    <g id="xtick_2">
     <g id="line2d_2"/>
     <g id="text_2">
      <!-- Idaho -->
      <g style="fill: #555555" transform="translate(172.629378 393.253316) scale(0.0694 -0.0694)">
       <defs>
        <path id="DejaVuSans-Bold-49" d="M 588 4666 
L 1791 4666 
L 1791 0 
L 588 0 
L 588 4666 
z
" transform="scale(0.015625)"/>
        <path id="DejaVuSans-Bold-64" d="M 2919 2988 
L 2919 4863 
L 4044 4863 
L 4044 0 
L 2919 0 
L 2919 506 
Q 2688 197 2409 53 
Q 2131 -91 1766 -91 
Q 1119 -91 703 423 
Q 288 938 288 1747 
Q 288 2556 703 3070 
Q 1119 3584 1766 3584 
Q 2128 3584 2408 3439 
Q 2688 3294 2919 2988 
z
M 2181 722 
Q 2541 722 2730 984 
Q 2919 1247 2919 1747 
Q 2919 2247 2730 2509 
Q 2541 2772 2181 2772 
Q 1825 2772 1636 2509 
Q 1447 2247 1447 1747 
Q 1447 1247 1636 984 
Q 1825 722 2181 722 
z
" transform="scale(0.015625)"/>
       </defs>
       <use xlink:href="#DejaVuSans-Bold-49"/>
       <use xlink:href="#DejaVuSans-Bold-64" x="37.207031"/>
       <use xlink:href="#DejaVuSans-Bold-61" x="108.789062"/>
       <use xlink:href="#DejaVuSans-Bold-68" x="176.269531"/>
       <use xlink:href="#DejaVuSans-Bold-6f" x="247.460938"/>
      </g>
     </g>
    </g>
    <g id="xtick_3">
     <g id="line2d_3"/>
     <g id="text_3">
      <!-- Montana -->
      <g style="fill: #555555" transform="translate(240.88043 393.253316) scale(0.0694 -0.0694)">
       <defs>
        <path id="DejaVuSans-Bold-4d" d="M 588 4666 
L 2119 4666 
L 3181 2169 
L 4250 4666 
L 5778 4666 
L 5778 0 
L 4641 0 
L 4641 3413 
L 3566 897 
L 2803 897 
L 1728 3413 
L 1728 0 
L 588 0 
L 588 4666 
z
" transform="scale(0.015625)"/>
       </defs>
       <use xlink:href="#DejaVuSans-Bold-4d"/>
       <use xlink:href="#DejaVuSans-Bold-6f" x="99.511719"/>
       <use xlink:href="#DejaVuSans-Bold-6e" x="168.212891"/>
       <use xlink:href="#DejaVuSans-Bold-74" x="239.404297"/>
       <use xlink:href="#DejaVuSans-Bold-61" x="287.207031"/>
       <use xlink:href="#DejaVuSans-Bold-6e" x="354.6875"/>
       <use xlink:href="#DejaVuSans-Bold-61" x="425.878906"/>
      </g>
     </g>
    </g>
    <g id="xtick_4">
     <g id="line2d_4"/>
     <g id="text_4">
      <!-- Wyoming -->
      <g style="fill: #555555" transform="translate(314.167319 393.253316) scale(0.0694 -0.0694)">
       <defs>
        <path id="DejaVuSans-Bold-79" d="M 78 3500 
L 1197 3500 
L 2138 1125 
L 2938 3500 
L 4056 3500 
L 2584 -331 
Q 2363 -916 2067 -1148 
Q 1772 -1381 1288 -1381 
L 641 -1381 
L 641 -647 
L 991 -647 
Q 1275 -647 1404 -556 
Q 1534 -466 1606 -231 
L 1638 -134 
L 78 3500 
z
" transform="scale(0.015625)"/>
        <path id="DejaVuSans-Bold-6d" d="M 3781 2919 
Q 3994 3244 4286 3414 
Q 4578 3584 4928 3584 
Q 5531 3584 5847 3212 
Q 6163 2841 6163 2131 
L 6163 0 
L 5038 0 
L 5038 1825 
Q 5041 1866 5042 1909 
Q 5044 1953 5044 2034 
Q 5044 2406 4934 2573 
Q 4825 2741 4581 2741 
Q 4263 2741 4089 2478 
Q 3916 2216 3909 1719 
L 3909 0 
L 2784 0 
L 2784 1825 
Q 2784 2406 2684 2573 
Q 2584 2741 2328 2741 
Q 2006 2741 1831 2477 
Q 1656 2213 1656 1722 
L 1656 0 
L 531 0 
L 531 3500 
L 1656 3500 
L 1656 2988 
Q 1863 3284 2130 3434 
Q 2397 3584 2719 3584 
Q 3081 3584 3359 3409 
Q 3638 3234 3781 2919 
z
" transform="scale(0.015625)"/>
       </defs>
       <use xlink:href="#DejaVuSans-Bold-57"/>
       <use xlink:href="#DejaVuSans-Bold-79" x="110.302734"/>
       <use xlink:href="#DejaVuSans-Bold-6f" x="175.488281"/>
       <use xlink:href="#DejaVuSans-Bold-6d" x="244.189453"/>
       <use xlink:href="#DejaVuSans-Bold-69" x="348.388672"/>
       <use xlink:href="#DejaVuSans-Bold-6e" x="382.666016"/>
       <use xlink:href="#DejaVuSans-Bold-67" x="453.857422"/>
      </g>
     </g>
    </g>
    <g id="xtick_5">
     <g id="line2d_5"/>
     <g id="text_5">
      <!-- South Dakota -->
      <g style="fill: #555555" transform="translate(380.287031 393.253316) scale(0.0694 -0.0694)">
       <defs>
        <path id="DejaVuSans-Bold-53" d="M 3834 4519 
L 3834 3531 
Q 3450 3703 3084 3790 
Q 2719 3878 2394 3878 
Q 1963 3878 1756 3759 
Q 1550 3641 1550 3391 
Q 1550 3203 1689 3098 
Q 1828 2994 2194 2919 
L 2706 2816 
Q 3484 2659 3812 2340 
Q 4141 2022 4141 1434 
Q 4141 663 3683 286 
Q 3225 -91 2284 -91 
Q 1841 -91 1394 -6 
Q 947 78 500 244 
L 500 1259 
Q 947 1022 1364 901 
Q 1781 781 2169 781 
Q 2563 781 2772 912 
Q 2981 1044 2981 1288 
Q 2981 1506 2839 1625 
Q 2697 1744 2272 1838 
L 1806 1941 
Q 1106 2091 782 2419 
Q 459 2747 459 3303 
Q 459 4000 909 4375 
Q 1359 4750 2203 4750 
Q 2588 4750 2994 4692 
Q 3400 4634 3834 4519 
z
" transform="scale(0.015625)"/>
        <path id="DejaVuSans-Bold-75" d="M 500 1363 
L 500 3500 
L 1625 3500 
L 1625 3150 
Q 1625 2866 1622 2436 
Q 1619 2006 1619 1863 
Q 1619 1441 1641 1255 
Q 1663 1069 1716 984 
Q 1784 875 1895 815 
Q 2006 756 2150 756 
Q 2500 756 2700 1025 
Q 2900 1294 2900 1772 
L 2900 3500 
L 4019 3500 
L 4019 0 
L 2900 0 
L 2900 506 
Q 2647 200 2364 54 
Q 2081 -91 1741 -91 
Q 1134 -91 817 281 
Q 500 653 500 1363 
z
" transform="scale(0.015625)"/>
        <path id="DejaVuSans-Bold-20" transform="scale(0.015625)"/>
        <path id="DejaVuSans-Bold-44" d="M 1791 3756 
L 1791 909 
L 2222 909 
Q 2959 909 3348 1275 
Q 3738 1641 3738 2338 
Q 3738 3031 3350 3393 
Q 2963 3756 2222 3756 
L 1791 3756 
z
M 588 4666 
L 1856 4666 
Q 2919 4666 3439 4514 
Q 3959 4363 4331 4000 
Q 4659 3684 4818 3271 
Q 4978 2859 4978 2338 
Q 4978 1809 4818 1395 
Q 4659 981 4331 666 
Q 3956 303 3431 151 
Q 2906 0 1856 0 
L 588 0 
L 588 4666 
z
" transform="scale(0.015625)"/>
        <path id="DejaVuSans-Bold-6b" d="M 538 4863 
L 1656 4863 
L 1656 2216 
L 2944 3500 
L 4244 3500 
L 2534 1894 
L 4378 0 
L 3022 0 
L 1656 1459 
L 1656 0 
L 538 0 
L 538 4863 
z
" transform="scale(0.015625)"/>
       </defs>
       <use xlink:href="#DejaVuSans-Bold-53"/>
       <use xlink:href="#DejaVuSans-Bold-6f" x="72.021484"/>
       <use xlink:href="#DejaVuSans-Bold-75" x="140.722656"/>
       <use xlink:href="#DejaVuSans-Bold-74" x="211.914062"/>
       <use xlink:href="#DejaVuSans-Bold-68" x="259.716797"/>
       <use xlink:href="#DejaVuSans-Bold-20" x="330.908203"/>
       <use xlink:href="#DejaVuSans-Bold-44" x="365.722656"/>
       <use xlink:href="#DejaVuSans-Bold-61" x="448.730469"/>
       <use xlink:href="#DejaVuSans-Bold-6b" x="516.210938"/>
       <use xlink:href="#DejaVuSans-Bold-6f" x="580.089844"/>
       <use xlink:href="#DejaVuSans-Bold-74" x="648.791016"/>
       <use xlink:href="#DejaVuSans-Bold-61" x="696.59375"/>
      </g>
     </g>
    </g>
    <g id="xtick_6">
     <g id="line2d_6"/>
     <g id="text_6">
      <!-- Minnesota -->
      <g style="fill: #555555" transform="translate(460.81375 393.253316) scale(0.0694 -0.0694)">
       <defs>
        <path id="DejaVuSans-Bold-65" d="M 4031 1759 
L 4031 1441 
L 1416 1441 
Q 1456 1047 1700 850 
Q 1944 653 2381 653 
Q 2734 653 3104 758 
Q 3475 863 3866 1075 
L 3866 213 
Q 3469 63 3072 -14 
Q 2675 -91 2278 -91 
Q 1328 -91 801 392 
Q 275 875 275 1747 
Q 275 2603 792 3093 
Q 1309 3584 2216 3584 
Q 3041 3584 3536 3087 
Q 4031 2591 4031 1759 
z
M 2881 2131 
Q 2881 2450 2695 2645 
Q 2509 2841 2209 2841 
Q 1884 2841 1681 2658 
Q 1478 2475 1428 2131 
L 2881 2131 
z
" transform="scale(0.015625)"/>
       </defs>
       <use xlink:href="#DejaVuSans-Bold-4d"/>
       <use xlink:href="#DejaVuSans-Bold-69" x="99.511719"/>
       <use xlink:href="#DejaVuSans-Bold-6e" x="133.789062"/>
       <use xlink:href="#DejaVuSans-Bold-6e" x="204.980469"/>
       <use xlink:href="#DejaVuSans-Bold-65" x="276.171875"/>
       <use xlink:href="#DejaVuSans-Bold-73" x="343.994141"/>
       <use xlink:href="#DejaVuSans-Bold-6f" x="403.515625"/>
       <use xlink:href="#DejaVuSans-Bold-74" x="472.216797"/>
       <use xlink:href="#DejaVuSans-Bold-61" x="520.019531"/>
      </g>
     </g>
    </g>
   </g>
   <g id="matplotlib.axis_2">
    <g id="ytick_1">
     <g id="line2d_7"/>
     <g id="text_7">
      <!-- $20 -->
      <g style="fill: #555555" transform="translate(54.013834 360.933243) scale(0.0694 -0.0694)">
       <defs>
        <path id="DejaVuSans-Bold-24" d="M 2484 -941 
L 1978 -941 
L 1975 0 
Q 1584 16 1218 87 
Q 853 159 506 288 
L 506 1106 
Q 866 922 1233 823 
Q 1600 725 1978 713 
L 1978 1684 
L 1875 1703 
Q 1128 1834 814 2115 
Q 500 2397 500 2925 
Q 500 3484 883 3798 
Q 1266 4113 1975 4141 
L 1978 4863 
L 2484 4863 
L 2484 4153 
Q 2797 4128 3109 4075 
Q 3422 4022 3738 3938 
L 3738 3144 
Q 3425 3275 3112 3348 
Q 2800 3422 2484 3438 
L 2484 2541 
L 2584 2522 
Q 3378 2397 3698 2105 
Q 4019 1813 4019 1241 
Q 4019 666 3637 358 
Q 3256 50 2484 6 
L 2484 -941 
z
M 1978 2613 
L 1978 3428 
Q 1756 3416 1623 3308 
Q 1491 3200 1491 3034 
Q 1491 2850 1612 2745 
Q 1734 2641 1978 2613 
z
M 2484 1594 
L 2484 725 
Q 2756 728 2892 831 
Q 3028 934 3028 1141 
Q 3028 1353 2903 1458 
Q 2778 1563 2484 1594 
z
" transform="scale(0.015625)"/>
        <path id="DejaVuSans-Bold-32" d="M 1844 884 
L 3897 884 
L 3897 0 
L 506 0 
L 506 884 
L 2209 2388 
Q 2438 2594 2547 2791 
Q 2656 2988 2656 3200 
Q 2656 3528 2436 3728 
Q 2216 3928 1850 3928 
Q 1569 3928 1234 3808 
Q 900 3688 519 3450 
L 519 4475 
Q 925 4609 1322 4679 
Q 1719 4750 2100 4750 
Q 2938 4750 3402 4381 
Q 3866 4013 3866 3353 
Q 3866 2972 3669 2642 
Q 3472 2313 2841 1759 
L 1844 884 
z
" transform="scale(0.015625)"/>
        <path id="DejaVuSans-Bold-30" d="M 2944 2338 
Q 2944 3213 2780 3570 
Q 2616 3928 2228 3928 
Q 1841 3928 1675 3570 
Q 1509 3213 1509 2338 
Q 1509 1453 1675 1090 
Q 1841 728 2228 728 
Q 2613 728 2778 1090 
Q 2944 1453 2944 2338 
z
M 4147 2328 
Q 4147 1169 3647 539 
Q 3147 -91 2228 -91 
Q 1306 -91 806 539 
Q 306 1169 306 2328 
Q 306 3491 806 4120 
Q 1306 4750 2228 4750 
Q 3147 4750 3647 4120 
Q 4147 3491 4147 2328 
z
" transform="scale(0.015625)"/>
       </defs>
       <use xlink:href="#DejaVuSans-Bold-24"/>
       <use xlink:href="#DejaVuSans-Bold-32" x="69.580078"/>
       <use xlink:href="#DejaVuSans-Bold-30" x="139.160156"/>
      </g>
     </g>
    </g>
    <g id="ytick_2">
     <g id="line2d_8"/>
     <g id="text_8">
      <!-- $40 -->
      <g style="fill: #555555" transform="translate(54.013834 287.177146) scale(0.0694 -0.0694)">
       <defs>
        <path id="DejaVuSans-Bold-34" d="M 2356 3675 
L 1038 1722 
L 2356 1722 
L 2356 3675 
z
M 2156 4666 
L 3494 4666 
L 3494 1722 
L 4159 1722 
L 4159 850 
L 3494 850 
L 3494 0 
L 2356 0 
L 2356 850 
L 288 850 
L 288 1881 
L 2156 4666 
z
" transform="scale(0.015625)"/>
       </defs>
       <use xlink:href="#DejaVuSans-Bold-24"/>
       <use xlink:href="#DejaVuSans-Bold-34" x="69.580078"/>
       <use xlink:href="#DejaVuSans-Bold-30" x="139.160156"/>
      </g>
     </g>
    </g>
    <g id="ytick_3">
     <g id="line2d_9"/>
     <g id="text_9">
      <!-- $60 -->
      <g style="fill: #555555" transform="translate(54.013834 213.421048) scale(0.0694 -0.0694)">
       <defs>
        <path id="DejaVuSans-Bold-36" d="M 2316 2303 
Q 2000 2303 1842 2098 
Q 1684 1894 1684 1484 
Q 1684 1075 1842 870 
Q 2000 666 2316 666 
Q 2634 666 2792 870 
Q 2950 1075 2950 1484 
Q 2950 1894 2792 2098 
Q 2634 2303 2316 2303 
z
M 3803 4544 
L 3803 3681 
Q 3506 3822 3243 3889 
Q 2981 3956 2731 3956 
Q 2194 3956 1894 3657 
Q 1594 3359 1544 2772 
Q 1750 2925 1990 3001 
Q 2231 3078 2516 3078 
Q 3231 3078 3670 2659 
Q 4109 2241 4109 1563 
Q 4109 813 3618 361 
Q 3128 -91 2303 -91 
Q 1394 -91 895 523 
Q 397 1138 397 2266 
Q 397 3422 980 4083 
Q 1563 4744 2578 4744 
Q 2900 4744 3203 4694 
Q 3506 4644 3803 4544 
z
" transform="scale(0.015625)"/>
       </defs>
       <use xlink:href="#DejaVuSans-Bold-24"/>
       <use xlink:href="#DejaVuSans-Bold-36" x="69.580078"/>
       <use xlink:href="#DejaVuSans-Bold-30" x="139.160156"/>
      </g>
     </g>
    </g>
    <g id="ytick_4">
     <g id="line2d_10"/>
     <g id="text_10">
      <!-- $80 -->
      <g style="fill: #555555" transform="translate(54.013834 139.66495) scale(0.0694 -0.0694)">
       <defs>
        <path id="DejaVuSans-Bold-38" d="M 2228 2088 
Q 1891 2088 1709 1903 
Q 1528 1719 1528 1375 
Q 1528 1031 1709 848 
Q 1891 666 2228 666 
Q 2563 666 2741 848 
Q 2919 1031 2919 1375 
Q 2919 1722 2741 1905 
Q 2563 2088 2228 2088 
z
M 1350 2484 
Q 925 2613 709 2878 
Q 494 3144 494 3541 
Q 494 4131 934 4440 
Q 1375 4750 2228 4750 
Q 3075 4750 3515 4442 
Q 3956 4134 3956 3541 
Q 3956 3144 3739 2878 
Q 3522 2613 3097 2484 
Q 3572 2353 3814 2058 
Q 4056 1763 4056 1313 
Q 4056 619 3595 264 
Q 3134 -91 2228 -91 
Q 1319 -91 855 264 
Q 391 619 391 1313 
Q 391 1763 633 2058 
Q 875 2353 1350 2484 
z
M 1631 3419 
Q 1631 3141 1786 2991 
Q 1941 2841 2228 2841 
Q 2509 2841 2662 2991 
Q 2816 3141 2816 3419 
Q 2816 3697 2662 3845 
Q 2509 3994 2228 3994 
Q 1941 3994 1786 3844 
Q 1631 3694 1631 3419 
z
" transform="scale(0.015625)"/>
       </defs>
       <use xlink:href="#DejaVuSans-Bold-24"/>
       <use xlink:href="#DejaVuSans-Bold-38" x="69.580078"/>
       <use xlink:href="#DejaVuSans-Bold-30" x="139.160156"/>
      </g>
     </g>
    </g>
    <g id="ytick_5">
     <g id="line2d_11"/>
     <g id="text_11">
      <!-- $100 -->
      <g style="fill: #555555" transform="translate(49.185113 65.908853) scale(0.0694 -0.0694)">
       <defs>
        <path id="DejaVuSans-Bold-31" d="M 750 831 
L 1813 831 
L 1813 3847 
L 722 3622 
L 722 4441 
L 1806 4666 
L 2950 4666 
L 2950 831 
L 4013 831 
L 4013 0 
L 750 0 
L 750 831 
z
" transform="scale(0.015625)"/>
       </defs>
       <use xlink:href="#DejaVuSans-Bold-24"/>
       <use xlink:href="#DejaVuSans-Bold-31" x="69.580078"/>
       <use xlink:href="#DejaVuSans-Bold-30" x="139.160156"/>
       <use xlink:href="#DejaVuSans-Bold-30" x="208.740234"/>
      </g>
     </g>
    </g>
   </g>
   <g id="patch_3">
    <path d="M 79.7376 249.967317 
L 108.9024 249.967317 
L 108.9024 148.091707 
L 79.7376 148.091707 
L 79.7376 249.967317 
z
" clip-path="url(#p9a271d63bd)" style="fill: #2a442c; stroke: #212121; stroke-width: 2; stroke-linejoin: miter"/>
   </g>
   <g id="patch_4">
    <path d="M 109.4976 212.609854 
L 138.6624 212.609854 
L 138.6624 129.652683 
L 109.4976 129.652683 
L 109.4976 212.609854 
z
" clip-path="url(#p9a271d63bd)" style="fill: #b1b2b7; stroke: #212121; stroke-width: 2; stroke-linejoin: miter"/>
   </g>
   <g id="patch_5">
    <path d="M 154.1376 269.789268 
L 183.3024 269.789268 
L 183.3024 173.906341 
L 154.1376 173.906341 
L 154.1376 269.789268 
z
" clip-path="url(#p9a271d63bd)" style="fill: #2a442c; stroke: #212121; stroke-width: 2; stroke-linejoin: miter"/>
   </g>
   <g id="patch_6">
    <path d="M 183.8976 269.789268 
L 213.0624 269.789268 
L 213.0624 179.438049 
L 183.8976 179.438049 
L 183.8976 269.789268 
z
" clip-path="url(#p9a271d63bd)" style="fill: #b1b2b7; stroke: #212121; stroke-width: 2; stroke-linejoin: miter"/>
   </g>
   <g id="patch_7">
    <path d="M 228.5376 269.789268 
L 257.7024 269.789268 
L 257.7024 223.691707 
L 228.5376 223.691707 
L 228.5376 269.789268 
z
" clip-path="url(#p9a271d63bd)" style="fill: #2a442c; stroke: #212121; stroke-width: 2; stroke-linejoin: miter"/>
   </g>
   <g id="patch_8">
    <path d="M 258.2976 269.789268 
L 287.4624 269.789268 
L 287.4624 223.691707 
L 258.2976 223.691707 
L 258.2976 269.789268 
z
" clip-path="url(#p9a271d63bd)" style="fill: #b1b2b7; stroke: #212121; stroke-width: 2; stroke-linejoin: miter"/>
   </g>
   <g id="patch_9">
    <path d="M 302.9376 255.038049 
L 332.1024 255.038049 
L 332.1024 214.472195 
L 302.9376 214.472195 
L 302.9376 255.038049 
z
" clip-path="url(#p9a271d63bd)" style="fill: #2a442c; stroke: #212121; stroke-width: 2; stroke-linejoin: miter"/>
   </g>
   <g id="patch_10">
    <path d="M 332.6976 254.116098 
L 361.8624 254.116098 
L 361.8624 223.691707 
L 332.6976 223.691707 
L 332.6976 254.116098 
z
" clip-path="url(#p9a271d63bd)" style="fill: #b1b2b7; stroke: #212121; stroke-width: 2; stroke-linejoin: miter"/>
   </g>
   <g id="patch_11">
    <path d="M 377.3376 254.116098 
L 406.5024 254.116098 
L 406.5024 230.145366 
L 377.3376 230.145366 
L 377.3376 254.116098 
z
" clip-path="url(#p9a271d63bd)" style="fill: #2a442c; stroke: #212121; stroke-width: 2; stroke-linejoin: miter"/>
   </g>
   <g id="patch_12">
    <path d="M 407.0976 254.116098 
L 436.2624 254.116098 
L 436.2624 230.145366 
L 407.0976 230.145366 
L 407.0976 254.116098 
z
" clip-path="url(#p9a271d63bd)" style="fill: #b1b2b7; stroke: #212121; stroke-width: 2; stroke-linejoin: miter"/>
   </g>
   <g id="patch_13">
    <path d="M 451.7376 305.431902 
L 480.9024 305.431902 
L 480.9024 230.145366 
L 451.7376 230.145366 
L 451.7376 305.431902 
z
" clip-path="url(#p9a271d63bd)" style="fill: #2a442c; stroke: #212121; stroke-width: 2; stroke-linejoin: miter"/>
   </g>
   <g id="patch_14">
    <path d="M 481.4976 268.867317 
L 510.6624 268.867317 
L 510.6624 215.394146 
L 481.4976 215.394146 
L 481.4976 268.867317 
z
" clip-path="url(#p9a271d63bd)" style="fill: #b1b2b7; stroke: #212121; stroke-width: 2; stroke-linejoin: miter"/>
   </g>
   <g id="patch_15">
    <path d="M 109.2 432.052683 
L 109.2 432.052683 
L 109.2 432.052683 
L 109.2 432.052683 
z
" clip-path="url(#p9a271d63bd)" style="fill: #2a442c; stroke: #212121; stroke-linejoin: miter"/>
   </g>
   <g id="patch_16">
    <path d="M 109.2 432.052683 
L 109.2 432.052683 
L 109.2 432.052683 
L 109.2 432.052683 
z
" clip-path="url(#p9a271d63bd)" style="fill: #b1b2b7; stroke: #212121; stroke-linejoin: miter"/>
   </g>
   <g id="patch_17">
    <path d="M 258 151.779512 
C 267.865555 151.779512 277.328371 149.83666 284.304372 146.378847 
C 291.280373 142.921034 295.2 138.230574 295.2 133.340488 
C 295.2 128.450401 291.280373 123.759942 284.304372 120.302129 
C 277.328371 116.844315 267.865555 114.901463 258 114.901463 
C 248.134445 114.901463 238.671629 116.844315 231.695628 120.302129 
C 224.719627 123.759942 220.8 128.450401 220.8 133.340488 
C 220.8 138.230574 224.719627 142.921034 231.695628 146.378847 
C 238.671629 149.83666 248.134445 151.779512 258 151.779512 
L 258 151.779512 
z
" clip-path="url(#p9a271d63bd)" style="fill: none; stroke: #b22222; stroke-width: 2; stroke-linejoin: miter"/>
   </g>
   <g id="line2d_12">
    <path d="M 94.32 249.967317 
L 94.32 277.164878 
" clip-path="url(#p9a271d63bd)" style="fill: none; stroke: #212121; stroke-width: 2; stroke-linecap: square"/>
   </g>
   <g id="line2d_13">
    <path d="M 94.32 148.091707 
L 94.32 66.96 
" clip-path="url(#p9a271d63bd)" style="fill: none; stroke: #212121; stroke-width: 2; stroke-linecap: square"/>
   </g>
   <g id="line2d_14">
    <path d="M 87.0288 277.164878 
L 101.6112 277.164878 
" clip-path="url(#p9a271d63bd)" style="fill: none; stroke: #212121; stroke-width: 2; stroke-linecap: square"/>
   </g>
   <g id="line2d_15">
    <path d="M 87.0288 66.96 
L 101.6112 66.96 
" clip-path="url(#p9a271d63bd)" style="fill: none; stroke: #212121; stroke-width: 2; stroke-linecap: square"/>
   </g>
   <g id="line2d_16"/>
   <g id="line2d_17">
    <path d="M 124.08 212.609854 
L 124.08 258.725854 
" clip-path="url(#p9a271d63bd)" style="fill: none; stroke: #212121; stroke-width: 2; stroke-linecap: square"/>
   </g>
   <g id="line2d_18">
    <path d="M 124.08 129.652683 
L 124.08 66.96 
" clip-path="url(#p9a271d63bd)" style="fill: none; stroke: #212121; stroke-width: 2; stroke-linecap: square"/>
   </g>
   <g id="line2d_19">
    <path d="M 116.7888 258.725854 
L 131.3712 258.725854 
" clip-path="url(#p9a271d63bd)" style="fill: none; stroke: #212121; stroke-width: 2; stroke-linecap: square"/>
   </g>
   <g id="line2d_20">
    <path d="M 116.7888 66.96 
L 131.3712 66.96 
" clip-path="url(#p9a271d63bd)" style="fill: none; stroke: #212121; stroke-width: 2; stroke-linecap: square"/>
   </g>
   <g id="line2d_21"/>
   <g id="line2d_22">
    <path d="M 168.72 269.789268 
L 168.72 314.042927 
" clip-path="url(#p9a271d63bd)" style="fill: none; stroke: #212121; stroke-width: 2; stroke-linecap: square"/>
   </g>
   <g id="line2d_23">
    <path d="M 168.72 173.906341 
L 168.72 133.340488 
" clip-path="url(#p9a271d63bd)" style="fill: none; stroke: #212121; stroke-width: 2; stroke-linecap: square"/>
   </g>
   <g id="line2d_24">
    <path d="M 161.4288 314.042927 
L 176.0112 314.042927 
" clip-path="url(#p9a271d63bd)" style="fill: none; stroke: #212121; stroke-width: 2; stroke-linecap: square"/>
   </g>
   <g id="line2d_25">
    <path d="M 161.4288 133.340488 
L 176.0112 133.340488 
" clip-path="url(#p9a271d63bd)" style="fill: none; stroke: #212121; stroke-width: 2; stroke-linecap: square"/>
   </g>
   <g id="line2d_26"/>
   <g id="line2d_27">
    <path d="M 198.48 269.789268 
L 198.48 314.042927 
" clip-path="url(#p9a271d63bd)" style="fill: none; stroke: #212121; stroke-width: 2; stroke-linecap: square"/>
   </g>
   <g id="line2d_28">
    <path d="M 198.48 179.438049 
L 198.48 133.340488 
" clip-path="url(#p9a271d63bd)" style="fill: none; stroke: #212121; stroke-width: 2; stroke-linecap: square"/>
   </g>
   <g id="line2d_29">
    <path d="M 191.1888 314.042927 
L 205.7712 314.042927 
" clip-path="url(#p9a271d63bd)" style="fill: none; stroke: #212121; stroke-width: 2; stroke-linecap: square"/>
   </g>
   <g id="line2d_30">
    <path d="M 191.1888 133.340488 
L 205.7712 133.340488 
" clip-path="url(#p9a271d63bd)" style="fill: none; stroke: #212121; stroke-width: 2; stroke-linecap: square"/>
   </g>
   <g id="line2d_31"/>
   <g id="line2d_32">
    <path d="M 243.12 269.789268 
L 243.12 288.228293 
" clip-path="url(#p9a271d63bd)" style="fill: none; stroke: #212121; stroke-width: 2; stroke-linecap: square"/>
   </g>
   <g id="line2d_33">
    <path d="M 243.12 223.691707 
L 243.12 184.969756 
" clip-path="url(#p9a271d63bd)" style="fill: none; stroke: #212121; stroke-width: 2; stroke-linecap: square"/>
   </g>
   <g id="line2d_34">
    <path d="M 235.8288 288.228293 
L 250.4112 288.228293 
" clip-path="url(#p9a271d63bd)" style="fill: none; stroke: #212121; stroke-width: 2; stroke-linecap: square"/>
   </g>
   <g id="line2d_35">
    <path d="M 235.8288 184.969756 
L 250.4112 184.969756 
" clip-path="url(#p9a271d63bd)" style="fill: none; stroke: #212121; stroke-width: 2; stroke-linecap: square"/>
   </g>
   <g id="line2d_36">
    <defs>
     <path id="m2c49d9f377" d="M 0 3.535534 
L 2.12132 0 
L 0 -3.535534 
L -2.12132 0 
z
" style="stroke: #212121; stroke-linejoin: miter"/>
    </defs>
    <g clip-path="url(#p9a271d63bd)">
     <use xlink:href="#m2c49d9f377" x="243.12" y="133.340488" style="fill: #212121; stroke: #212121; stroke-linejoin: miter"/>
    </g>
   </g>
   <g id="line2d_37">
    <path d="M 272.88 269.789268 
L 272.88 288.228293 
" clip-path="url(#p9a271d63bd)" style="fill: none; stroke: #212121; stroke-width: 2; stroke-linecap: square"/>
   </g>
   <g id="line2d_38">
    <path d="M 272.88 223.691707 
L 272.88 184.969756 
" clip-path="url(#p9a271d63bd)" style="fill: none; stroke: #212121; stroke-width: 2; stroke-linecap: square"/>
   </g>
   <g id="line2d_39">
    <path d="M 265.5888 288.228293 
L 280.1712 288.228293 
" clip-path="url(#p9a271d63bd)" style="fill: none; stroke: #212121; stroke-width: 2; stroke-linecap: square"/>
   </g>
   <g id="line2d_40">
    <path d="M 265.5888 184.969756 
L 280.1712 184.969756 
" clip-path="url(#p9a271d63bd)" style="fill: none; stroke: #212121; stroke-width: 2; stroke-linecap: square"/>
   </g>
   <g id="line2d_41">
    <g clip-path="url(#p9a271d63bd)">
     <use xlink:href="#m2c49d9f377" x="272.88" y="133.340488" style="fill: #212121; stroke: #212121; stroke-linejoin: miter"/>
    </g>
   </g>
   <g id="line2d_42">
    <path d="M 317.52 255.038049 
L 317.52 277.164878 
" clip-path="url(#p9a271d63bd)" style="fill: none; stroke: #212121; stroke-width: 2; stroke-linecap: square"/>
   </g>
   <g id="line2d_43">
    <path d="M 317.52 214.472195 
L 317.52 214.472195 
" clip-path="url(#p9a271d63bd)" style="fill: none; stroke: #212121; stroke-width: 2; stroke-linecap: square"/>
   </g>
   <g id="line2d_44">
    <path d="M 310.2288 277.164878 
L 324.8112 277.164878 
" clip-path="url(#p9a271d63bd)" style="fill: none; stroke: #212121; stroke-width: 2; stroke-linecap: square"/>
   </g>
   <g id="line2d_45">
    <path d="M 310.2288 214.472195 
L 324.8112 214.472195 
" clip-path="url(#p9a271d63bd)" style="fill: none; stroke: #212121; stroke-width: 2; stroke-linecap: square"/>
   </g>
   <g id="line2d_46">
    <g clip-path="url(#p9a271d63bd)">
     <use xlink:href="#m2c49d9f377" x="317.52" y="100.150244" style="fill: #212121; stroke: #212121; stroke-linejoin: miter"/>
    </g>
   </g>
   <g id="line2d_47">
    <path d="M 347.28 254.116098 
L 347.28 277.164878 
" clip-path="url(#p9a271d63bd)" style="fill: none; stroke: #212121; stroke-width: 2; stroke-linecap: square"/>
   </g>
   <g id="line2d_48">
    <path d="M 347.28 223.691707 
L 347.28 214.472195 
" clip-path="url(#p9a271d63bd)" style="fill: none; stroke: #212121; stroke-width: 2; stroke-linecap: square"/>
   </g>
   <g id="line2d_49">
    <path d="M 339.9888 277.164878 
L 354.5712 277.164878 
" clip-path="url(#p9a271d63bd)" style="fill: none; stroke: #212121; stroke-width: 2; stroke-linecap: square"/>
   </g>
   <g id="line2d_50">
    <path d="M 339.9888 214.472195 
L 354.5712 214.472195 
" clip-path="url(#p9a271d63bd)" style="fill: none; stroke: #212121; stroke-width: 2; stroke-linecap: square"/>
   </g>
   <g id="line2d_51">
    <g clip-path="url(#p9a271d63bd)">
     <use xlink:href="#m2c49d9f377" x="347.28" y="100.150244" style="fill: #212121; stroke: #212121; stroke-linejoin: miter"/>
    </g>
   </g>
   <g id="line2d_52">
    <path d="M 391.92 254.116098 
L 391.92 266.101463 
" clip-path="url(#p9a271d63bd)" style="fill: none; stroke: #212121; stroke-width: 2; stroke-linecap: square"/>
   </g>
   <g id="line2d_53">
    <path d="M 391.92 230.145366 
L 391.92 218.16 
" clip-path="url(#p9a271d63bd)" style="fill: none; stroke: #212121; stroke-width: 2; stroke-linecap: square"/>
   </g>
   <g id="line2d_54">
    <path d="M 384.6288 266.101463 
L 399.2112 266.101463 
" clip-path="url(#p9a271d63bd)" style="fill: none; stroke: #212121; stroke-width: 2; stroke-linecap: square"/>
   </g>
   <g id="line2d_55">
    <path d="M 384.6288 218.16 
L 399.2112 218.16 
" clip-path="url(#p9a271d63bd)" style="fill: none; stroke: #212121; stroke-width: 2; stroke-linecap: square"/>
   </g>
   <g id="line2d_56"/>
   <g id="line2d_57">
    <path d="M 421.68 254.116098 
L 421.68 266.101463 
" clip-path="url(#p9a271d63bd)" style="fill: none; stroke: #212121; stroke-width: 2; stroke-linecap: square"/>
   </g>
   <g id="line2d_58">
    <path d="M 421.68 230.145366 
L 421.68 218.16 
" clip-path="url(#p9a271d63bd)" style="fill: none; stroke: #212121; stroke-width: 2; stroke-linecap: square"/>
   </g>
   <g id="line2d_59">
    <path d="M 414.3888 266.101463 
L 428.9712 266.101463 
" clip-path="url(#p9a271d63bd)" style="fill: none; stroke: #212121; stroke-width: 2; stroke-linecap: square"/>
   </g>
   <g id="line2d_60">
    <path d="M 414.3888 218.16 
L 428.9712 218.16 
" clip-path="url(#p9a271d63bd)" style="fill: none; stroke: #212121; stroke-width: 2; stroke-linecap: square"/>
   </g>
   <g id="line2d_61"/>
   <g id="line2d_62">
    <path d="M 466.32 305.431902 
L 466.32 369.36 
" clip-path="url(#p9a271d63bd)" style="fill: none; stroke: #212121; stroke-width: 2; stroke-linecap: square"/>
   </g>
   <g id="line2d_63">
    <path d="M 466.32 230.145366 
L 466.32 122.277073 
" clip-path="url(#p9a271d63bd)" style="fill: none; stroke: #212121; stroke-width: 2; stroke-linecap: square"/>
   </g>
   <g id="line2d_64">
    <path d="M 459.0288 369.36 
L 473.6112 369.36 
" clip-path="url(#p9a271d63bd)" style="fill: none; stroke: #212121; stroke-width: 2; stroke-linecap: square"/>
   </g>
   <g id="line2d_65">
    <path d="M 459.0288 122.277073 
L 473.6112 122.277073 
" clip-path="url(#p9a271d63bd)" style="fill: none; stroke: #212121; stroke-width: 2; stroke-linecap: square"/>
   </g>
   <g id="line2d_66"/>
   <g id="line2d_67">
    <path d="M 496.08 268.867317 
L 496.08 301.725659 
" clip-path="url(#p9a271d63bd)" style="fill: none; stroke: #212121; stroke-width: 2; stroke-linecap: square"/>
   </g>
   <g id="line2d_68">
    <path d="M 496.08 215.394146 
L 496.08 210.78439 
" clip-path="url(#p9a271d63bd)" style="fill: none; stroke: #212121; stroke-width: 2; stroke-linecap: square"/>
   </g>
   <g id="line2d_69">
    <path d="M 488.7888 301.725659 
L 503.3712 301.725659 
" clip-path="url(#p9a271d63bd)" style="fill: none; stroke: #212121; stroke-width: 2; stroke-linecap: square"/>
   </g>
   <g id="line2d_70">
    <path d="M 488.7888 210.78439 
L 503.3712 210.78439 
" clip-path="url(#p9a271d63bd)" style="fill: none; stroke: #212121; stroke-width: 2; stroke-linecap: square"/>
   </g>
   <g id="line2d_71">
    <g clip-path="url(#p9a271d63bd)">
     <use xlink:href="#m2c49d9f377" x="496.08" y="369.36" style="fill: #212121; stroke: #212121; stroke-linejoin: miter"/>
     <use xlink:href="#m2c49d9f377" x="496.08" y="122.277073" style="fill: #212121; stroke: #212121; stroke-linejoin: miter"/>
    </g>
   </g>
   <g id="line2d_72">
    <path d="M 79.7376 203.40878 
L 108.9024 203.40878 
" clip-path="url(#p9a271d63bd)" style="fill: none; stroke: #212121; stroke-width: 2; stroke-linecap: square"/>
   </g>
   <g id="line2d_73">
    <path d="M 109.4976 203.40878 
L 138.6624 203.40878 
" clip-path="url(#p9a271d63bd)" style="fill: none; stroke: #212121; stroke-width: 2; stroke-linecap: square"/>
   </g>
   <g id="line2d_74">
    <path d="M 154.1376 221.847805 
L 183.3024 221.847805 
" clip-path="url(#p9a271d63bd)" style="fill: none; stroke: #212121; stroke-width: 2; stroke-linecap: square"/>
   </g>
   <g id="line2d_75">
    <path d="M 183.8976 231.067317 
L 213.0624 231.067317 
" clip-path="url(#p9a271d63bd)" style="fill: none; stroke: #212121; stroke-width: 2; stroke-linecap: square"/>
   </g>
   <g id="line2d_76">
    <path d="M 228.5376 255.038049 
L 257.7024 255.038049 
" clip-path="url(#p9a271d63bd)" style="fill: none; stroke: #212121; stroke-width: 2; stroke-linecap: square"/>
   </g>
   <g id="line2d_77">
    <path d="M 258.2976 255.038049 
L 287.4624 255.038049 
" clip-path="url(#p9a271d63bd)" style="fill: none; stroke: #212121; stroke-width: 2; stroke-linecap: square"/>
   </g>
   <g id="line2d_78">
    <path d="M 302.9376 251.350244 
L 332.1024 251.350244 
" clip-path="url(#p9a271d63bd)" style="fill: none; stroke: #212121; stroke-width: 2; stroke-linecap: square"/>
   </g>
   <g id="line2d_79">
    <path d="M 332.6976 251.350244 
L 361.8624 251.350244 
" clip-path="url(#p9a271d63bd)" style="fill: none; stroke: #212121; stroke-width: 2; stroke-linecap: square"/>
   </g>
   <g id="line2d_80">
    <path d="M 377.3376 242.130732 
L 406.5024 242.130732 
" clip-path="url(#p9a271d63bd)" style="fill: none; stroke: #212121; stroke-width: 2; stroke-linecap: square"/>
   </g>
   <g id="line2d_81">
    <path d="M 407.0976 242.130732 
L 436.2624 242.130732 
" clip-path="url(#p9a271d63bd)" style="fill: none; stroke: #212121; stroke-width: 2; stroke-linecap: square"/>
   </g>
   <g id="line2d_82">
    <path d="M 451.7376 267.945366 
L 480.9024 267.945366 
" clip-path="url(#p9a271d63bd)" style="fill: none; stroke: #212121; stroke-width: 2; stroke-linecap: square"/>
   </g>
   <g id="line2d_83">
    <path d="M 481.4976 256.881951 
L 510.6624 256.881951 
" clip-path="url(#p9a271d63bd)" style="fill: none; stroke: #212121; stroke-width: 2; stroke-linecap: square"/>
   </g>
   <g id="patch_18">
    <path d="M 72 384.48 
L 72 51.84 
" style="fill: none; stroke: #bcbcbc; stroke-linejoin: miter; stroke-linecap: square"/>
   </g>
   <g id="patch_19">
    <path d="M 518.4 384.48 
L 518.4 51.84 
" style="fill: none; stroke: #bcbcbc; stroke-linejoin: miter; stroke-linecap: square"/>
   </g>
   <g id="patch_20">
    <path d="M 72 384.48 
L 518.4 384.48 
" style="fill: none; stroke: #bcbcbc; stroke-linejoin: miter; stroke-linecap: square"/>
   </g>
   <g id="patch_21">
    <path d="M 72 51.84 
L 518.4 51.84 
" style="fill: none; stroke: #bcbcbc; stroke-linejoin: miter; stroke-linecap: square"/>
   </g>
   <g id="patch_22">
    <path d="M 197.33861 84.127727 
Q 209.020575 94.739957 220.70254 105.352188 
L 223.392157 102.391452 
Q 225.816079 108.646458 228.24 114.901463 
Q 221.781653 113.087562 215.323305 111.273661 
L 218.012922 108.312924 
Q 206.330957 97.700694 194.648993 87.088463 
L 197.33861 84.127727 
z
" style="fill: #b22222; stroke: #eeeeee; stroke-width: 0.5; stroke-linecap: round"/>
   </g>
   <g id="text_12">
    <!-- BMR -->
    <g transform="translate(168.72 81.71122) scale(0.1 -0.1)">
     <defs>
      <path id="DejaVuSans-Bold-42" d="M 2456 2859 
Q 2741 2859 2887 2984 
Q 3034 3109 3034 3353 
Q 3034 3594 2887 3720 
Q 2741 3847 2456 3847 
L 1791 3847 
L 1791 2859 
L 2456 2859 
z
M 2497 819 
Q 2859 819 3042 972 
Q 3225 1125 3225 1434 
Q 3225 1738 3044 1889 
Q 2863 2041 2497 2041 
L 1791 2041 
L 1791 819 
L 2497 819 
z
M 3616 2497 
Q 4003 2384 4215 2081 
Q 4428 1778 4428 1338 
Q 4428 663 3972 331 
Q 3516 0 2584 0 
L 588 0 
L 588 4666 
L 2394 4666 
Q 3366 4666 3802 4372 
Q 4238 4078 4238 3431 
Q 4238 3091 4078 2852 
Q 3919 2613 3616 2497 
z
" transform="scale(0.015625)"/>
      <path id="DejaVuSans-Bold-52" d="M 2297 2597 
Q 2675 2597 2839 2737 
Q 3003 2878 3003 3200 
Q 3003 3519 2839 3656 
Q 2675 3794 2297 3794 
L 1791 3794 
L 1791 2597 
L 2297 2597 
z
M 1791 1766 
L 1791 0 
L 588 0 
L 588 4666 
L 2425 4666 
Q 3347 4666 3776 4356 
Q 4206 4047 4206 3378 
Q 4206 2916 3982 2619 
Q 3759 2322 3309 2181 
Q 3556 2125 3751 1926 
Q 3947 1728 4147 1325 
L 4800 0 
L 3519 0 
L 2950 1159 
Q 2778 1509 2601 1637 
Q 2425 1766 2131 1766 
L 1791 1766 
z
" transform="scale(0.015625)"/>
     </defs>
     <use xlink:href="#DejaVuSans-Bold-42"/>
     <use xlink:href="#DejaVuSans-Bold-4d" x="76.220703"/>
     <use xlink:href="#DejaVuSans-Bold-52" x="175.732422"/>
    </g>
   </g>
   <g id="text_13">
    <!-- Ticket Prices for Weekdays and Weekends of Montana and Neighbors -->
    <g transform="translate(13.741875 45.84) scale(0.144 -0.144)">
     <defs>
      <path id="DejaVuSans-Bold-54" d="M 31 4666 
L 4331 4666 
L 4331 3756 
L 2784 3756 
L 2784 0 
L 1581 0 
L 1581 3756 
L 31 3756 
L 31 4666 
z
" transform="scale(0.015625)"/>
      <path id="DejaVuSans-Bold-63" d="M 3366 3391 
L 3366 2478 
Q 3138 2634 2908 2709 
Q 2678 2784 2431 2784 
Q 1963 2784 1702 2511 
Q 1441 2238 1441 1747 
Q 1441 1256 1702 982 
Q 1963 709 2431 709 
Q 2694 709 2930 787 
Q 3166 866 3366 1019 
L 3366 103 
Q 3103 6 2833 -42 
Q 2563 -91 2291 -91 
Q 1344 -91 809 395 
Q 275 881 275 1747 
Q 275 2613 809 3098 
Q 1344 3584 2291 3584 
Q 2566 3584 2833 3536 
Q 3100 3488 3366 3391 
z
" transform="scale(0.015625)"/>
      <path id="DejaVuSans-Bold-50" d="M 588 4666 
L 2584 4666 
Q 3475 4666 3951 4270 
Q 4428 3875 4428 3144 
Q 4428 2409 3951 2014 
Q 3475 1619 2584 1619 
L 1791 1619 
L 1791 0 
L 588 0 
L 588 4666 
z
M 1791 3794 
L 1791 2491 
L 2456 2491 
Q 2806 2491 2997 2661 
Q 3188 2831 3188 3144 
Q 3188 3456 2997 3625 
Q 2806 3794 2456 3794 
L 1791 3794 
z
" transform="scale(0.015625)"/>
      <path id="DejaVuSans-Bold-72" d="M 3138 2547 
Q 2991 2616 2845 2648 
Q 2700 2681 2553 2681 
Q 2122 2681 1889 2404 
Q 1656 2128 1656 1613 
L 1656 0 
L 538 0 
L 538 3500 
L 1656 3500 
L 1656 2925 
Q 1872 3269 2151 3426 
Q 2431 3584 2822 3584 
Q 2878 3584 2943 3579 
Q 3009 3575 3134 3559 
L 3138 2547 
z
" transform="scale(0.015625)"/>
      <path id="DejaVuSans-Bold-66" d="M 2841 4863 
L 2841 4128 
L 2222 4128 
Q 1984 4128 1890 4042 
Q 1797 3956 1797 3744 
L 1797 3500 
L 2753 3500 
L 2753 2700 
L 1797 2700 
L 1797 0 
L 678 0 
L 678 2700 
L 122 2700 
L 122 3500 
L 678 3500 
L 678 3744 
Q 678 4316 997 4589 
Q 1316 4863 1984 4863 
L 2841 4863 
z
" transform="scale(0.015625)"/>
      <path id="DejaVuSans-Bold-4e" d="M 588 4666 
L 1931 4666 
L 3628 1466 
L 3628 4666 
L 4769 4666 
L 4769 0 
L 3425 0 
L 1728 3200 
L 1728 0 
L 588 0 
L 588 4666 
z
" transform="scale(0.015625)"/>
      <path id="DejaVuSans-Bold-62" d="M 2400 722 
Q 2759 722 2948 984 
Q 3138 1247 3138 1747 
Q 3138 2247 2948 2509 
Q 2759 2772 2400 2772 
Q 2041 2772 1848 2508 
Q 1656 2244 1656 1747 
Q 1656 1250 1848 986 
Q 2041 722 2400 722 
z
M 1656 2988 
Q 1888 3294 2169 3439 
Q 2450 3584 2816 3584 
Q 3463 3584 3878 3070 
Q 4294 2556 4294 1747 
Q 4294 938 3878 423 
Q 3463 -91 2816 -91 
Q 2450 -91 2169 54 
Q 1888 200 1656 506 
L 1656 0 
L 538 0 
L 538 4863 
L 1656 4863 
L 1656 2988 
z
" transform="scale(0.015625)"/>
     </defs>
     <use xlink:href="#DejaVuSans-Bold-54"/>
     <use xlink:href="#DejaVuSans-Bold-69" x="68.212891"/>
     <use xlink:href="#DejaVuSans-Bold-63" x="102.490234"/>
     <use xlink:href="#DejaVuSans-Bold-6b" x="161.767578"/>
     <use xlink:href="#DejaVuSans-Bold-65" x="225.646484"/>
     <use xlink:href="#DejaVuSans-Bold-74" x="293.46875"/>
     <use xlink:href="#DejaVuSans-Bold-20" x="341.271484"/>
     <use xlink:href="#DejaVuSans-Bold-50" x="376.085938"/>
     <use xlink:href="#DejaVuSans-Bold-72" x="449.376953"/>
     <use xlink:href="#DejaVuSans-Bold-69" x="498.693359"/>
     <use xlink:href="#DejaVuSans-Bold-63" x="532.970703"/>
     <use xlink:href="#DejaVuSans-Bold-65" x="592.248047"/>
     <use xlink:href="#DejaVuSans-Bold-73" x="660.070312"/>
     <use xlink:href="#DejaVuSans-Bold-20" x="719.591797"/>
     <use xlink:href="#DejaVuSans-Bold-66" x="754.40625"/>
     <use xlink:href="#DejaVuSans-Bold-6f" x="797.912109"/>
     <use xlink:href="#DejaVuSans-Bold-72" x="866.613281"/>
     <use xlink:href="#DejaVuSans-Bold-20" x="915.929688"/>
     <use xlink:href="#DejaVuSans-Bold-57" x="950.744141"/>
     <use xlink:href="#DejaVuSans-Bold-65" x="1057.421875"/>
     <use xlink:href="#DejaVuSans-Bold-65" x="1125.244141"/>
     <use xlink:href="#DejaVuSans-Bold-6b" x="1193.066406"/>
     <use xlink:href="#DejaVuSans-Bold-64" x="1259.570312"/>
     <use xlink:href="#DejaVuSans-Bold-61" x="1331.152344"/>
     <use xlink:href="#DejaVuSans-Bold-79" x="1395.507812"/>
     <use xlink:href="#DejaVuSans-Bold-73" x="1460.693359"/>
     <use xlink:href="#DejaVuSans-Bold-20" x="1520.214844"/>
     <use xlink:href="#DejaVuSans-Bold-61" x="1555.029297"/>
     <use xlink:href="#DejaVuSans-Bold-6e" x="1622.509766"/>
     <use xlink:href="#DejaVuSans-Bold-64" x="1693.701172"/>
     <use xlink:href="#DejaVuSans-Bold-20" x="1765.283203"/>
     <use xlink:href="#DejaVuSans-Bold-57" x="1800.097656"/>
     <use xlink:href="#DejaVuSans-Bold-65" x="1906.775391"/>
     <use xlink:href="#DejaVuSans-Bold-65" x="1974.597656"/>
     <use xlink:href="#DejaVuSans-Bold-6b" x="2042.419922"/>
     <use xlink:href="#DejaVuSans-Bold-65" x="2106.298828"/>
     <use xlink:href="#DejaVuSans-Bold-6e" x="2174.121094"/>
     <use xlink:href="#DejaVuSans-Bold-64" x="2245.3125"/>
     <use xlink:href="#DejaVuSans-Bold-73" x="2316.894531"/>
     <use xlink:href="#DejaVuSans-Bold-20" x="2376.416016"/>
     <use xlink:href="#DejaVuSans-Bold-6f" x="2411.230469"/>
     <use xlink:href="#DejaVuSans-Bold-66" x="2479.931641"/>
     <use xlink:href="#DejaVuSans-Bold-20" x="2523.4375"/>
     <use xlink:href="#DejaVuSans-Bold-4d" x="2558.251953"/>
     <use xlink:href="#DejaVuSans-Bold-6f" x="2657.763672"/>
     <use xlink:href="#DejaVuSans-Bold-6e" x="2726.464844"/>
     <use xlink:href="#DejaVuSans-Bold-74" x="2797.65625"/>
     <use xlink:href="#DejaVuSans-Bold-61" x="2845.458984"/>
     <use xlink:href="#DejaVuSans-Bold-6e" x="2912.939453"/>
     <use xlink:href="#DejaVuSans-Bold-61" x="2984.130859"/>
     <use xlink:href="#DejaVuSans-Bold-20" x="3051.611328"/>
     <use xlink:href="#DejaVuSans-Bold-61" x="3086.425781"/>
     <use xlink:href="#DejaVuSans-Bold-6e" x="3153.90625"/>
     <use xlink:href="#DejaVuSans-Bold-64" x="3225.097656"/>
     <use xlink:href="#DejaVuSans-Bold-20" x="3296.679688"/>
     <use xlink:href="#DejaVuSans-Bold-4e" x="3331.494141"/>
     <use xlink:href="#DejaVuSans-Bold-65" x="3415.185547"/>
     <use xlink:href="#DejaVuSans-Bold-69" x="3483.007812"/>
     <use xlink:href="#DejaVuSans-Bold-67" x="3517.285156"/>
     <use xlink:href="#DejaVuSans-Bold-68" x="3588.867188"/>
     <use xlink:href="#DejaVuSans-Bold-62" x="3660.058594"/>
     <use xlink:href="#DejaVuSans-Bold-6f" x="3731.640625"/>
     <use xlink:href="#DejaVuSans-Bold-72" x="3800.341797"/>
     <use xlink:href="#DejaVuSans-Bold-73" x="3849.658203"/>
    </g>
   </g>
  </g>
 </g>
 <defs>
  <clipPath id="p9a271d63bd">
   <rect x="72" y="51.84" width="446.4" height="332.64"/>
  </clipPath>
 </defs>
</svg>
