<?xml version="1.0" encoding="utf-8" standalone="no"?>
<!DOCTYPE svg PUBLIC "-//W3C//DTD SVG 1.1//EN"
  "http://www.w3.org/Graphics/SVG/1.1/DTD/svg11.dtd">
<svg xmlns:xlink="http://www.w3.org/1999/xlink" width="576pt" height="864pt" viewBox="0 0 576 864" xmlns="http://www.w3.org/2000/svg" version="1.1">
 <metadata>
  <rdf:RDF xmlns:dc="http://purl.org/dc/elements/1.1/" xmlns:cc="http://creativecommons.org/ns#" xmlns:rdf="http://www.w3.org/1999/02/22-rdf-syntax-ns#">
   <cc:Work>
    <dc:type rdf:resource="http://purl.org/dc/dcmitype/StillImage"/>
    <dc:date>2023-10-18T17:25:38.432218</dc:date>
    <dc:format>image/svg+xml</dc:format>
    <dc:creator>
     <cc:Agent>
      <dc:title>Matplotlib v3.6.2, https://matplotlib.org/</dc:title>
     </cc:Agent>
    </dc:creator>
   </cc:Work>
  </rdf:RDF>
 </metadata>
 <defs>
  <style type="text/css">*{stroke-linejoin: round; stroke-linecap: butt}</style>
 </defs>
 <g id="figure_1">
  <g id="patch_1">
   <path d="M 0 864 
L 576 864 
L 576 0 
L 0 0 
z
" style="fill: #ffffff"/>
  </g>
  <g id="axes_1">
   <g id="patch_2">
    <path d="M 38.37 829.14 
L 563.406439 829.14 
L 563.406439 24.72 
L 38.37 24.72 
z
" style="fill: #eeeeee"/>
   </g>
   <g id="matplotlib.axis_1">
    <g id="xtick_1">
     <g id="line2d_1">
      <path d="M 75.668271 829.14 
L 75.668271 24.72 
" clip-path="url(#p3fb3d2e2fc)" style="fill: none; stroke-dasharray: 1.85,0.8; stroke-dashoffset: 0; stroke: #ffffff; stroke-width: 0.5"/>
     </g>
     <g id="line2d_2"/>
     <g id="text_1">
      <!-- −2 -->
      <g transform="translate(70.346158 837.913316) scale(0.0694 -0.0694)">
       <defs>
        <path id="DejaVuSans-Bold-2212" d="M 678 2375 
L 4684 2375 
L 4684 1638 
L 678 1638 
L 678 2375 
z
" transform="scale(0.015625)"/>
        <path id="DejaVuSans-Bold-32" d="M 1844 884 
L 3897 884 
L 3897 0 
L 506 0 
L 506 884 
L 2209 2388 
Q 2438 2594 2547 2791 
Q 2656 2988 2656 3200 
Q 2656 3528 2436 3728 
Q 2216 3928 1850 3928 
Q 1569 3928 1234 3808 
Q 900 3688 519 3450 
L 519 4475 
Q 925 4609 1322 4679 
Q 1719 4750 2100 4750 
Q 2938 4750 3402 4381 
Q 3866 4013 3866 3353 
Q 3866 2972 3669 2642 
Q 3472 2313 2841 1759 
L 1844 884 
z
" transform="scale(0.015625)"/>
       </defs>
       <use xlink:href="#DejaVuSans-Bold-2212"/>
       <use xlink:href="#DejaVuSans-Bold-32" x="83.789062"/>
      </g>
     </g>
    </g>
    <g id="xtick_2">
     <g id="line2d_3">
      <path d="M 145.238216 829.14 
L 145.238216 24.72 
" clip-path="url(#p3fb3d2e2fc)" style="fill: none; stroke-dasharray: 1.85,0.8; stroke-dashoffset: 0; stroke: #ffffff; stroke-width: 0.5"/>
     </g>
     <g id="line2d_4"/>
     <g id="text_2">
      <!-- −1 -->
      <g transform="translate(139.916103 837.913316) scale(0.0694 -0.0694)">
       <defs>
        <path id="DejaVuSans-Bold-31" d="M 750 831 
L 1813 831 
L 1813 3847 
L 722 3622 
L 722 4441 
L 1806 4666 
L 2950 4666 
L 2950 831 
L 4013 831 
L 4013 0 
L 750 0 
L 750 831 
z
" transform="scale(0.015625)"/>
       </defs>
       <use xlink:href="#DejaVuSans-Bold-2212"/>
       <use xlink:href="#DejaVuSans-Bold-31" x="83.789062"/>
      </g>
     </g>
    </g>
    <g id="xtick_3">
     <g id="line2d_5">
      <path d="M 214.808161 829.14 
L 214.808161 24.72 
" clip-path="url(#p3fb3d2e2fc)" style="fill: none; stroke-dasharray: 1.85,0.8; stroke-dashoffset: 0; stroke: #ffffff; stroke-width: 0.5"/>
     </g>
     <g id="line2d_6"/>
     <g id="text_3">
      <!-- 0 -->
      <g transform="translate(212.3938 837.913316) scale(0.0694 -0.0694)">
       <defs>
        <path id="DejaVuSans-Bold-30" d="M 2944 2338 
Q 2944 3213 2780 3570 
Q 2616 3928 2228 3928 
Q 1841 3928 1675 3570 
Q 1509 3213 1509 2338 
Q 1509 1453 1675 1090 
Q 1841 728 2228 728 
Q 2613 728 2778 1090 
Q 2944 1453 2944 2338 
z
M 4147 2328 
Q 4147 1169 3647 539 
Q 3147 -91 2228 -91 
Q 1306 -91 806 539 
Q 306 1169 306 2328 
Q 306 3491 806 4120 
Q 1306 4750 2228 4750 
Q 3147 4750 3647 4120 
Q 4147 3491 4147 2328 
z
" transform="scale(0.015625)"/>
       </defs>
       <use xlink:href="#DejaVuSans-Bold-30"/>
      </g>
     </g>
    </g>
    <g id="xtick_4">
     <g id="line2d_7">
      <path d="M 284.378106 829.14 
L 284.378106 24.72 
" clip-path="url(#p3fb3d2e2fc)" style="fill: none; stroke-dasharray: 1.85,0.8; stroke-dashoffset: 0; stroke: #ffffff; stroke-width: 0.5"/>
     </g>
     <g id="line2d_8"/>
     <g id="text_4">
      <!-- 1 -->
      <g transform="translate(281.963745 837.913316) scale(0.0694 -0.0694)">
       <use xlink:href="#DejaVuSans-Bold-31"/>
      </g>
     </g>
    </g>
    <g id="xtick_5">
     <g id="line2d_9">
      <path d="M 353.948051 829.14 
L 353.948051 24.72 
" clip-path="url(#p3fb3d2e2fc)" style="fill: none; stroke-dasharray: 1.85,0.8; stroke-dashoffset: 0; stroke: #ffffff; stroke-width: 0.5"/>
     </g>
     <g id="line2d_10"/>
     <g id="text_5">
      <!-- 2 -->
      <g transform="translate(351.53369 837.913316) scale(0.0694 -0.0694)">
       <use xlink:href="#DejaVuSans-Bold-32"/>
      </g>
     </g>
    </g>
    <g id="xtick_6">
     <g id="line2d_11">
      <path d="M 423.517997 829.14 
L 423.517997 24.72 
" clip-path="url(#p3fb3d2e2fc)" style="fill: none; stroke-dasharray: 1.85,0.8; stroke-dashoffset: 0; stroke: #ffffff; stroke-width: 0.5"/>
     </g>
     <g id="line2d_12"/>
     <g id="text_6">
      <!-- 3 -->
      <g transform="translate(421.103636 837.913316) scale(0.0694 -0.0694)">
       <defs>
        <path id="DejaVuSans-Bold-33" d="M 2981 2516 
Q 3453 2394 3698 2092 
Q 3944 1791 3944 1325 
Q 3944 631 3412 270 
Q 2881 -91 1863 -91 
Q 1503 -91 1142 -33 
Q 781 25 428 141 
L 428 1069 
Q 766 900 1098 814 
Q 1431 728 1753 728 
Q 2231 728 2486 893 
Q 2741 1059 2741 1369 
Q 2741 1688 2480 1852 
Q 2219 2016 1709 2016 
L 1228 2016 
L 1228 2791 
L 1734 2791 
Q 2188 2791 2409 2933 
Q 2631 3075 2631 3366 
Q 2631 3634 2415 3781 
Q 2200 3928 1806 3928 
Q 1516 3928 1219 3862 
Q 922 3797 628 3669 
L 628 4550 
Q 984 4650 1334 4700 
Q 1684 4750 2022 4750 
Q 2931 4750 3382 4451 
Q 3834 4153 3834 3553 
Q 3834 3144 3618 2883 
Q 3403 2622 2981 2516 
z
" transform="scale(0.015625)"/>
       </defs>
       <use xlink:href="#DejaVuSans-Bold-33"/>
      </g>
     </g>
    </g>
    <g id="xtick_7">
     <g id="line2d_13">
      <path d="M 493.087942 829.14 
L 493.087942 24.72 
" clip-path="url(#p3fb3d2e2fc)" style="fill: none; stroke-dasharray: 1.85,0.8; stroke-dashoffset: 0; stroke: #ffffff; stroke-width: 0.5"/>
     </g>
     <g id="line2d_14"/>
     <g id="text_7">
      <!-- 4 -->
      <g transform="translate(490.673581 837.913316) scale(0.0694 -0.0694)">
       <defs>
        <path id="DejaVuSans-Bold-34" d="M 2356 3675 
L 1038 1722 
L 2356 1722 
L 2356 3675 
z
M 2156 4666 
L 3494 4666 
L 3494 1722 
L 4159 1722 
L 4159 850 
L 3494 850 
L 3494 0 
L 2356 0 
L 2356 850 
L 288 850 
L 288 1881 
L 2156 4666 
z
" transform="scale(0.015625)"/>
       </defs>
       <use xlink:href="#DejaVuSans-Bold-34"/>
      </g>
     </g>
    </g>
    <g id="xtick_8">
     <g id="line2d_15">
      <path d="M 562.657887 829.14 
L 562.657887 24.72 
" clip-path="url(#p3fb3d2e2fc)" style="fill: none; stroke-dasharray: 1.85,0.8; stroke-dashoffset: 0; stroke: #ffffff; stroke-width: 0.5"/>
     </g>
     <g id="line2d_16"/>
     <g id="text_8">
      <!-- 5 -->
      <g transform="translate(560.243526 837.913316) scale(0.0694 -0.0694)">
       <defs>
        <path id="DejaVuSans-Bold-35" d="M 678 4666 
L 3669 4666 
L 3669 3781 
L 1638 3781 
L 1638 3059 
Q 1775 3097 1914 3117 
Q 2053 3138 2203 3138 
Q 3056 3138 3531 2711 
Q 4006 2284 4006 1522 
Q 4006 766 3489 337 
Q 2972 -91 2053 -91 
Q 1656 -91 1267 -14 
Q 878 63 494 219 
L 494 1166 
Q 875 947 1217 837 
Q 1559 728 1863 728 
Q 2300 728 2551 942 
Q 2803 1156 2803 1522 
Q 2803 1891 2551 2103 
Q 2300 2316 1863 2316 
Q 1603 2316 1309 2248 
Q 1016 2181 678 2041 
L 678 4666 
z
" transform="scale(0.015625)"/>
       </defs>
       <use xlink:href="#DejaVuSans-Bold-35"/>
      </g>
     </g>
    </g>
    <g id="text_9">
     <!-- PC1 -->
     <g transform="translate(291.880756 849.686117) scale(0.0833 -0.0833)">
      <defs>
       <path id="DejaVuSans-Bold-50" d="M 588 4666 
L 2584 4666 
Q 3475 4666 3951 4270 
Q 4428 3875 4428 3144 
Q 4428 2409 3951 2014 
Q 3475 1619 2584 1619 
L 1791 1619 
L 1791 0 
L 588 0 
L 588 4666 
z
M 1791 3794 
L 1791 2491 
L 2456 2491 
Q 2806 2491 2997 2661 
Q 3188 2831 3188 3144 
Q 3188 3456 2997 3625 
Q 2806 3794 2456 3794 
L 1791 3794 
z
" transform="scale(0.015625)"/>
       <path id="DejaVuSans-Bold-43" d="M 4288 256 
Q 3956 84 3597 -3 
Q 3238 -91 2847 -91 
Q 1681 -91 1000 561 
Q 319 1213 319 2328 
Q 319 3447 1000 4098 
Q 1681 4750 2847 4750 
Q 3238 4750 3597 4662 
Q 3956 4575 4288 4403 
L 4288 3438 
Q 3953 3666 3628 3772 
Q 3303 3878 2944 3878 
Q 2300 3878 1931 3465 
Q 1563 3053 1563 2328 
Q 1563 1606 1931 1193 
Q 2300 781 2944 781 
Q 3303 781 3628 887 
Q 3953 994 4288 1222 
L 4288 256 
z
" transform="scale(0.015625)"/>
      </defs>
      <use xlink:href="#DejaVuSans-Bold-50"/>
      <use xlink:href="#DejaVuSans-Bold-43" x="73.291016"/>
      <use xlink:href="#DejaVuSans-Bold-31" x="146.679688"/>
     </g>
    </g>
   </g>
   <g id="matplotlib.axis_2">
    <g id="ytick_1">
     <g id="line2d_17">
      <path d="M 38.37 739.748245 
L 563.406439 739.748245 
" clip-path="url(#p3fb3d2e2fc)" style="fill: none; stroke-dasharray: 1.85,0.8; stroke-dashoffset: 0; stroke: #ffffff; stroke-width: 0.5"/>
     </g>
     <g id="line2d_18"/>
     <g id="text_10">
      <!-- −1 -->
      <g transform="translate(24.225775 742.384903) scale(0.0694 -0.0694)">
       <use xlink:href="#DejaVuSans-Bold-2212"/>
       <use xlink:href="#DejaVuSans-Bold-31" x="83.789062"/>
      </g>
     </g>
    </g>
    <g id="ytick_2">
     <g id="line2d_19">
      <path d="M 38.37 620.806138 
L 563.406439 620.806138 
" clip-path="url(#p3fb3d2e2fc)" style="fill: none; stroke-dasharray: 1.85,0.8; stroke-dashoffset: 0; stroke: #ffffff; stroke-width: 0.5"/>
     </g>
     <g id="line2d_20"/>
     <g id="text_11">
      <!-- 0 -->
      <g transform="translate(30.041278 623.442796) scale(0.0694 -0.0694)">
       <use xlink:href="#DejaVuSans-Bold-30"/>
      </g>
     </g>
    </g>
    <g id="ytick_3">
     <g id="line2d_21">
      <path d="M 38.37 501.864031 
L 563.406439 501.864031 
" clip-path="url(#p3fb3d2e2fc)" style="fill: none; stroke-dasharray: 1.85,0.8; stroke-dashoffset: 0; stroke: #ffffff; stroke-width: 0.5"/>
     </g>
     <g id="line2d_22"/>
     <g id="text_12">
      <!-- 1 -->
      <g transform="translate(30.041278 504.500689) scale(0.0694 -0.0694)">
       <use xlink:href="#DejaVuSans-Bold-31"/>
      </g>
     </g>
    </g>
    <g id="ytick_4">
     <g id="line2d_23">
      <path d="M 38.37 382.921925 
L 563.406439 382.921925 
" clip-path="url(#p3fb3d2e2fc)" style="fill: none; stroke-dasharray: 1.85,0.8; stroke-dashoffset: 0; stroke: #ffffff; stroke-width: 0.5"/>
     </g>
     <g id="line2d_24"/>
     <g id="text_13">
      <!-- 2 -->
      <g transform="translate(30.041278 385.558582) scale(0.0694 -0.0694)">
       <use xlink:href="#DejaVuSans-Bold-32"/>
      </g>
     </g>
    </g>
    <g id="ytick_5">
     <g id="line2d_25">
      <path d="M 38.37 263.979818 
L 563.406439 263.979818 
" clip-path="url(#p3fb3d2e2fc)" style="fill: none; stroke-dasharray: 1.85,0.8; stroke-dashoffset: 0; stroke: #ffffff; stroke-width: 0.5"/>
     </g>
     <g id="line2d_26"/>
     <g id="text_14">
      <!-- 3 -->
      <g transform="translate(30.041278 266.616476) scale(0.0694 -0.0694)">
       <use xlink:href="#DejaVuSans-Bold-33"/>
      </g>
     </g>
    </g>
    <g id="ytick_6">
     <g id="line2d_27">
      <path d="M 38.37 145.037711 
L 563.406439 145.037711 
" clip-path="url(#p3fb3d2e2fc)" style="fill: none; stroke-dasharray: 1.85,0.8; stroke-dashoffset: 0; stroke: #ffffff; stroke-width: 0.5"/>
     </g>
     <g id="line2d_28"/>
     <g id="text_15">
      <!-- 4 -->
      <g transform="translate(30.041278 147.674369) scale(0.0694 -0.0694)">
       <use xlink:href="#DejaVuSans-Bold-34"/>
      </g>
     </g>
    </g>
    <g id="ytick_7">
     <g id="line2d_29">
      <path d="M 38.37 26.095604 
L 563.406439 26.095604 
" clip-path="url(#p3fb3d2e2fc)" style="fill: none; stroke-dasharray: 1.85,0.8; stroke-dashoffset: 0; stroke: #ffffff; stroke-width: 0.5"/>
     </g>
     <g id="line2d_30"/>
     <g id="text_16">
      <!-- 5 -->
      <g transform="translate(30.041278 28.732262) scale(0.0694 -0.0694)">
       <use xlink:href="#DejaVuSans-Bold-35"/>
      </g>
     </g>
    </g>
    <g id="text_17">
     <!-- PC2 -->
     <g transform="translate(18.493395 435.937463) rotate(-90) scale(0.0833 -0.0833)">
      <use xlink:href="#DejaVuSans-Bold-50"/>
      <use xlink:href="#DejaVuSans-Bold-43" x="73.291016"/>
      <use xlink:href="#DejaVuSans-Bold-32" x="146.679688"/>
     </g>
    </g>
   </g>
   <g id="PathCollection_1">
    <path d="M 121.988475 648.167605 
C 122.767113 648.167605 123.513964 647.858249 124.064544 647.307669 
C 124.615124 646.757089 124.924481 646.010238 124.924481 645.2316 
C 124.924481 644.452962 124.615124 643.70611 124.064544 643.15553 
C 123.513964 642.60495 122.767113 642.295594 121.988475 642.295594 
C 121.209837 642.295594 120.462985 642.60495 119.912405 643.15553 
C 119.361825 643.70611 119.052469 644.452962 119.052469 645.2316 
C 119.052469 646.010238 119.361825 646.757089 119.912405 647.307669 
C 120.462985 647.858249 121.209837 648.167605 121.988475 648.167605 
z
" clip-path="url(#p3fb3d2e2fc)" style="fill: #b0b2b8; stroke: #ffffff; stroke-width: 0.398981"/>
    <path d="M 87.002522 675.738967 
C 88.046682 675.738967 89.048217 675.324118 89.78655 674.585785 
C 90.524883 673.847452 90.939732 672.845918 90.939732 671.801757 
C 90.939732 670.757597 90.524883 669.756062 89.78655 669.017729 
C 89.048217 668.279396 88.046682 667.864547 87.002522 667.864547 
C 85.958362 667.864547 84.956827 668.279396 84.218494 669.017729 
C 83.480161 669.756062 83.065312 670.757597 83.065312 671.801757 
C 83.065312 672.845918 83.480161 673.847452 84.218494 674.585785 
C 84.956827 675.324118 85.958362 675.738967 87.002522 675.738967 
z
" clip-path="url(#p3fb3d2e2fc)" style="fill: #ffc857; stroke: #ffffff; stroke-width: 0.398981"/>
    <path d="M 461.612465 780.204083 
C 462.638007 780.204083 463.621684 779.796631 464.346851 779.071463 
C 465.072019 778.346295 465.479471 777.362619 465.479471 776.337077 
C 465.479471 775.311535 465.072019 774.327859 464.346851 773.602691 
C 463.621684 772.877523 462.638007 772.470071 461.612465 772.470071 
C 460.586923 772.470071 459.603247 772.877523 458.878079 773.602691 
C 458.152912 774.327859 457.745459 775.311535 457.745459 776.337077 
C 457.745459 777.362619 458.152912 778.346295 458.878079 779.071463 
C 459.603247 779.796631 460.586923 780.204083 461.612465 780.204083 
z
" clip-path="url(#p3fb3d2e2fc)" style="fill: #ffc857; stroke: #ffffff; stroke-width: 0.398981"/>
    <path d="M 520.946986 742.902154 
C 522.0532 742.902154 523.114256 742.46265 523.896468 741.680438 
C 524.678679 740.898227 525.118183 739.837171 525.118183 738.730956 
C 525.118183 737.624742 524.678679 736.563686 523.896468 735.781475 
C 523.114256 734.999263 522.0532 734.559759 520.946986 734.559759 
C 519.840771 734.559759 518.779716 734.999263 517.997504 735.781475 
C 517.215292 736.563686 516.775788 737.624742 516.775788 738.730956 
C 516.775788 739.837171 517.215292 740.898227 517.997504 741.680438 
C 518.779716 742.46265 519.840771 742.902154 520.946986 742.902154 
z
" clip-path="url(#p3fb3d2e2fc)" style="fill: #ffc857; stroke: #ffffff; stroke-width: 0.398981"/>
    <path d="M 145.006461 500.089604 
C 145.778738 500.089604 146.519489 499.782775 147.065571 499.236692 
C 147.611654 498.69061 147.918483 497.949859 147.918483 497.177582 
C 147.918483 496.405305 147.611654 495.664554 147.065571 495.118472 
C 146.519489 494.57239 145.778738 494.265561 145.006461 494.265561 
C 144.234184 494.265561 143.493433 494.57239 142.947351 495.118472 
C 142.401268 495.664554 142.094439 496.405305 142.094439 497.177582 
C 142.094439 497.949859 142.401268 498.69061 142.947351 499.236692 
C 143.493433 499.782775 144.234184 500.089604 145.006461 500.089604 
z
" clip-path="url(#p3fb3d2e2fc)" style="fill: #b0b2b8; stroke: #ffffff; stroke-width: 0.398981"/>
    <path d="M 264.052929 619.033286 
C 264.814352 619.033286 265.544692 618.73077 266.0831 618.192362 
C 266.621507 617.653955 266.924024 616.923615 266.924024 616.162192 
C 266.924024 615.400769 266.621507 614.670429 266.0831 614.132022 
C 265.544692 613.593614 264.814352 613.291098 264.052929 613.291098 
C 263.291506 613.291098 262.561167 613.593614 262.022759 614.132022 
C 261.484352 614.670429 261.181835 615.400769 261.181835 616.162192 
C 261.181835 616.923615 261.484352 617.653955 262.022759 618.192362 
C 262.561167 618.73077 263.291506 619.033286 264.052929 619.033286 
z
" clip-path="url(#p3fb3d2e2fc)" style="fill: #b0b2b8; stroke: #ffffff; stroke-width: 0.398981"/>
    <path d="M 97.476184 670.261533 
C 98.065527 670.261533 98.630811 670.027385 99.047539 669.610656 
C 99.464267 669.193928 99.698416 668.628644 99.698416 668.039302 
C 99.698416 667.449959 99.464267 666.884675 99.047539 666.467947 
C 98.630811 666.051219 98.065527 665.81707 97.476184 665.81707 
C 96.886842 665.81707 96.321558 666.051219 95.90483 666.467947 
C 95.488101 666.884675 95.253953 667.449959 95.253953 668.039302 
C 95.253953 668.628644 95.488101 669.193928 95.90483 669.610656 
C 96.321558 670.027385 96.886842 670.261533 97.476184 670.261533 
z
" clip-path="url(#p3fb3d2e2fc)" style="fill: #254928; stroke: #ffffff; stroke-width: 0.398981"/>
    <path d="M 81.724143 669.083807 
C 82.389643 669.083807 83.027975 668.819401 83.498555 668.348821 
C 83.969134 667.878241 84.23354 667.239909 84.23354 666.574409 
C 84.23354 665.908909 83.969134 665.270576 83.498555 664.799997 
C 83.027975 664.329417 82.389643 664.065011 81.724143 664.065011 
C 81.058642 664.065011 80.42031 664.329417 79.94973 664.799997 
C 79.479151 665.270576 79.214745 665.908909 79.214745 666.574409 
C 79.214745 667.239909 79.479151 667.878241 79.94973 668.348821 
C 80.42031 668.819401 81.058642 669.083807 81.724143 669.083807 
z
" clip-path="url(#p3fb3d2e2fc)" style="fill: #254928; stroke: #ffffff; stroke-width: 0.398981"/>
    <path d="M 85.876887 657.795214 
C 86.439468 657.795214 86.979082 657.571698 87.376887 657.173893 
C 87.774692 656.776089 87.998207 656.236474 87.998207 655.673893 
C 87.998207 655.111313 87.774692 654.571698 87.376887 654.173893 
C 86.979082 653.776089 86.439468 653.552573 85.876887 653.552573 
C 85.314306 653.552573 84.774692 653.776089 84.376887 654.173893 
C 83.979082 654.571698 83.755567 655.111313 83.755567 655.673893 
C 83.755567 656.236474 83.979082 656.776089 84.376887 657.173893 
C 84.774692 657.571698 85.314306 657.795214 85.876887 657.795214 
z
" clip-path="url(#p3fb3d2e2fc)" style="fill: #254928; stroke: #ffffff; stroke-width: 0.398981"/>
    <path d="M 198.537931 560.716222 
C 199.358966 560.716222 200.146484 560.390022 200.727043 559.809463 
C 201.307602 559.228904 201.633802 558.441386 201.633802 557.620352 
C 201.633802 556.799317 201.307602 556.011799 200.727043 555.43124 
C 200.146484 554.850681 199.358966 554.524481 198.537931 554.524481 
C 197.716897 554.524481 196.929379 554.850681 196.34882 555.43124 
C 195.768261 556.011799 195.442061 556.799317 195.442061 557.620352 
C 195.442061 558.441386 195.768261 559.228904 196.34882 559.809463 
C 196.929379 560.390022 197.716897 560.716222 198.537931 560.716222 
z
" clip-path="url(#p3fb3d2e2fc)" style="fill: #76a8d9; stroke: #ffffff; stroke-width: 0.398981"/>
    <path d="M 73.668663 660.430632 
C 74.672175 660.430632 75.634721 660.031932 76.344311 659.322342 
C 77.053901 658.612752 77.4526 657.650206 77.4526 656.646694 
C 77.4526 655.643183 77.053901 654.680637 76.344311 653.971047 
C 75.634721 653.261457 74.672175 652.862757 73.668663 652.862757 
C 72.665151 652.862757 71.702605 653.261457 70.993015 653.971047 
C 70.283425 654.680637 69.884726 655.643183 69.884726 656.646694 
C 69.884726 657.650206 70.283425 658.612752 70.993015 659.322342 
C 71.702605 660.031932 72.665151 660.430632 73.668663 660.430632 
z
" clip-path="url(#p3fb3d2e2fc)" style="fill: #ffc857; stroke: #ffffff; stroke-width: 0.398981"/>
    <path d="M 220.287248 466.133827 
C 221.064301 466.133827 221.809632 465.825101 222.359091 465.275642 
C 222.90855 464.726183 223.217277 463.980852 223.217277 463.203799 
C 223.217277 462.426747 222.90855 461.681416 222.359091 461.131956 
C 221.809632 460.582497 221.064301 460.273771 220.287248 460.273771 
C 219.510196 460.273771 218.764865 460.582497 218.215406 461.131956 
C 217.665946 461.681416 217.35722 462.426747 217.35722 463.203799 
C 217.35722 463.980852 217.665946 464.726183 218.215406 465.275642 
C 218.764865 465.825101 219.510196 466.133827 220.287248 466.133827 
z
" clip-path="url(#p3fb3d2e2fc)" style="fill: #b0b2b8; stroke: #ffffff; stroke-width: 0.398981"/>
    <path d="M 467.133023 724.212835 
C 467.850676 724.212835 468.539034 723.927709 469.046492 723.420251 
C 469.55395 722.912793 469.839076 722.224435 469.839076 721.506782 
C 469.839076 720.789128 469.55395 720.100771 469.046492 719.593313 
C 468.539034 719.085855 467.850676 718.800728 467.133023 718.800728 
C 466.415369 718.800728 465.727012 719.085855 465.219554 719.593313 
C 464.712096 720.100771 464.426969 720.789128 464.426969 721.506782 
C 464.426969 722.224435 464.712096 722.912793 465.219554 723.420251 
C 465.727012 723.927709 466.415369 724.212835 467.133023 724.212835 
z
" clip-path="url(#p3fb3d2e2fc)" style="fill: #254928; stroke: #ffffff; stroke-width: 0.398981"/>
    <path d="M 269.055006 693.86555 
C 269.736533 693.86555 270.390238 693.594777 270.87215 693.112865 
C 271.354062 692.630953 271.624835 691.977248 271.624835 691.295721 
C 271.624835 690.614194 271.354062 689.96049 270.87215 689.478578 
C 270.390238 688.996665 269.736533 688.725892 269.055006 688.725892 
C 268.373479 688.725892 267.719775 688.996665 267.237863 689.478578 
C 266.75595 689.96049 266.485177 690.614194 266.485177 691.295721 
C 266.485177 691.977248 266.75595 692.630953 267.237863 693.112865 
C 267.719775 693.594777 268.373479 693.86555 269.055006 693.86555 
z
" clip-path="url(#p3fb3d2e2fc)" style="fill: #254928; stroke: #ffffff; stroke-width: 0.398981"/>
    <path d="M 69.908825 664.756842 
C 70.567341 664.756842 71.198973 664.495211 71.664614 664.02957 
C 72.130254 663.56393 72.391885 662.932297 72.391885 662.273782 
C 72.391885 661.615267 72.130254 660.983634 71.664614 660.517994 
C 71.198973 660.052354 70.567341 659.790723 69.908825 659.790723 
C 69.25031 659.790723 68.618678 660.052354 68.153037 660.517994 
C 67.687397 660.983634 67.425766 661.615267 67.425766 662.273782 
C 67.425766 662.932297 67.687397 663.56393 68.153037 664.02957 
C 68.618678 664.495211 69.25031 664.756842 69.908825 664.756842 
z
" clip-path="url(#p3fb3d2e2fc)" style="fill: #254928; stroke: #ffffff; stroke-width: 0.398981"/>
    <path d="M 288.292585 583.202766 
C 289.003884 583.202766 289.686146 582.920164 290.189111 582.417199 
C 290.692076 581.914234 290.974678 581.231972 290.974678 580.520673 
C 290.974678 579.809373 290.692076 579.127111 290.189111 578.624146 
C 289.686146 578.121182 289.003884 577.838579 288.292585 577.838579 
C 287.581285 577.838579 286.899023 578.121182 286.396058 578.624146 
C 285.893093 579.127111 285.610491 579.809373 285.610491 580.520673 
C 285.610491 581.231972 285.893093 581.914234 286.396058 582.417199 
C 286.899023 582.920164 287.581285 583.202766 288.292585 583.202766 
z
" clip-path="url(#p3fb3d2e2fc)" style="fill: #254928; stroke: #ffffff; stroke-width: 0.398981"/>
    <path d="M 108.921878 655.913247 
C 109.943656 655.913247 110.923722 655.507291 111.646227 654.784785 
C 112.368733 654.062279 112.77469 653.082213 112.77469 652.060436 
C 112.77469 651.038658 112.368733 650.058593 111.646227 649.336087 
C 110.923722 648.613581 109.943656 648.207624 108.921878 648.207624 
C 107.900101 648.207624 106.920035 648.613581 106.197529 649.336087 
C 105.475023 650.058593 105.069067 651.038658 105.069067 652.060436 
C 105.069067 653.082213 105.475023 654.062279 106.197529 654.784785 
C 106.920035 655.507291 107.900101 655.913247 108.921878 655.913247 
z
" clip-path="url(#p3fb3d2e2fc)" style="fill: #ffc857; stroke: #ffffff; stroke-width: 0.398981"/>
    <path d="M 362.338533 248.309268 
C 363.318734 248.309268 364.258921 247.919829 364.952028 247.226722 
C 365.645135 246.533615 366.034573 245.593429 366.034573 244.613227 
C 366.034573 243.633026 365.645135 242.692839 364.952028 241.999732 
C 364.258921 241.306625 363.318734 240.917187 362.338533 240.917187 
C 361.358331 240.917187 360.418144 241.306625 359.725037 241.999732 
C 359.03193 242.692839 358.642492 243.633026 358.642492 244.613227 
C 358.642492 245.593429 359.03193 246.533615 359.725037 247.226722 
C 360.418144 247.919829 361.358331 248.309268 362.338533 248.309268 
z
" clip-path="url(#p3fb3d2e2fc)" style="fill: #76a8d9; stroke: #ffffff; stroke-width: 0.398981"/>
    <path d="M 88.540366 636.972867 
C 89.552961 636.972867 90.524219 636.570559 91.240231 635.854546 
C 91.956244 635.138534 92.358552 634.167276 92.358552 633.154681 
C 92.358552 632.142087 91.956244 631.170829 91.240231 630.454817 
C 90.524219 629.738804 89.552961 629.336496 88.540366 629.336496 
C 87.527772 629.336496 86.556514 629.738804 85.840502 630.454817 
C 85.124489 631.170829 84.722181 632.142087 84.722181 633.154681 
C 84.722181 634.167276 85.124489 635.138534 85.840502 635.854546 
C 86.556514 636.570559 87.527772 636.972867 88.540366 636.972867 
z
" clip-path="url(#p3fb3d2e2fc)" style="fill: #ffc857; stroke: #ffffff; stroke-width: 0.398981"/>
    <path d="M 184.24119 620.207912 
C 185.113208 620.207912 185.949628 619.861456 186.566238 619.244846 
C 187.182847 618.628236 187.529304 617.791817 187.529304 616.919799 
C 187.529304 616.047781 187.182847 615.211362 186.566238 614.594752 
C 185.949628 613.978142 185.113208 613.631686 184.24119 613.631686 
C 183.369173 613.631686 182.532753 613.978142 181.916143 614.594752 
C 181.299534 615.211362 180.953077 616.047781 180.953077 616.919799 
C 180.953077 617.791817 181.299534 618.628236 181.916143 619.244846 
C 182.532753 619.861456 183.369173 620.207912 184.24119 620.207912 
z
" clip-path="url(#p3fb3d2e2fc)" style="fill: #76a8d9; stroke: #ffffff; stroke-width: 0.398981"/>
    <path d="M 539.541146 771.125634 
C 540.338702 771.125634 541.1037 770.808761 541.667657 770.244804 
C 542.231614 769.680847 542.548487 768.915849 542.548487 768.118293 
C 542.548487 767.320737 542.231614 766.55574 541.667657 765.991782 
C 541.1037 765.427825 540.338702 765.110953 539.541146 765.110953 
C 538.74359 765.110953 537.978593 765.427825 537.414636 765.991782 
C 536.850678 766.55574 536.533806 767.320737 536.533806 768.118293 
C 536.533806 768.915849 536.850678 769.680847 537.414636 770.244804 
C 537.978593 770.808761 538.74359 771.125634 539.541146 771.125634 
z
" clip-path="url(#p3fb3d2e2fc)" style="fill: #b0b2b8; stroke: #ffffff; stroke-width: 0.398981"/>
    <path d="M 130.016752 672.072703 
C 130.872713 672.072703 131.693732 671.732626 132.298988 671.12737 
C 132.904245 670.522113 133.244322 669.701095 133.244322 668.845133 
C 133.244322 667.989172 132.904245 667.168153 132.298988 666.562896 
C 131.693732 665.95764 130.872713 665.617563 130.016752 665.617563 
C 129.16079 665.617563 128.339771 665.95764 127.734515 666.562896 
C 127.129259 667.168153 126.789182 667.989172 126.789182 668.845133 
C 126.789182 669.701095 127.129259 670.522113 127.734515 671.12737 
C 128.339771 671.732626 129.16079 672.072703 130.016752 672.072703 
z
" clip-path="url(#p3fb3d2e2fc)" style="fill: #76a8d9; stroke: #ffffff; stroke-width: 0.398981"/>
    <path d="M 132.397225 678.448078 
C 133.018152 678.448078 133.613732 678.201381 134.052794 677.762319 
C 134.491856 677.323257 134.738553 676.727678 134.738553 676.10675 
C 134.738553 675.485823 134.491856 674.890243 134.052794 674.451181 
C 133.613732 674.012119 133.018152 673.765422 132.397225 673.765422 
C 131.776297 673.765422 131.180718 674.012119 130.741656 674.451181 
C 130.302594 674.890243 130.055897 675.485823 130.055897 676.10675 
C 130.055897 676.727678 130.302594 677.323257 130.741656 677.762319 
C 131.180718 678.201381 131.776297 678.448078 132.397225 678.448078 
z
" clip-path="url(#p3fb3d2e2fc)" style="fill: #254928; stroke: #ffffff; stroke-width: 0.398981"/>
    <path d="M 252.827172 727.483513 
C 253.63523 727.483513 254.410302 727.162468 254.981685 726.591084 
C 255.553069 726.0197 255.874114 725.244629 255.874114 724.43657 
C 255.874114 723.628512 255.553069 722.85344 254.981685 722.282056 
C 254.410302 721.710673 253.63523 721.389628 252.827172 721.389628 
C 252.019113 721.389628 251.244042 721.710673 250.672658 722.282056 
C 250.101274 722.85344 249.780229 723.628512 249.780229 724.43657 
C 249.780229 725.244629 250.101274 726.0197 250.672658 726.591084 
C 251.244042 727.162468 252.019113 727.483513 252.827172 727.483513 
z
" clip-path="url(#p3fb3d2e2fc)" style="fill: #b0b2b8; stroke: #ffffff; stroke-width: 0.398981"/>
    <path d="M 337.64076 708.758654 
C 338.491529 708.758654 339.307567 708.42064 339.909151 707.819055 
C 340.510735 707.217471 340.848749 706.401433 340.848749 705.550665 
C 340.848749 704.699896 340.510735 703.883858 339.909151 703.282274 
C 339.307567 702.68069 338.491529 702.342676 337.64076 702.342676 
C 336.789992 702.342676 335.973954 702.68069 335.372369 703.282274 
C 334.770785 703.883858 334.432771 704.699896 334.432771 705.550665 
C 334.432771 706.401433 334.770785 707.217471 335.372369 707.819055 
C 335.973954 708.42064 336.789992 708.758654 337.64076 708.758654 
z
" clip-path="url(#p3fb3d2e2fc)" style="fill: #76a8d9; stroke: #ffffff; stroke-width: 0.398981"/>
    <path d="M 91.602526 498.559082 
C 92.458031 498.559082 93.278612 498.219186 93.883545 497.614253 
C 94.488478 497.00932 94.828373 496.188739 94.828373 495.333235 
C 94.828373 494.47773 94.488478 493.65715 93.883545 493.052217 
C 93.278612 492.447283 92.458031 492.107388 91.602526 492.107388 
C 90.747022 492.107388 89.926441 492.447283 89.321508 493.052217 
C 88.716575 493.65715 88.376679 494.47773 88.376679 495.333235 
C 88.376679 496.188739 88.716575 497.00932 89.321508 497.614253 
C 89.926441 498.219186 90.747022 498.559082 91.602526 498.559082 
z
" clip-path="url(#p3fb3d2e2fc)" style="fill: #4f301f; stroke: #ffffff; stroke-width: 0.398981"/>
    <path d="M 81.334236 633.962661 
C 82.040197 633.962661 82.717338 633.682179 83.216527 633.18299 
C 83.715717 632.683801 83.996198 632.006659 83.996198 631.300699 
C 83.996198 630.594739 83.715717 629.917597 83.216527 629.418408 
C 82.717338 628.919219 82.040197 628.638738 81.334236 628.638738 
C 80.628276 628.638738 79.951135 628.919219 79.451945 629.418408 
C 78.952756 629.917597 78.672275 630.594739 78.672275 631.300699 
C 78.672275 632.006659 78.952756 632.683801 79.451945 633.18299 
C 79.951135 633.682179 80.628276 633.962661 81.334236 633.962661 
z
" clip-path="url(#p3fb3d2e2fc)" style="fill: #254928; stroke: #ffffff; stroke-width: 0.398981"/>
    <path d="M 62.235293 665.115523 
C 63.100211 665.115523 63.929821 664.771887 64.541411 664.160298 
C 65.153001 663.548708 65.496637 662.719098 65.496637 661.854179 
C 65.496637 660.989261 65.153001 660.159651 64.541411 659.548061 
C 63.929821 658.936471 63.100211 658.592836 62.235293 658.592836 
C 61.370374 658.592836 60.540764 658.936471 59.929174 659.548061 
C 59.317585 660.159651 58.973949 660.989261 58.973949 661.854179 
C 58.973949 662.719098 59.317585 663.548708 59.929174 664.160298 
C 60.540764 664.771887 61.370374 665.115523 62.235293 665.115523 
z
" clip-path="url(#p3fb3d2e2fc)" style="fill: #76a8d9; stroke: #ffffff; stroke-width: 0.398981"/>
    <path d="M 316.635703 706.216907 
C 317.760865 706.216907 318.840094 705.769875 319.635703 704.974266 
C 320.431313 704.178657 320.878344 703.099428 320.878344 701.974266 
C 320.878344 700.849105 320.431313 699.769875 319.635703 698.974266 
C 318.840094 698.178657 317.760865 697.731625 316.635703 697.731625 
C 315.510542 697.731625 314.431313 698.178657 313.635703 698.974266 
C 312.840094 699.769875 312.393063 700.849105 312.393063 701.974266 
C 312.393063 703.099428 312.840094 704.178657 313.635703 704.974266 
C 314.431313 705.769875 315.510542 706.216907 316.635703 706.216907 
z
" clip-path="url(#p3fb3d2e2fc)" style="fill: #ffc857; stroke: #ffffff; stroke-width: 0.398981"/>
    <path d="M 389.870039 65.366061 
C 390.952469 65.366061 391.990712 64.936006 392.756106 64.170613 
C 393.5215 63.405219 393.951554 62.366976 393.951554 61.284545 
C 393.951554 60.202115 393.5215 59.163872 392.756106 58.398478 
C 391.990712 57.633084 390.952469 57.20303 389.870039 57.20303 
C 388.787608 57.20303 387.749366 57.633084 386.983972 58.398478 
C 386.218578 59.163872 385.788524 60.202115 385.788524 61.284545 
C 385.788524 62.366976 386.218578 63.405219 386.983972 64.170613 
C 387.749366 64.936006 388.787608 65.366061 389.870039 65.366061 
z
" clip-path="url(#p3fb3d2e2fc)" style="fill: #ffc857; stroke: #ffffff; stroke-width: 0.398981"/>
    <path d="M 99.73404 661.367232 
C 100.630463 661.367232 101.490291 661.01108 102.124158 660.377213 
C 102.758024 659.743347 103.114177 658.883518 103.114177 657.987095 
C 103.114177 657.090673 102.758024 656.230844 102.124158 655.596978 
C 101.490291 654.963111 100.630463 654.606959 99.73404 654.606959 
C 98.837617 654.606959 97.977789 654.963111 97.343922 655.596978 
C 96.710056 656.230844 96.353903 657.090673 96.353903 657.987095 
C 96.353903 658.883518 96.710056 659.743347 97.343922 660.377213 
C 97.977789 661.01108 98.837617 661.367232 99.73404 661.367232 
z
" clip-path="url(#p3fb3d2e2fc)" style="fill: #76a8d9; stroke: #ffffff; stroke-width: 0.398981"/>
    <path d="M 282.764037 796.038003 
C 283.682315 796.038003 284.563107 795.673167 285.212428 795.023846 
C 285.86175 794.374525 286.226586 793.493733 286.226586 792.575455 
C 286.226586 791.657176 285.86175 790.776384 285.212428 790.127063 
C 284.563107 789.477742 283.682315 789.112906 282.764037 789.112906 
C 281.845758 789.112906 280.964966 789.477742 280.315645 790.127063 
C 279.666324 790.776384 279.301488 791.657176 279.301488 792.575455 
C 279.301488 793.493733 279.666324 794.374525 280.315645 795.023846 
C 280.964966 795.673167 281.845758 796.038003 282.764037 796.038003 
z
" clip-path="url(#p3fb3d2e2fc)" style="fill: #76a8d9; stroke: #ffffff; stroke-width: 0.398981"/>
    <path d="M 115.176743 626.989251 
C 116.187143 626.989251 117.156296 626.587815 117.870757 625.873354 
C 118.585218 625.158893 118.986654 624.18974 118.986654 623.17934 
C 118.986654 622.16894 118.585218 621.199787 117.870757 620.485326 
C 117.156296 619.770865 116.187143 619.369429 115.176743 619.369429 
C 114.166343 619.369429 113.19719 619.770865 112.482729 620.485326 
C 111.768268 621.199787 111.366832 622.16894 111.366832 623.17934 
C 111.366832 624.18974 111.768268 625.158893 112.482729 625.873354 
C 113.19719 626.587815 114.166343 626.989251 115.176743 626.989251 
z
" clip-path="url(#p3fb3d2e2fc)" style="fill: #ffc857; stroke: #ffffff; stroke-width: 0.398981"/>
    <path d="M 296.266584 682.273267 
C 297.019632 682.273267 297.741939 681.974078 298.274424 681.441592 
C 298.80691 680.909107 299.106099 680.1868 299.106099 679.433752 
C 299.106099 678.680703 298.80691 677.958397 298.274424 677.425911 
C 297.741939 676.893426 297.019632 676.594236 296.266584 676.594236 
C 295.513535 676.594236 294.791229 676.893426 294.258743 677.425911 
C 293.726257 677.958397 293.427068 678.680703 293.427068 679.433752 
C 293.427068 680.1868 293.726257 680.909107 294.258743 681.441592 
C 294.791229 681.974078 295.513535 682.273267 296.266584 682.273267 
z
" clip-path="url(#p3fb3d2e2fc)" style="fill: #b0b2b8; stroke: #ffffff; stroke-width: 0.398981"/>
    <path d="M 193.631082 467.573432 
C 194.395737 467.573432 195.129177 467.269632 195.66987 466.728939 
C 196.210563 466.188246 196.514364 465.454806 196.514364 464.690151 
C 196.514364 463.925496 196.210563 463.192056 195.66987 462.651363 
C 195.129177 462.11067 194.395737 461.80687 193.631082 461.80687 
C 192.866427 461.80687 192.132987 462.11067 191.592294 462.651363 
C 191.051602 463.192056 190.747801 463.925496 190.747801 464.690151 
C 190.747801 465.454806 191.051602 466.188246 191.592294 466.728939 
C 192.132987 467.269632 192.866427 467.573432 193.631082 467.573432 
z
" clip-path="url(#p3fb3d2e2fc)" style="fill: #b0b2b8; stroke: #ffffff; stroke-width: 0.398981"/>
   </g>
   <g id="PathCollection_2"/>
   <g id="PathCollection_3"/>
   <g id="PathCollection_4"/>
   <g id="PathCollection_5"/>
   <g id="PathCollection_6"/>
   <g id="PathCollection_7"/>
   <g id="PathCollection_8"/>
   <g id="PathCollection_9"/>
   <g id="PathCollection_10"/>
   <g id="PathCollection_11"/>
   <g id="text_18">
    <!-- AK -->
    <g style="fill: #b0b2b8" transform="translate(124.56785 653.775818) scale(0.07 -0.07)">
     <defs>
      <path id="DejaVuSans-Bold-41" d="M 3419 850 
L 1538 850 
L 1241 0 
L 31 0 
L 1759 4666 
L 3194 4666 
L 4922 0 
L 3713 0 
L 3419 850 
z
M 1838 1716 
L 3116 1716 
L 2478 3572 
L 1838 1716 
z
" transform="scale(0.015625)"/>
      <path id="DejaVuSans-Bold-4b" d="M 588 4666 
L 1791 4666 
L 1791 2963 
L 3525 4666 
L 4922 4666 
L 2675 2456 
L 5153 0 
L 3647 0 
L 1791 1838 
L 1791 0 
L 588 0 
L 588 4666 
z
" transform="scale(0.015625)"/>
     </defs>
     <use xlink:href="#DejaVuSans-Bold-41"/>
     <use xlink:href="#DejaVuSans-Bold-4b" x="77.392578"/>
    </g>
   </g>
   <g id="text_19">
    <!-- AZ -->
    <g style="fill: #b0b2b8" transform="translate(89.755803 680.345976) scale(0.07 -0.07)">
     <defs>
      <path id="DejaVuSans-Bold-5a" d="M 359 4666 
L 4281 4666 
L 4281 3938 
L 1778 909 
L 4353 909 
L 4353 0 
L 288 0 
L 288 728 
L 2791 3756 
L 359 3756 
L 359 4666 
z
" transform="scale(0.015625)"/>
     </defs>
     <use xlink:href="#DejaVuSans-Bold-41"/>
     <use xlink:href="#DejaVuSans-Bold-5a" x="77.392578"/>
    </g>
   </g>
   <g id="text_20">
    <!-- CA -->
    <g style="fill: #b0b2b8" transform="translate(464.335121 784.881296) scale(0.07 -0.07)">
     <use xlink:href="#DejaVuSans-Bold-43"/>
     <use xlink:href="#DejaVuSans-Bold-41" x="73.388672"/>
    </g>
   </g>
   <g id="text_21">
    <!-- CO -->
    <g style="fill: #b0b2b8" transform="translate(523.402767 747.275175) scale(0.07 -0.07)">
     <defs>
      <path id="DejaVuSans-Bold-4f" d="M 2719 3878 
Q 2169 3878 1866 3472 
Q 1563 3066 1563 2328 
Q 1563 1594 1866 1187 
Q 2169 781 2719 781 
Q 3272 781 3575 1187 
Q 3878 1594 3878 2328 
Q 3878 3066 3575 3472 
Q 3272 3878 2719 3878 
z
M 2719 4750 
Q 3844 4750 4481 4106 
Q 5119 3463 5119 2328 
Q 5119 1197 4481 553 
Q 3844 -91 2719 -91 
Q 1597 -91 958 553 
Q 319 1197 319 2328 
Q 319 3463 958 4106 
Q 1597 4750 2719 4750 
z
" transform="scale(0.015625)"/>
     </defs>
     <use xlink:href="#DejaVuSans-Bold-43"/>
     <use xlink:href="#DejaVuSans-Bold-4f" x="73.388672"/>
    </g>
   </g>
   <g id="text_22">
    <!-- CT -->
    <g style="fill: #b0b2b8" transform="translate(148.050133 505.721801) scale(0.07 -0.07)">
     <defs>
      <path id="DejaVuSans-Bold-54" d="M 31 4666 
L 4331 4666 
L 4331 3756 
L 2784 3756 
L 2784 0 
L 1581 0 
L 1581 3756 
L 31 3756 
L 31 4666 
z
" transform="scale(0.015625)"/>
     </defs>
     <use xlink:href="#DejaVuSans-Bold-43"/>
     <use xlink:href="#DejaVuSans-Bold-54" x="73.388672"/>
    </g>
   </g>
   <g id="text_23">
    <!-- ID -->
    <g style="fill: #b0b2b8" transform="translate(267.845273 624.706411) scale(0.07 -0.07)">
     <defs>
      <path id="DejaVuSans-Bold-49" d="M 588 4666 
L 1791 4666 
L 1791 0 
L 588 0 
L 588 4666 
z
" transform="scale(0.015625)"/>
      <path id="DejaVuSans-Bold-44" d="M 1791 3756 
L 1791 909 
L 2222 909 
Q 2959 909 3348 1275 
Q 3738 1641 3738 2338 
Q 3738 3031 3350 3393 
Q 2963 3756 2222 3756 
L 1791 3756 
z
M 588 4666 
L 1856 4666 
Q 2919 4666 3439 4514 
Q 3959 4363 4331 4000 
Q 4659 3684 4818 3271 
Q 4978 2859 4978 2338 
Q 4978 1809 4818 1395 
Q 4659 981 4331 666 
Q 3956 303 3431 151 
Q 2906 0 1856 0 
L 588 0 
L 588 4666 
z
" transform="scale(0.015625)"/>
     </defs>
     <use xlink:href="#DejaVuSans-Bold-49"/>
     <use xlink:href="#DejaVuSans-Bold-44" x="37.207031"/>
    </g>
   </g>
   <g id="text_24">
    <!-- IL -->
    <g style="fill: #b0b2b8" transform="translate(101.943919 676.58352) scale(0.07 -0.07)">
     <defs>
      <path id="DejaVuSans-Bold-4c" d="M 588 4666 
L 1791 4666 
L 1791 909 
L 3903 909 
L 3903 0 
L 588 0 
L 588 4666 
z
" transform="scale(0.015625)"/>
     </defs>
     <use xlink:href="#DejaVuSans-Bold-49"/>
     <use xlink:href="#DejaVuSans-Bold-4c" x="37.207031"/>
    </g>
   </g>
   <g id="text_25">
    <!-- IN -->
    <g style="fill: #b0b2b8" transform="translate(85.492971 675.118628) scale(0.07 -0.07)">
     <defs>
      <path id="DejaVuSans-Bold-4e" d="M 588 4666 
L 1931 4666 
L 3628 1466 
L 3628 4666 
L 4769 4666 
L 4769 0 
L 3425 0 
L 1728 3200 
L 1728 0 
L 588 0 
L 588 4666 
z
" transform="scale(0.015625)"/>
     </defs>
     <use xlink:href="#DejaVuSans-Bold-49"/>
     <use xlink:href="#DejaVuSans-Bold-4e" x="37.207031"/>
    </g>
   </g>
   <g id="text_26">
    <!-- IA -->
    <g style="fill: #b0b2b8" transform="translate(89.866106 664.218112) scale(0.07 -0.07)">
     <use xlink:href="#DejaVuSans-Bold-49"/>
     <use xlink:href="#DejaVuSans-Bold-41" x="37.207031"/>
    </g>
   </g>
   <g id="text_27">
    <!-- ME -->
    <g style="fill: #b0b2b8" transform="translate(200.663947 566.16457) scale(0.07 -0.07)">
     <defs>
      <path id="DejaVuSans-Bold-4d" d="M 588 4666 
L 2119 4666 
L 3181 2169 
L 4250 4666 
L 5778 4666 
L 5778 0 
L 4641 0 
L 4641 3413 
L 3566 897 
L 2803 897 
L 1728 3413 
L 1728 0 
L 588 0 
L 588 4666 
z
" transform="scale(0.015625)"/>
      <path id="DejaVuSans-Bold-45" d="M 588 4666 
L 3834 4666 
L 3834 3756 
L 1791 3756 
L 1791 2888 
L 3713 2888 
L 3713 1978 
L 1791 1978 
L 1791 909 
L 3903 909 
L 3903 0 
L 588 0 
L 588 4666 
z
" transform="scale(0.015625)"/>
     </defs>
     <use xlink:href="#DejaVuSans-Bold-4d"/>
     <use xlink:href="#DejaVuSans-Bold-45" x="99.511719"/>
    </g>
   </g>
   <g id="text_28">
    <!-- MD -->
    <g style="fill: #b0b2b8" transform="translate(75.280069 665.190913) scale(0.07 -0.07)">
     <use xlink:href="#DejaVuSans-Bold-4d"/>
     <use xlink:href="#DejaVuSans-Bold-44" x="99.511719"/>
    </g>
   </g>
   <g id="text_29">
    <!-- MA -->
    <g style="fill: #b0b2b8" transform="translate(222.09553 471.748018) scale(0.07 -0.07)">
     <use xlink:href="#DejaVuSans-Bold-4d"/>
     <use xlink:href="#DejaVuSans-Bold-41" x="99.511719"/>
    </g>
   </g>
   <g id="text_30">
    <!-- MI -->
    <g style="fill: #b0b2b8" transform="translate(470.347866 730.051) scale(0.07 -0.07)">
     <use xlink:href="#DejaVuSans-Bold-4d"/>
     <use xlink:href="#DejaVuSans-Bold-49" x="99.511719"/>
    </g>
   </g>
   <g id="text_31">
    <!-- MN -->
    <g style="fill: #b0b2b8" transform="translate(270.642897 699.83994) scale(0.07 -0.07)">
     <use xlink:href="#DejaVuSans-Bold-4d"/>
     <use xlink:href="#DejaVuSans-Bold-4e" x="99.511719"/>
    </g>
   </g>
   <g id="text_32">
    <!-- MO -->
    <g style="fill: #b0b2b8" transform="translate(71.450232 670.818001) scale(0.07 -0.07)">
     <use xlink:href="#DejaVuSans-Bold-4d"/>
     <use xlink:href="#DejaVuSans-Bold-4f" x="99.511719"/>
    </g>
   </g>
   <g id="text_33">
    <!-- MT -->
    <g style="fill: #254928" transform="translate(290.421881 589.064891) scale(0.07 -0.07)">
     <use xlink:href="#DejaVuSans-Bold-4d"/>
     <use xlink:href="#DejaVuSans-Bold-54" x="99.511719"/>
    </g>
   </g>
   <g id="text_34">
    <!-- NV -->
    <g style="fill: #b0b2b8" transform="translate(111.284144 660.604655) scale(0.07 -0.07)">
     <defs>
      <path id="DejaVuSans-Bold-56" d="M 31 4666 
L 1241 4666 
L 2478 1222 
L 3713 4666 
L 4922 4666 
L 3194 0 
L 1759 0 
L 31 4666 
z
" transform="scale(0.015625)"/>
     </defs>
     <use xlink:href="#DejaVuSans-Bold-4e"/>
     <use xlink:href="#DejaVuSans-Bold-56" x="83.691406"/>
    </g>
   </g>
   <g id="text_35">
    <!-- NH -->
    <g style="fill: #b0b2b8" transform="translate(364.480408 253.157446) scale(0.07 -0.07)">
     <defs>
      <path id="DejaVuSans-Bold-48" d="M 588 4666 
L 1791 4666 
L 1791 2888 
L 3566 2888 
L 3566 4666 
L 4769 4666 
L 4769 0 
L 3566 0 
L 3566 1978 
L 1791 1978 
L 1791 0 
L 588 0 
L 588 4666 
z
" transform="scale(0.015625)"/>
     </defs>
     <use xlink:href="#DejaVuSans-Bold-4e"/>
     <use xlink:href="#DejaVuSans-Bold-48" x="83.691406"/>
    </g>
   </g>
   <g id="text_36">
    <!-- NJ -->
    <g style="fill: #b0b2b8" transform="translate(92.309195 641.6989) scale(0.07 -0.07)">
     <defs>
      <path id="DejaVuSans-Bold-4a" d="M 588 4666 
L 1791 4666 
L 1791 453 
Q 1791 -419 1317 -850 
Q 844 -1281 -116 -1281 
L -359 -1281 
L -359 -372 
L -172 -372 
Q 203 -372 395 -162 
Q 588 47 588 453 
L 588 4666 
z
" transform="scale(0.015625)"/>
     </defs>
     <use xlink:href="#DejaVuSans-Bold-4e"/>
     <use xlink:href="#DejaVuSans-Bold-4a" x="83.691406"/>
    </g>
   </g>
   <g id="text_37">
    <!-- NM -->
    <g style="fill: #b0b2b8" transform="translate(185.829081 625.464018) scale(0.07 -0.07)">
     <use xlink:href="#DejaVuSans-Bold-4e"/>
     <use xlink:href="#DejaVuSans-Bold-4d" x="83.691406"/>
    </g>
   </g>
   <g id="text_38">
    <!-- NY -->
    <g style="fill: #b0b2b8" transform="translate(542.077865 776.662512) scale(0.07 -0.07)">
     <defs>
      <path id="DejaVuSans-Bold-59" d="M -63 4666 
L 1253 4666 
L 2316 3003 
L 3378 4666 
L 4697 4666 
L 2919 1966 
L 2919 0 
L 1716 0 
L 1716 1966 
L -63 4666 
z
" transform="scale(0.015625)"/>
     </defs>
     <use xlink:href="#DejaVuSans-Bold-4e"/>
     <use xlink:href="#DejaVuSans-Bold-59" x="83.691406"/>
    </g>
   </g>
   <g id="text_39">
    <!-- NC -->
    <g style="fill: #b0b2b8" transform="translate(132.519017 677.389352) scale(0.07 -0.07)">
     <use xlink:href="#DejaVuSans-Bold-4e"/>
     <use xlink:href="#DejaVuSans-Bold-43" x="83.691406"/>
    </g>
   </g>
   <g id="text_40">
    <!-- OH -->
    <g style="fill: #b0b2b8" transform="translate(134.492616 684.650969) scale(0.07 -0.07)">
     <use xlink:href="#DejaVuSans-Bold-4f"/>
     <use xlink:href="#DejaVuSans-Bold-48" x="85.009766"/>
    </g>
   </g>
   <g id="text_41">
    <!-- OR -->
    <g style="fill: #b0b2b8" transform="translate(255.156625 732.980789) scale(0.07 -0.07)">
     <defs>
      <path id="DejaVuSans-Bold-52" d="M 2297 2597 
Q 2675 2597 2839 2737 
Q 3003 2878 3003 3200 
Q 3003 3519 2839 3656 
Q 2675 3794 2297 3794 
L 1791 3794 
L 1791 2597 
L 2297 2597 
z
M 1791 1766 
L 1791 0 
L 588 0 
L 588 4666 
L 2425 4666 
Q 3347 4666 3776 4356 
Q 4206 4047 4206 3378 
Q 4206 2916 3982 2619 
Q 3759 2322 3309 2181 
Q 3556 2125 3751 1926 
Q 3947 1728 4147 1325 
L 4800 0 
L 3519 0 
L 2950 1159 
Q 2778 1509 2601 1637 
Q 2425 1766 2131 1766 
L 1791 1766 
z
" transform="scale(0.015625)"/>
     </defs>
     <use xlink:href="#DejaVuSans-Bold-4f"/>
     <use xlink:href="#DejaVuSans-Bold-52" x="85.009766"/>
    </g>
   </g>
   <g id="text_42">
    <!-- PA -->
    <g style="fill: #b0b2b8" transform="translate(340.686073 714.094883) scale(0.07 -0.07)">
     <use xlink:href="#DejaVuSans-Bold-50"/>
     <use xlink:href="#DejaVuSans-Bold-41" x="64.166016"/>
    </g>
   </g>
   <g id="text_43">
    <!-- RI -->
    <g style="fill: #b0b2b8" transform="translate(95.605417 503.877454) scale(0.07 -0.07)">
     <use xlink:href="#DejaVuSans-Bold-52"/>
     <use xlink:href="#DejaVuSans-Bold-49" x="77.001953"/>
    </g>
   </g>
   <g id="text_44">
    <!-- SD -->
    <g style="fill: #b0b2b8" transform="translate(83.908143 639.844918) scale(0.07 -0.07)">
     <defs>
      <path id="DejaVuSans-Bold-53" d="M 3834 4519 
L 3834 3531 
Q 3450 3703 3084 3790 
Q 2719 3878 2394 3878 
Q 1963 3878 1756 3759 
Q 1550 3641 1550 3391 
Q 1550 3203 1689 3098 
Q 1828 2994 2194 2919 
L 2706 2816 
Q 3484 2659 3812 2340 
Q 4141 2022 4141 1434 
Q 4141 663 3683 286 
Q 3225 -91 2284 -91 
Q 1841 -91 1394 -6 
Q 947 78 500 244 
L 500 1259 
Q 947 1022 1364 901 
Q 1781 781 2169 781 
Q 2563 781 2772 912 
Q 2981 1044 2981 1288 
Q 2981 1506 2839 1625 
Q 2697 1744 2272 1838 
L 1806 1941 
Q 1106 2091 782 2419 
Q 459 2747 459 3303 
Q 459 4000 909 4375 
Q 1359 4750 2203 4750 
Q 2588 4750 2994 4692 
Q 3400 4634 3834 4519 
z
" transform="scale(0.015625)"/>
     </defs>
     <use xlink:href="#DejaVuSans-Bold-53"/>
     <use xlink:href="#DejaVuSans-Bold-44" x="72.021484"/>
    </g>
   </g>
   <g id="text_45">
    <!-- TN -->
    <g style="fill: #b0b2b8" transform="translate(64.918574 670.398398) scale(0.07 -0.07)">
     <use xlink:href="#DejaVuSans-Bold-54"/>
     <use xlink:href="#DejaVuSans-Bold-4e" x="68.212891"/>
    </g>
   </g>
   <g id="text_46">
    <!-- UT -->
    <g style="fill: #b0b2b8" transform="translate(319.405938 710.518485) scale(0.07 -0.07)">
     <defs>
      <path id="DejaVuSans-Bold-55" d="M 588 4666 
L 1791 4666 
L 1791 1869 
Q 1791 1291 1980 1042 
Q 2169 794 2597 794 
Q 3028 794 3217 1042 
Q 3406 1291 3406 1869 
L 3406 4666 
L 4609 4666 
L 4609 1869 
Q 4609 878 4112 393 
Q 3616 -91 2597 -91 
Q 1581 -91 1084 393 
Q 588 878 588 1869 
L 588 4666 
z
" transform="scale(0.015625)"/>
     </defs>
     <use xlink:href="#DejaVuSans-Bold-55"/>
     <use xlink:href="#DejaVuSans-Bold-54" x="81.201172"/>
    </g>
   </g>
   <g id="text_47">
    <!-- VT -->
    <g style="fill: #b0b2b8" transform="translate(392.773711 69.828764) scale(0.07 -0.07)">
     <use xlink:href="#DejaVuSans-Bold-56"/>
     <use xlink:href="#DejaVuSans-Bold-54" x="77.392578"/>
    </g>
   </g>
   <g id="text_48">
    <!-- VA -->
    <g style="fill: #b0b2b8" transform="translate(102.552946 666.531314) scale(0.07 -0.07)">
     <use xlink:href="#DejaVuSans-Bold-56"/>
     <use xlink:href="#DejaVuSans-Bold-41" x="70.642578"/>
    </g>
   </g>
   <g id="text_49">
    <!-- WA -->
    <g style="fill: #b0b2b8" transform="translate(284.352474 801.119673) scale(0.07 -0.07)">
     <defs>
      <path id="DejaVuSans-Bold-57" d="M 191 4666 
L 1344 4666 
L 2150 1275 
L 2950 4666 
L 4109 4666 
L 4909 1275 
L 5716 4666 
L 6859 4666 
L 5759 0 
L 4372 0 
L 3525 3547 
L 2688 0 
L 1300 0 
L 191 4666 
z
" transform="scale(0.015625)"/>
     </defs>
     <use xlink:href="#DejaVuSans-Bold-57"/>
     <use xlink:href="#DejaVuSans-Bold-41" x="105.802734"/>
    </g>
   </g>
   <g id="text_50">
    <!-- WV -->
    <g style="fill: #b0b2b8" transform="translate(116.60768 631.723559) scale(0.07 -0.07)">
     <use xlink:href="#DejaVuSans-Bold-57"/>
     <use xlink:href="#DejaVuSans-Bold-56" x="110.302734"/>
    </g>
   </g>
   <g id="text_51">
    <!-- WI -->
    <g style="fill: #b0b2b8" transform="translate(299.104084 687.97797) scale(0.07 -0.07)">
     <use xlink:href="#DejaVuSans-Bold-57"/>
     <use xlink:href="#DejaVuSans-Bold-49" x="110.302734"/>
    </g>
   </g>
   <g id="text_52">
    <!-- WY -->
    <g style="fill: #b0b2b8" transform="translate(195.236473 473.23437) scale(0.07 -0.07)">
     <use xlink:href="#DejaVuSans-Bold-57"/>
     <use xlink:href="#DejaVuSans-Bold-59" x="110.302734"/>
    </g>
   </g>
   <g id="patch_3">
    <path d="M 38.37 829.14 
L 38.37 24.72 
" style="fill: none; stroke: #bcbcbc; stroke-width: 0.8; stroke-linejoin: miter; stroke-linecap: square"/>
   </g>
   <g id="patch_4">
    <path d="M 563.406439 829.14 
L 563.406439 24.72 
" style="fill: none; stroke: #bcbcbc; stroke-width: 0.8; stroke-linejoin: miter; stroke-linecap: square"/>
   </g>
   <g id="patch_5">
    <path d="M 38.37 829.14 
L 563.406439 829.14 
" style="fill: none; stroke: #bcbcbc; stroke-width: 0.8; stroke-linejoin: miter; stroke-linecap: square"/>
   </g>
   <g id="patch_6">
    <path d="M 38.37 24.72 
L 563.406439 24.72 
" style="fill: none; stroke: #bcbcbc; stroke-width: 0.8; stroke-linejoin: miter; stroke-linecap: square"/>
   </g>
   <g id="text_53">
    <!-- Ski states summary PCA, 76.2% variance explained -->
    <g transform="translate(156.080407 18.72) scale(0.1 -0.1)">
     <defs>
      <path id="DejaVuSans-Bold-6b" d="M 538 4863 
L 1656 4863 
L 1656 2216 
L 2944 3500 
L 4244 3500 
L 2534 1894 
L 4378 0 
L 3022 0 
L 1656 1459 
L 1656 0 
L 538 0 
L 538 4863 
z
" transform="scale(0.015625)"/>
      <path id="DejaVuSans-Bold-69" d="M 538 3500 
L 1656 3500 
L 1656 0 
L 538 0 
L 538 3500 
z
M 538 4863 
L 1656 4863 
L 1656 3950 
L 538 3950 
L 538 4863 
z
" transform="scale(0.015625)"/>
      <path id="DejaVuSans-Bold-20" transform="scale(0.015625)"/>
      <path id="DejaVuSans-Bold-73" d="M 3272 3391 
L 3272 2541 
Q 2913 2691 2578 2766 
Q 2244 2841 1947 2841 
Q 1628 2841 1473 2761 
Q 1319 2681 1319 2516 
Q 1319 2381 1436 2309 
Q 1553 2238 1856 2203 
L 2053 2175 
Q 2913 2066 3209 1816 
Q 3506 1566 3506 1031 
Q 3506 472 3093 190 
Q 2681 -91 1863 -91 
Q 1516 -91 1145 -36 
Q 775 19 384 128 
L 384 978 
Q 719 816 1070 734 
Q 1422 653 1784 653 
Q 2113 653 2278 743 
Q 2444 834 2444 1013 
Q 2444 1163 2330 1236 
Q 2216 1309 1875 1350 
L 1678 1375 
Q 931 1469 631 1722 
Q 331 1975 331 2491 
Q 331 3047 712 3315 
Q 1094 3584 1881 3584 
Q 2191 3584 2531 3537 
Q 2872 3491 3272 3391 
z
" transform="scale(0.015625)"/>
      <path id="DejaVuSans-Bold-74" d="M 1759 4494 
L 1759 3500 
L 2913 3500 
L 2913 2700 
L 1759 2700 
L 1759 1216 
Q 1759 972 1856 886 
Q 1953 800 2241 800 
L 2816 800 
L 2816 0 
L 1856 0 
Q 1194 0 917 276 
Q 641 553 641 1216 
L 641 2700 
L 84 2700 
L 84 3500 
L 641 3500 
L 641 4494 
L 1759 4494 
z
" transform="scale(0.015625)"/>
      <path id="DejaVuSans-Bold-61" d="M 2106 1575 
Q 1756 1575 1579 1456 
Q 1403 1338 1403 1106 
Q 1403 894 1545 773 
Q 1688 653 1941 653 
Q 2256 653 2472 879 
Q 2688 1106 2688 1447 
L 2688 1575 
L 2106 1575 
z
M 3816 1997 
L 3816 0 
L 2688 0 
L 2688 519 
Q 2463 200 2181 54 
Q 1900 -91 1497 -91 
Q 953 -91 614 226 
Q 275 544 275 1050 
Q 275 1666 698 1953 
Q 1122 2241 2028 2241 
L 2688 2241 
L 2688 2328 
Q 2688 2594 2478 2717 
Q 2269 2841 1825 2841 
Q 1466 2841 1156 2769 
Q 847 2697 581 2553 
L 581 3406 
Q 941 3494 1303 3539 
Q 1666 3584 2028 3584 
Q 2975 3584 3395 3211 
Q 3816 2838 3816 1997 
z
" transform="scale(0.015625)"/>
      <path id="DejaVuSans-Bold-65" d="M 4031 1759 
L 4031 1441 
L 1416 1441 
Q 1456 1047 1700 850 
Q 1944 653 2381 653 
Q 2734 653 3104 758 
Q 3475 863 3866 1075 
L 3866 213 
Q 3469 63 3072 -14 
Q 2675 -91 2278 -91 
Q 1328 -91 801 392 
Q 275 875 275 1747 
Q 275 2603 792 3093 
Q 1309 3584 2216 3584 
Q 3041 3584 3536 3087 
Q 4031 2591 4031 1759 
z
M 2881 2131 
Q 2881 2450 2695 2645 
Q 2509 2841 2209 2841 
Q 1884 2841 1681 2658 
Q 1478 2475 1428 2131 
L 2881 2131 
z
" transform="scale(0.015625)"/>
      <path id="DejaVuSans-Bold-75" d="M 500 1363 
L 500 3500 
L 1625 3500 
L 1625 3150 
Q 1625 2866 1622 2436 
Q 1619 2006 1619 1863 
Q 1619 1441 1641 1255 
Q 1663 1069 1716 984 
Q 1784 875 1895 815 
Q 2006 756 2150 756 
Q 2500 756 2700 1025 
Q 2900 1294 2900 1772 
L 2900 3500 
L 4019 3500 
L 4019 0 
L 2900 0 
L 2900 506 
Q 2647 200 2364 54 
Q 2081 -91 1741 -91 
Q 1134 -91 817 281 
Q 500 653 500 1363 
z
" transform="scale(0.015625)"/>
      <path id="DejaVuSans-Bold-6d" d="M 3781 2919 
Q 3994 3244 4286 3414 
Q 4578 3584 4928 3584 
Q 5531 3584 5847 3212 
Q 6163 2841 6163 2131 
L 6163 0 
L 5038 0 
L 5038 1825 
Q 5041 1866 5042 1909 
Q 5044 1953 5044 2034 
Q 5044 2406 4934 2573 
Q 4825 2741 4581 2741 
Q 4263 2741 4089 2478 
Q 3916 2216 3909 1719 
L 3909 0 
L 2784 0 
L 2784 1825 
Q 2784 2406 2684 2573 
Q 2584 2741 2328 2741 
Q 2006 2741 1831 2477 
Q 1656 2213 1656 1722 
L 1656 0 
L 531 0 
L 531 3500 
L 1656 3500 
L 1656 2988 
Q 1863 3284 2130 3434 
Q 2397 3584 2719 3584 
Q 3081 3584 3359 3409 
Q 3638 3234 3781 2919 
z
" transform="scale(0.015625)"/>
      <path id="DejaVuSans-Bold-72" d="M 3138 2547 
Q 2991 2616 2845 2648 
Q 2700 2681 2553 2681 
Q 2122 2681 1889 2404 
Q 1656 2128 1656 1613 
L 1656 0 
L 538 0 
L 538 3500 
L 1656 3500 
L 1656 2925 
Q 1872 3269 2151 3426 
Q 2431 3584 2822 3584 
Q 2878 3584 2943 3579 
Q 3009 3575 3134 3559 
L 3138 2547 
z
" transform="scale(0.015625)"/>
      <path id="DejaVuSans-Bold-79" d="M 78 3500 
L 1197 3500 
L 2138 1125 
L 2938 3500 
L 4056 3500 
L 2584 -331 
Q 2363 -916 2067 -1148 
Q 1772 -1381 1288 -1381 
L 641 -1381 
L 641 -647 
L 991 -647 
Q 1275 -647 1404 -556 
Q 1534 -466 1606 -231 
L 1638 -134 
L 78 3500 
z
" transform="scale(0.015625)"/>
      <path id="DejaVuSans-Bold-2c" d="M 653 1209 
L 1778 1209 
L 1778 256 
L 1006 -909 
L 341 -909 
L 653 256 
L 653 1209 
z
" transform="scale(0.015625)"/>
      <path id="DejaVuSans-Bold-37" d="M 428 4666 
L 3944 4666 
L 3944 3988 
L 2125 0 
L 953 0 
L 2675 3781 
L 428 3781 
L 428 4666 
z
" transform="scale(0.015625)"/>
      <path id="DejaVuSans-Bold-36" d="M 2316 2303 
Q 2000 2303 1842 2098 
Q 1684 1894 1684 1484 
Q 1684 1075 1842 870 
Q 2000 666 2316 666 
Q 2634 666 2792 870 
Q 2950 1075 2950 1484 
Q 2950 1894 2792 2098 
Q 2634 2303 2316 2303 
z
M 3803 4544 
L 3803 3681 
Q 3506 3822 3243 3889 
Q 2981 3956 2731 3956 
Q 2194 3956 1894 3657 
Q 1594 3359 1544 2772 
Q 1750 2925 1990 3001 
Q 2231 3078 2516 3078 
Q 3231 3078 3670 2659 
Q 4109 2241 4109 1563 
Q 4109 813 3618 361 
Q 3128 -91 2303 -91 
Q 1394 -91 895 523 
Q 397 1138 397 2266 
Q 397 3422 980 4083 
Q 1563 4744 2578 4744 
Q 2900 4744 3203 4694 
Q 3506 4644 3803 4544 
z
" transform="scale(0.015625)"/>
      <path id="DejaVuSans-Bold-2e" d="M 653 1209 
L 1778 1209 
L 1778 0 
L 653 0 
L 653 1209 
z
" transform="scale(0.015625)"/>
      <path id="DejaVuSans-Bold-25" d="M 4959 1925 
Q 4738 1925 4616 1733 
Q 4494 1541 4494 1184 
Q 4494 825 4614 633 
Q 4734 441 4959 441 
Q 5184 441 5303 633 
Q 5422 825 5422 1184 
Q 5422 1541 5301 1733 
Q 5181 1925 4959 1925 
z
M 4959 2450 
Q 5541 2450 5875 2112 
Q 6209 1775 6209 1184 
Q 6209 594 5875 251 
Q 5541 -91 4959 -91 
Q 4378 -91 4042 251 
Q 3706 594 3706 1184 
Q 3706 1772 4042 2111 
Q 4378 2450 4959 2450 
z
M 2094 -91 
L 1403 -91 
L 4319 4750 
L 5013 4750 
L 2094 -91 
z
M 1453 4750 
Q 2034 4750 2367 4411 
Q 2700 4072 2700 3481 
Q 2700 2891 2367 2550 
Q 2034 2209 1453 2209 
Q 872 2209 539 2550 
Q 206 2891 206 3481 
Q 206 4072 539 4411 
Q 872 4750 1453 4750 
z
M 1453 4225 
Q 1228 4225 1106 4031 
Q 984 3838 984 3481 
Q 984 3122 1106 2926 
Q 1228 2731 1453 2731 
Q 1678 2731 1798 2926 
Q 1919 3122 1919 3481 
Q 1919 3838 1797 4031 
Q 1675 4225 1453 4225 
z
" transform="scale(0.015625)"/>
      <path id="DejaVuSans-Bold-76" d="M 97 3500 
L 1216 3500 
L 2088 1081 
L 2956 3500 
L 4078 3500 
L 2700 0 
L 1472 0 
L 97 3500 
z
" transform="scale(0.015625)"/>
      <path id="DejaVuSans-Bold-6e" d="M 4056 2131 
L 4056 0 
L 2931 0 
L 2931 347 
L 2931 1631 
Q 2931 2084 2911 2256 
Q 2891 2428 2841 2509 
Q 2775 2619 2662 2680 
Q 2550 2741 2406 2741 
Q 2056 2741 1856 2470 
Q 1656 2200 1656 1722 
L 1656 0 
L 538 0 
L 538 3500 
L 1656 3500 
L 1656 2988 
Q 1909 3294 2193 3439 
Q 2478 3584 2822 3584 
Q 3428 3584 3742 3212 
Q 4056 2841 4056 2131 
z
" transform="scale(0.015625)"/>
      <path id="DejaVuSans-Bold-63" d="M 3366 3391 
L 3366 2478 
Q 3138 2634 2908 2709 
Q 2678 2784 2431 2784 
Q 1963 2784 1702 2511 
Q 1441 2238 1441 1747 
Q 1441 1256 1702 982 
Q 1963 709 2431 709 
Q 2694 709 2930 787 
Q 3166 866 3366 1019 
L 3366 103 
Q 3103 6 2833 -42 
Q 2563 -91 2291 -91 
Q 1344 -91 809 395 
Q 275 881 275 1747 
Q 275 2613 809 3098 
Q 1344 3584 2291 3584 
Q 2566 3584 2833 3536 
Q 3100 3488 3366 3391 
z
" transform="scale(0.015625)"/>
      <path id="DejaVuSans-Bold-78" d="M 1422 1791 
L 159 3500 
L 1344 3500 
L 2059 2463 
L 2784 3500 
L 3969 3500 
L 2706 1797 
L 4031 0 
L 2847 0 
L 2059 1106 
L 1281 0 
L 97 0 
L 1422 1791 
z
" transform="scale(0.015625)"/>
      <path id="DejaVuSans-Bold-70" d="M 1656 506 
L 1656 -1331 
L 538 -1331 
L 538 3500 
L 1656 3500 
L 1656 2988 
Q 1888 3294 2169 3439 
Q 2450 3584 2816 3584 
Q 3463 3584 3878 3070 
Q 4294 2556 4294 1747 
Q 4294 938 3878 423 
Q 3463 -91 2816 -91 
Q 2450 -91 2169 54 
Q 1888 200 1656 506 
z
M 2400 2772 
Q 2041 2772 1848 2508 
Q 1656 2244 1656 1747 
Q 1656 1250 1848 986 
Q 2041 722 2400 722 
Q 2759 722 2948 984 
Q 3138 1247 3138 1747 
Q 3138 2247 2948 2509 
Q 2759 2772 2400 2772 
z
" transform="scale(0.015625)"/>
      <path id="DejaVuSans-Bold-6c" d="M 538 4863 
L 1656 4863 
L 1656 0 
L 538 0 
L 538 4863 
z
" transform="scale(0.015625)"/>
      <path id="DejaVuSans-Bold-64" d="M 2919 2988 
L 2919 4863 
L 4044 4863 
L 4044 0 
L 2919 0 
L 2919 506 
Q 2688 197 2409 53 
Q 2131 -91 1766 -91 
Q 1119 -91 703 423 
Q 288 938 288 1747 
Q 288 2556 703 3070 
Q 1119 3584 1766 3584 
Q 2128 3584 2408 3439 
Q 2688 3294 2919 2988 
z
M 2181 722 
Q 2541 722 2730 984 
Q 2919 1247 2919 1747 
Q 2919 2247 2730 2509 
Q 2541 2772 2181 2772 
Q 1825 2772 1636 2509 
Q 1447 2247 1447 1747 
Q 1447 1247 1636 984 
Q 1825 722 2181 722 
z
" transform="scale(0.015625)"/>
     </defs>
     <use xlink:href="#DejaVuSans-Bold-53"/>
     <use xlink:href="#DejaVuSans-Bold-6b" x="72.021484"/>
     <use xlink:href="#DejaVuSans-Bold-69" x="138.525391"/>
     <use xlink:href="#DejaVuSans-Bold-20" x="172.802734"/>
     <use xlink:href="#DejaVuSans-Bold-73" x="207.617188"/>
     <use xlink:href="#DejaVuSans-Bold-74" x="267.138672"/>
     <use xlink:href="#DejaVuSans-Bold-61" x="314.941406"/>
     <use xlink:href="#DejaVuSans-Bold-74" x="382.421875"/>
     <use xlink:href="#DejaVuSans-Bold-65" x="430.224609"/>
     <use xlink:href="#DejaVuSans-Bold-73" x="498.046875"/>
     <use xlink:href="#DejaVuSans-Bold-20" x="557.568359"/>
     <use xlink:href="#DejaVuSans-Bold-73" x="592.382812"/>
     <use xlink:href="#DejaVuSans-Bold-75" x="651.904297"/>
     <use xlink:href="#DejaVuSans-Bold-6d" x="723.095703"/>
     <use xlink:href="#DejaVuSans-Bold-6d" x="827.294922"/>
     <use xlink:href="#DejaVuSans-Bold-61" x="931.494141"/>
     <use xlink:href="#DejaVuSans-Bold-72" x="998.974609"/>
     <use xlink:href="#DejaVuSans-Bold-79" x="1048.291016"/>
     <use xlink:href="#DejaVuSans-Bold-20" x="1113.476562"/>
     <use xlink:href="#DejaVuSans-Bold-50" x="1148.291016"/>
     <use xlink:href="#DejaVuSans-Bold-43" x="1221.582031"/>
     <use xlink:href="#DejaVuSans-Bold-41" x="1294.970703"/>
     <use xlink:href="#DejaVuSans-Bold-2c" x="1374.238281"/>
     <use xlink:href="#DejaVuSans-Bold-20" x="1412.226562"/>
     <use xlink:href="#DejaVuSans-Bold-37" x="1447.041016"/>
     <use xlink:href="#DejaVuSans-Bold-36" x="1516.621094"/>
     <use xlink:href="#DejaVuSans-Bold-2e" x="1586.201172"/>
     <use xlink:href="#DejaVuSans-Bold-32" x="1624.189453"/>
     <use xlink:href="#DejaVuSans-Bold-25" x="1693.769531"/>
     <use xlink:href="#DejaVuSans-Bold-20" x="1793.964844"/>
     <use xlink:href="#DejaVuSans-Bold-76" x="1828.779297"/>
     <use xlink:href="#DejaVuSans-Bold-61" x="1893.964844"/>
     <use xlink:href="#DejaVuSans-Bold-72" x="1961.445312"/>
     <use xlink:href="#DejaVuSans-Bold-69" x="2010.761719"/>
     <use xlink:href="#DejaVuSans-Bold-61" x="2045.039062"/>
     <use xlink:href="#DejaVuSans-Bold-6e" x="2112.519531"/>
     <use xlink:href="#DejaVuSans-Bold-63" x="2183.710938"/>
     <use xlink:href="#DejaVuSans-Bold-65" x="2242.988281"/>
     <use xlink:href="#DejaVuSans-Bold-20" x="2310.810547"/>
     <use xlink:href="#DejaVuSans-Bold-65" x="2345.625"/>
     <use xlink:href="#DejaVuSans-Bold-78" x="2413.447266"/>
     <use xlink:href="#DejaVuSans-Bold-70" x="2477.949219"/>
     <use xlink:href="#DejaVuSans-Bold-6c" x="2549.53125"/>
     <use xlink:href="#DejaVuSans-Bold-61" x="2583.808594"/>
     <use xlink:href="#DejaVuSans-Bold-69" x="2651.289062"/>
     <use xlink:href="#DejaVuSans-Bold-6e" x="2685.566406"/>
     <use xlink:href="#DejaVuSans-Bold-65" x="2756.757812"/>
     <use xlink:href="#DejaVuSans-Bold-64" x="2824.580078"/>
    </g>
   </g>
   <g id="legend_1">
    <g id="patch_7">
     <path d="M 458.642377 208.8575 
L 556.406439 208.8575 
Q 558.406439 208.8575 558.406439 206.8575 
L 558.406439 31.72 
Q 558.406439 29.72 556.406439 29.72 
L 458.642377 29.72 
Q 456.642377 29.72 456.642377 31.72 
L 456.642377 206.8575 
Q 456.642377 208.8575 458.642377 208.8575 
z
" style="fill: #eeeeee; opacity: 0.8; stroke: #cccccc; stroke-width: 0.5; stroke-linejoin: miter"/>
    </g>
    <g id="text_54">
     <!-- Quartile -->
     <g transform="translate(468.642377 41.318437) scale(0.1 -0.1)">
      <defs>
       <path id="DejaVuSans-Bold-51" d="M 2847 -84 
L 2753 -84 
Q 1600 -84 959 553 
Q 319 1191 319 2328 
Q 319 3463 958 4106 
Q 1597 4750 2719 4750 
Q 3853 4750 4486 4112 
Q 5119 3475 5119 2328 
Q 5119 1541 4783 972 
Q 4447 403 3816 116 
L 4756 -934 
L 3609 -934 
L 2847 -84 
z
M 2719 3878 
Q 2169 3878 1866 3472 
Q 1563 3066 1563 2328 
Q 1563 1578 1859 1179 
Q 2156 781 2719 781 
Q 3272 781 3575 1187 
Q 3878 1594 3878 2328 
Q 3878 3066 3575 3472 
Q 3272 3878 2719 3878 
z
" transform="scale(0.015625)"/>
      </defs>
      <use xlink:href="#DejaVuSans-Bold-51"/>
      <use xlink:href="#DejaVuSans-Bold-75" x="85.009766"/>
      <use xlink:href="#DejaVuSans-Bold-61" x="156.201172"/>
      <use xlink:href="#DejaVuSans-Bold-72" x="223.681641"/>
      <use xlink:href="#DejaVuSans-Bold-74" x="272.998047"/>
      <use xlink:href="#DejaVuSans-Bold-69" x="320.800781"/>
      <use xlink:href="#DejaVuSans-Bold-6c" x="355.078125"/>
      <use xlink:href="#DejaVuSans-Bold-65" x="389.355469"/>
     </g>
    </g>
    <g id="PathCollection_12">
     <defs>
      <path id="m501a7ded3a" d="M 0 3 
C 0.795609 3 1.55874 2.683901 2.12132 2.12132 
C 2.683901 1.55874 3 0.795609 3 0 
C 3 -0.795609 2.683901 -1.55874 2.12132 -2.12132 
C 1.55874 -2.683901 0.795609 -3 0 -3 
C -0.795609 -3 -1.55874 -2.683901 -2.12132 -2.12132 
C -2.683901 -1.55874 -3 -0.795609 -3 0 
C -3 0.795609 -2.683901 1.55874 -2.12132 2.12132 
C -1.55874 2.683901 -0.795609 3 0 3 
z
" style="stroke: #254928; stroke-width: 0.5"/>
     </defs>
     <g>
      <use xlink:href="#m501a7ded3a" x="470.642377" y="53.371562" style="fill: #254928; stroke: #254928; stroke-width: 0.5"/>
     </g>
    </g>
    <g id="text_55">
     <!-- (41.6, 53.1] -->
     <g transform="translate(488.642377 55.996562) scale(0.1 -0.1)">
      <defs>
       <path id="DejaVuSans-Bold-28" d="M 2413 -844 
L 1484 -844 
Q 1006 -72 778 623 
Q 550 1319 550 2003 
Q 550 2688 779 3389 
Q 1009 4091 1484 4856 
L 2413 4856 
Q 2013 4116 1813 3408 
Q 1613 2700 1613 2009 
Q 1613 1319 1811 609 
Q 2009 -100 2413 -844 
z
" transform="scale(0.015625)"/>
       <path id="DejaVuSans-Bold-5d" d="M 2375 -844 
L 434 -844 
L 434 -141 
L 1313 -141 
L 1313 4159 
L 434 4159 
L 434 4863 
L 2375 4863 
L 2375 -844 
z
" transform="scale(0.015625)"/>
      </defs>
      <use xlink:href="#DejaVuSans-Bold-28"/>
      <use xlink:href="#DejaVuSans-Bold-34" x="45.703125"/>
      <use xlink:href="#DejaVuSans-Bold-31" x="115.283203"/>
      <use xlink:href="#DejaVuSans-Bold-2e" x="184.863281"/>
      <use xlink:href="#DejaVuSans-Bold-36" x="222.851562"/>
      <use xlink:href="#DejaVuSans-Bold-2c" x="292.431641"/>
      <use xlink:href="#DejaVuSans-Bold-20" x="330.419922"/>
      <use xlink:href="#DejaVuSans-Bold-35" x="365.234375"/>
      <use xlink:href="#DejaVuSans-Bold-33" x="434.814453"/>
      <use xlink:href="#DejaVuSans-Bold-2e" x="504.394531"/>
      <use xlink:href="#DejaVuSans-Bold-31" x="542.382812"/>
      <use xlink:href="#DejaVuSans-Bold-5d" x="611.962891"/>
     </g>
    </g>
    <g id="PathCollection_13">
     <defs>
      <path id="mcef04ba6d3" d="M 0 3 
C 0.795609 3 1.55874 2.683901 2.12132 2.12132 
C 2.683901 1.55874 3 0.795609 3 0 
C 3 -0.795609 2.683901 -1.55874 2.12132 -2.12132 
C 1.55874 -2.683901 0.795609 -3 0 -3 
C -0.795609 -3 -1.55874 -2.683901 -2.12132 -2.12132 
C -2.683901 -1.55874 -3 -0.795609 -3 0 
C -3 0.795609 -2.683901 1.55874 -2.12132 2.12132 
C -1.55874 2.683901 -0.795609 3 0 3 
z
" style="stroke: #b0b2b8; stroke-width: 0.5"/>
     </defs>
     <g>
      <use xlink:href="#mcef04ba6d3" x="470.642377" y="68.049687" style="fill: #b0b2b8; stroke: #b0b2b8; stroke-width: 0.5"/>
     </g>
    </g>
    <g id="text_56">
     <!-- (53.1, 60.4] -->
     <g transform="translate(488.642377 70.674687) scale(0.1 -0.1)">
      <use xlink:href="#DejaVuSans-Bold-28"/>
      <use xlink:href="#DejaVuSans-Bold-35" x="45.703125"/>
      <use xlink:href="#DejaVuSans-Bold-33" x="115.283203"/>
      <use xlink:href="#DejaVuSans-Bold-2e" x="184.863281"/>
      <use xlink:href="#DejaVuSans-Bold-31" x="222.851562"/>
      <use xlink:href="#DejaVuSans-Bold-2c" x="292.431641"/>
      <use xlink:href="#DejaVuSans-Bold-20" x="330.419922"/>
      <use xlink:href="#DejaVuSans-Bold-36" x="365.234375"/>
      <use xlink:href="#DejaVuSans-Bold-30" x="434.814453"/>
      <use xlink:href="#DejaVuSans-Bold-2e" x="504.394531"/>
      <use xlink:href="#DejaVuSans-Bold-34" x="542.382812"/>
      <use xlink:href="#DejaVuSans-Bold-5d" x="611.962891"/>
     </g>
    </g>
    <g id="PathCollection_14">
     <defs>
      <path id="m6c8e999053" d="M 0 3 
C 0.795609 3 1.55874 2.683901 2.12132 2.12132 
C 2.683901 1.55874 3 0.795609 3 0 
C 3 -0.795609 2.683901 -1.55874 2.12132 -2.12132 
C 1.55874 -2.683901 0.795609 -3 0 -3 
C -0.795609 -3 -1.55874 -2.683901 -2.12132 -2.12132 
C -2.683901 -1.55874 -3 -0.795609 -3 0 
C -3 0.795609 -2.683901 1.55874 -2.12132 2.12132 
C -1.55874 2.683901 -0.795609 3 0 3 
z
" style="stroke: #76a8d9; stroke-width: 0.5"/>
     </defs>
     <g>
      <use xlink:href="#m6c8e999053" x="470.642377" y="82.727812" style="fill: #76a8d9; stroke: #76a8d9; stroke-width: 0.5"/>
     </g>
    </g>
    <g id="text_57">
     <!-- (60.4, 78.4] -->
     <g transform="translate(488.642377 85.352812) scale(0.1 -0.1)">
      <defs>
       <path id="DejaVuSans-Bold-38" d="M 2228 2088 
Q 1891 2088 1709 1903 
Q 1528 1719 1528 1375 
Q 1528 1031 1709 848 
Q 1891 666 2228 666 
Q 2563 666 2741 848 
Q 2919 1031 2919 1375 
Q 2919 1722 2741 1905 
Q 2563 2088 2228 2088 
z
M 1350 2484 
Q 925 2613 709 2878 
Q 494 3144 494 3541 
Q 494 4131 934 4440 
Q 1375 4750 2228 4750 
Q 3075 4750 3515 4442 
Q 3956 4134 3956 3541 
Q 3956 3144 3739 2878 
Q 3522 2613 3097 2484 
Q 3572 2353 3814 2058 
Q 4056 1763 4056 1313 
Q 4056 619 3595 264 
Q 3134 -91 2228 -91 
Q 1319 -91 855 264 
Q 391 619 391 1313 
Q 391 1763 633 2058 
Q 875 2353 1350 2484 
z
M 1631 3419 
Q 1631 3141 1786 2991 
Q 1941 2841 2228 2841 
Q 2509 2841 2662 2991 
Q 2816 3141 2816 3419 
Q 2816 3697 2662 3845 
Q 2509 3994 2228 3994 
Q 1941 3994 1786 3844 
Q 1631 3694 1631 3419 
z
" transform="scale(0.015625)"/>
      </defs>
      <use xlink:href="#DejaVuSans-Bold-28"/>
      <use xlink:href="#DejaVuSans-Bold-36" x="45.703125"/>
      <use xlink:href="#DejaVuSans-Bold-30" x="115.283203"/>
      <use xlink:href="#DejaVuSans-Bold-2e" x="184.863281"/>
      <use xlink:href="#DejaVuSans-Bold-34" x="222.851562"/>
      <use xlink:href="#DejaVuSans-Bold-2c" x="292.431641"/>
      <use xlink:href="#DejaVuSans-Bold-20" x="330.419922"/>
      <use xlink:href="#DejaVuSans-Bold-37" x="365.234375"/>
      <use xlink:href="#DejaVuSans-Bold-38" x="434.814453"/>
      <use xlink:href="#DejaVuSans-Bold-2e" x="504.394531"/>
      <use xlink:href="#DejaVuSans-Bold-34" x="542.382812"/>
      <use xlink:href="#DejaVuSans-Bold-5d" x="611.962891"/>
     </g>
    </g>
    <g id="PathCollection_15">
     <defs>
      <path id="m2c5ebfb151" d="M 0 3 
C 0.795609 3 1.55874 2.683901 2.12132 2.12132 
C 2.683901 1.55874 3 0.795609 3 0 
C 3 -0.795609 2.683901 -1.55874 2.12132 -2.12132 
C 1.55874 -2.683901 0.795609 -3 0 -3 
C -0.795609 -3 -1.55874 -2.683901 -2.12132 -2.12132 
C -2.683901 -1.55874 -3 -0.795609 -3 0 
C -3 0.795609 -2.683901 1.55874 -2.12132 2.12132 
C -1.55874 2.683901 -0.795609 3 0 3 
z
" style="stroke: #ffc857; stroke-width: 0.5"/>
     </defs>
     <g>
      <use xlink:href="#m2c5ebfb151" x="470.642377" y="97.405937" style="fill: #ffc857; stroke: #ffc857; stroke-width: 0.5"/>
     </g>
    </g>
    <g id="text_58">
     <!-- (78.4, 93.0] -->
     <g transform="translate(488.642377 100.030937) scale(0.1 -0.1)">
      <defs>
       <path id="DejaVuSans-Bold-39" d="M 641 103 
L 641 966 
Q 928 831 1190 764 
Q 1453 697 1709 697 
Q 2247 697 2547 995 
Q 2847 1294 2900 1881 
Q 2688 1725 2447 1647 
Q 2206 1569 1925 1569 
Q 1209 1569 770 1986 
Q 331 2403 331 3084 
Q 331 3838 820 4291 
Q 1309 4744 2131 4744 
Q 3044 4744 3544 4128 
Q 4044 3513 4044 2388 
Q 4044 1231 3459 570 
Q 2875 -91 1856 -91 
Q 1528 -91 1228 -42 
Q 928 6 641 103 
z
M 2125 2350 
Q 2441 2350 2600 2554 
Q 2759 2759 2759 3169 
Q 2759 3575 2600 3781 
Q 2441 3988 2125 3988 
Q 1809 3988 1650 3781 
Q 1491 3575 1491 3169 
Q 1491 2759 1650 2554 
Q 1809 2350 2125 2350 
z
" transform="scale(0.015625)"/>
      </defs>
      <use xlink:href="#DejaVuSans-Bold-28"/>
      <use xlink:href="#DejaVuSans-Bold-37" x="45.703125"/>
      <use xlink:href="#DejaVuSans-Bold-38" x="115.283203"/>
      <use xlink:href="#DejaVuSans-Bold-2e" x="184.863281"/>
      <use xlink:href="#DejaVuSans-Bold-34" x="222.851562"/>
      <use xlink:href="#DejaVuSans-Bold-2c" x="292.431641"/>
      <use xlink:href="#DejaVuSans-Bold-20" x="330.419922"/>
      <use xlink:href="#DejaVuSans-Bold-39" x="365.234375"/>
      <use xlink:href="#DejaVuSans-Bold-33" x="434.814453"/>
      <use xlink:href="#DejaVuSans-Bold-2e" x="504.394531"/>
      <use xlink:href="#DejaVuSans-Bold-30" x="542.382812"/>
      <use xlink:href="#DejaVuSans-Bold-5d" x="611.962891"/>
     </g>
    </g>
    <g id="PathCollection_16">
     <defs>
      <path id="m52221d1daa" d="M 0 3 
C 0.795609 3 1.55874 2.683901 2.12132 2.12132 
C 2.683901 1.55874 3 0.795609 3 0 
C 3 -0.795609 2.683901 -1.55874 2.12132 -2.12132 
C 1.55874 -2.683901 0.795609 -3 0 -3 
C -0.795609 -3 -1.55874 -2.683901 -2.12132 -2.12132 
C -2.683901 -1.55874 -3 -0.795609 -3 0 
C -3 0.795609 -2.683901 1.55874 -2.12132 2.12132 
C -1.55874 2.683901 -0.795609 3 0 3 
z
" style="stroke: #4f301f; stroke-width: 0.5"/>
     </defs>
     <g>
      <use xlink:href="#m52221d1daa" x="470.642377" y="112.084062" style="fill: #4f301f; stroke: #4f301f; stroke-width: 0.5"/>
     </g>
    </g>
    <g id="text_59">
     <!-- NA -->
     <g transform="translate(488.642377 114.709062) scale(0.1 -0.1)">
      <use xlink:href="#DejaVuSans-Bold-4e"/>
      <use xlink:href="#DejaVuSans-Bold-41" x="83.691406"/>
     </g>
    </g>
    <g id="text_60">
     <!-- AdultWeekend -->
     <g transform="translate(468.642377 129.387187) scale(0.1 -0.1)">
      <use xlink:href="#DejaVuSans-Bold-41"/>
      <use xlink:href="#DejaVuSans-Bold-64" x="77.392578"/>
      <use xlink:href="#DejaVuSans-Bold-75" x="148.974609"/>
      <use xlink:href="#DejaVuSans-Bold-6c" x="220.166016"/>
      <use xlink:href="#DejaVuSans-Bold-74" x="254.443359"/>
      <use xlink:href="#DejaVuSans-Bold-57" x="302.246094"/>
      <use xlink:href="#DejaVuSans-Bold-65" x="408.923828"/>
      <use xlink:href="#DejaVuSans-Bold-65" x="476.746094"/>
      <use xlink:href="#DejaVuSans-Bold-6b" x="544.568359"/>
      <use xlink:href="#DejaVuSans-Bold-65" x="608.447266"/>
      <use xlink:href="#DejaVuSans-Bold-6e" x="676.269531"/>
      <use xlink:href="#DejaVuSans-Bold-64" x="747.460938"/>
     </g>
    </g>
    <g id="PathCollection_17">
     <defs>
      <path id="m83e03017c4" d="M 0 2.586805 
C 0.686029 2.586805 1.344052 2.314243 1.829147 1.829147 
C 2.314243 1.344052 2.586805 0.686029 2.586805 0 
C 2.586805 -0.686029 2.314243 -1.344052 1.829147 -1.829147 
C 1.344052 -2.314243 0.686029 -2.586805 0 -2.586805 
C -0.686029 -2.586805 -1.344052 -2.314243 -1.829147 -1.829147 
C -2.314243 -1.344052 -2.586805 -0.686029 -2.586805 0 
C -2.586805 0.686029 -2.314243 1.344052 -1.829147 1.829147 
C -1.344052 2.314243 -0.686029 2.586805 0 2.586805 
z
" style="stroke: #333333; stroke-width: 0.5"/>
     </defs>
     <g>
      <use xlink:href="#m83e03017c4" x="470.642377" y="141.440312" style="fill: #333333; stroke: #333333; stroke-width: 0.5"/>
     </g>
    </g>
    <g id="text_61">
     <!-- 50 -->
     <g transform="translate(488.642377 144.065312) scale(0.1 -0.1)">
      <use xlink:href="#DejaVuSans-Bold-35"/>
      <use xlink:href="#DejaVuSans-Bold-30" x="69.580078"/>
     </g>
    </g>
    <g id="PathCollection_18">
     <defs>
      <path id="m892b1b6a59" d="M 0 3.053101 
C 0.809692 3.053101 1.58633 2.731407 2.158869 2.158869 
C 2.731407 1.58633 3.053101 0.809692 3.053101 0 
C 3.053101 -0.809692 2.731407 -1.58633 2.158869 -2.158869 
C 1.58633 -2.731407 0.809692 -3.053101 0 -3.053101 
C -0.809692 -3.053101 -1.58633 -2.731407 -2.158869 -2.158869 
C -2.731407 -1.58633 -3.053101 -0.809692 -3.053101 0 
C -3.053101 0.809692 -2.731407 1.58633 -2.158869 2.158869 
C -1.58633 2.731407 -0.809692 3.053101 0 3.053101 
z
" style="stroke: #333333; stroke-width: 0.5"/>
     </defs>
     <g>
      <use xlink:href="#m892b1b6a59" x="470.642377" y="156.118437" style="fill: #333333; stroke: #333333; stroke-width: 0.5"/>
     </g>
    </g>
    <g id="text_62">
     <!-- 60 -->
     <g transform="translate(488.642377 158.743437) scale(0.1 -0.1)">
      <use xlink:href="#DejaVuSans-Bold-36"/>
      <use xlink:href="#DejaVuSans-Bold-30" x="69.580078"/>
     </g>
    </g>
    <g id="PathCollection_19">
     <defs>
      <path id="m31b3239538" d="M 0 3.457065 
C 0.916824 3.457065 1.796221 3.092807 2.444514 2.444514 
C 3.092807 1.796221 3.457065 0.916824 3.457065 0 
C 3.457065 -0.916824 3.092807 -1.796221 2.444514 -2.444514 
C 1.796221 -3.092807 0.916824 -3.457065 0 -3.457065 
C -0.916824 -3.457065 -1.796221 -3.092807 -2.444514 -2.444514 
C -3.092807 -1.796221 -3.457065 -0.916824 -3.457065 0 
C -3.457065 0.916824 -3.092807 1.796221 -2.444514 2.444514 
C -1.796221 3.092807 -0.916824 3.457065 0 3.457065 
z
" style="stroke: #333333; stroke-width: 0.5"/>
     </defs>
     <g>
      <use xlink:href="#m31b3239538" x="470.642377" y="170.796562" style="fill: #333333; stroke: #333333; stroke-width: 0.5"/>
     </g>
    </g>
    <g id="text_63">
     <!-- 70 -->
     <g transform="translate(488.642377 173.421562) scale(0.1 -0.1)">
      <use xlink:href="#DejaVuSans-Bold-37"/>
      <use xlink:href="#DejaVuSans-Bold-30" x="69.580078"/>
     </g>
    </g>
    <g id="PathCollection_20">
     <defs>
      <path id="m2fd60f9cfd" d="M 0 3.81853 
C 1.012686 3.81853 1.984031 3.416185 2.700108 2.700108 
C 3.416185 1.984031 3.81853 1.012686 3.81853 0 
C 3.81853 -1.012686 3.416185 -1.984031 2.700108 -2.700108 
C 1.984031 -3.416185 1.012686 -3.81853 0 -3.81853 
C -1.012686 -3.81853 -1.984031 -3.416185 -2.700108 -2.700108 
C -3.416185 -1.984031 -3.81853 -1.012686 -3.81853 0 
C -3.81853 1.012686 -3.416185 1.984031 -2.700108 2.700108 
C -1.984031 3.416185 -1.012686 3.81853 0 3.81853 
z
" style="stroke: #333333; stroke-width: 0.5"/>
     </defs>
     <g>
      <use xlink:href="#m2fd60f9cfd" x="470.642377" y="185.474687" style="fill: #333333; stroke: #333333; stroke-width: 0.5"/>
     </g>
    </g>
    <g id="text_64">
     <!-- 80 -->
     <g transform="translate(488.642377 188.099687) scale(0.1 -0.1)">
      <use xlink:href="#DejaVuSans-Bold-38"/>
      <use xlink:href="#DejaVuSans-Bold-30" x="69.580078"/>
     </g>
    </g>
    <g id="PathCollection_21">
     <defs>
      <path id="m042586b3c1" d="M 0 4.148619 
C 1.100227 4.148619 2.155539 3.711494 2.933517 2.933517 
C 3.711494 2.155539 4.148619 1.100227 4.148619 0 
C 4.148619 -1.100227 3.711494 -2.155539 2.933517 -2.933517 
C 2.155539 -3.711494 1.100227 -4.148619 0 -4.148619 
C -1.100227 -4.148619 -2.155539 -3.711494 -2.933517 -2.933517 
C -3.711494 -2.155539 -4.148619 -1.100227 -4.148619 0 
C -4.148619 1.100227 -3.711494 2.155539 -2.933517 2.933517 
C -2.155539 3.711494 -1.100227 4.148619 0 4.148619 
z
" style="stroke: #333333; stroke-width: 0.5"/>
     </defs>
     <g>
      <use xlink:href="#m042586b3c1" x="470.642377" y="200.152812" style="fill: #333333; stroke: #333333; stroke-width: 0.5"/>
     </g>
    </g>
    <g id="text_65">
     <!-- 90 -->
     <g transform="translate(488.642377 202.777812) scale(0.1 -0.1)">
      <use xlink:href="#DejaVuSans-Bold-39"/>
      <use xlink:href="#DejaVuSans-Bold-30" x="69.580078"/>
     </g>
    </g>
   </g>
  </g>
 </g>
 <defs>
  <clipPath id="p3fb3d2e2fc">
   <rect x="38.37" y="24.72" width="525.036439" height="804.42"/>
  </clipPath>
 </defs>
</svg>
