<?xml version="1.0" encoding="utf-8" standalone="no"?>
<!DOCTYPE svg PUBLIC "-//W3C//DTD SVG 1.1//EN"
  "http://www.w3.org/Graphics/SVG/1.1/DTD/svg11.dtd">
<svg xmlns:xlink="http://www.w3.org/1999/xlink" width="576pt" height="864pt" viewBox="0 0 576 864" xmlns="http://www.w3.org/2000/svg" version="1.1">
 <metadata>
  <rdf:RDF xmlns:dc="http://purl.org/dc/elements/1.1/" xmlns:cc="http://creativecommons.org/ns#" xmlns:rdf="http://www.w3.org/1999/02/22-rdf-syntax-ns#">
   <cc:Work>
    <dc:type rdf:resource="http://purl.org/dc/dcmitype/StillImage"/>
    <dc:date>2023-06-06T09:30:29.923762</dc:date>
    <dc:format>image/svg+xml</dc:format>
    <dc:creator>
     <cc:Agent>
      <dc:title>Matplotlib v3.6.2, https://matplotlib.org/</dc:title>
     </cc:Agent>
    </dc:creator>
   </cc:Work>
  </rdf:RDF>
 </metadata>
 <defs>
  <style type="text/css">*{stroke-linejoin: round; stroke-linecap: butt}</style>
 </defs>
 <g id="figure_1">
  <g id="patch_1">
   <path d="M 0 864 
L 576 864 
L 576 0 
L 0 0 
z
" style="fill: #ffffff"/>
  </g>
  <g id="axes_1">
   <g id="patch_2">
    <path d="M 41.87 825.64 
L 563.406439 825.64 
L 563.406439 24.72 
L 41.87 24.72 
z
" style="fill: #e5e5e5"/>
   </g>
   <g id="matplotlib.axis_1">
    <g id="xtick_1">
     <g id="line2d_1">
      <path d="M 78.919633 825.64 
L 78.919633 24.72 
" clip-path="url(#pb4212d2990)" style="fill: none; stroke: #ffffff; stroke-width: 0.8; stroke-linecap: square"/>
     </g>
     <g id="line2d_2">
      <defs>
       <path id="m1a560f0847" d="M 0 0 
L 0 3.5 
" style="stroke: #555555; stroke-width: 0.8"/>
      </defs>
      <g>
       <use xlink:href="#m1a560f0847" x="78.919633" y="825.64" style="fill: #555555; stroke: #555555; stroke-width: 0.8"/>
      </g>
     </g>
     <g id="text_1">
      <!-- −2 -->
      <g style="fill: #555555" transform="translate(73.59752 837.913316) scale(0.0694 -0.0694)">
       <defs>
        <path id="DejaVuSans-Bold-2212" d="M 678 2375 
L 4684 2375 
L 4684 1638 
L 678 1638 
L 678 2375 
z
" transform="scale(0.015625)"/>
        <path id="DejaVuSans-Bold-32" d="M 1844 884 
L 3897 884 
L 3897 0 
L 506 0 
L 506 884 
L 2209 2388 
Q 2438 2594 2547 2791 
Q 2656 2988 2656 3200 
Q 2656 3528 2436 3728 
Q 2216 3928 1850 3928 
Q 1569 3928 1234 3808 
Q 900 3688 519 3450 
L 519 4475 
Q 925 4609 1322 4679 
Q 1719 4750 2100 4750 
Q 2938 4750 3402 4381 
Q 3866 4013 3866 3353 
Q 3866 2972 3669 2642 
Q 3472 2313 2841 1759 
L 1844 884 
z
" transform="scale(0.015625)"/>
       </defs>
       <use xlink:href="#DejaVuSans-Bold-2212"/>
       <use xlink:href="#DejaVuSans-Bold-32" x="83.789062"/>
      </g>
     </g>
    </g>
    <g id="xtick_2">
     <g id="line2d_3">
      <path d="M 148.025811 825.64 
L 148.025811 24.72 
" clip-path="url(#pb4212d2990)" style="fill: none; stroke: #ffffff; stroke-width: 0.8; stroke-linecap: square"/>
     </g>
     <g id="line2d_4">
      <g>
       <use xlink:href="#m1a560f0847" x="148.025811" y="825.64" style="fill: #555555; stroke: #555555; stroke-width: 0.8"/>
      </g>
     </g>
     <g id="text_2">
      <!-- −1 -->
      <g style="fill: #555555" transform="translate(142.703698 837.913316) scale(0.0694 -0.0694)">
       <defs>
        <path id="DejaVuSans-Bold-31" d="M 750 831 
L 1813 831 
L 1813 3847 
L 722 3622 
L 722 4441 
L 1806 4666 
L 2950 4666 
L 2950 831 
L 4013 831 
L 4013 0 
L 750 0 
L 750 831 
z
" transform="scale(0.015625)"/>
       </defs>
       <use xlink:href="#DejaVuSans-Bold-2212"/>
       <use xlink:href="#DejaVuSans-Bold-31" x="83.789062"/>
      </g>
     </g>
    </g>
    <g id="xtick_3">
     <g id="line2d_5">
      <path d="M 217.131988 825.64 
L 217.131988 24.72 
" clip-path="url(#pb4212d2990)" style="fill: none; stroke: #ffffff; stroke-width: 0.8; stroke-linecap: square"/>
     </g>
     <g id="line2d_6">
      <g>
       <use xlink:href="#m1a560f0847" x="217.131988" y="825.64" style="fill: #555555; stroke: #555555; stroke-width: 0.8"/>
      </g>
     </g>
     <g id="text_3">
      <!-- 0 -->
      <g style="fill: #555555" transform="translate(214.717627 837.913316) scale(0.0694 -0.0694)">
       <defs>
        <path id="DejaVuSans-Bold-30" d="M 2944 2338 
Q 2944 3213 2780 3570 
Q 2616 3928 2228 3928 
Q 1841 3928 1675 3570 
Q 1509 3213 1509 2338 
Q 1509 1453 1675 1090 
Q 1841 728 2228 728 
Q 2613 728 2778 1090 
Q 2944 1453 2944 2338 
z
M 4147 2328 
Q 4147 1169 3647 539 
Q 3147 -91 2228 -91 
Q 1306 -91 806 539 
Q 306 1169 306 2328 
Q 306 3491 806 4120 
Q 1306 4750 2228 4750 
Q 3147 4750 3647 4120 
Q 4147 3491 4147 2328 
z
" transform="scale(0.015625)"/>
       </defs>
       <use xlink:href="#DejaVuSans-Bold-30"/>
      </g>
     </g>
    </g>
    <g id="xtick_4">
     <g id="line2d_7">
      <path d="M 286.238166 825.64 
L 286.238166 24.72 
" clip-path="url(#pb4212d2990)" style="fill: none; stroke: #ffffff; stroke-width: 0.8; stroke-linecap: square"/>
     </g>
     <g id="line2d_8">
      <g>
       <use xlink:href="#m1a560f0847" x="286.238166" y="825.64" style="fill: #555555; stroke: #555555; stroke-width: 0.8"/>
      </g>
     </g>
     <g id="text_4">
      <!-- 1 -->
      <g style="fill: #555555" transform="translate(283.823805 837.913316) scale(0.0694 -0.0694)">
       <use xlink:href="#DejaVuSans-Bold-31"/>
      </g>
     </g>
    </g>
    <g id="xtick_5">
     <g id="line2d_9">
      <path d="M 355.344344 825.64 
L 355.344344 24.72 
" clip-path="url(#pb4212d2990)" style="fill: none; stroke: #ffffff; stroke-width: 0.8; stroke-linecap: square"/>
     </g>
     <g id="line2d_10">
      <g>
       <use xlink:href="#m1a560f0847" x="355.344344" y="825.64" style="fill: #555555; stroke: #555555; stroke-width: 0.8"/>
      </g>
     </g>
     <g id="text_5">
      <!-- 2 -->
      <g style="fill: #555555" transform="translate(352.929983 837.913316) scale(0.0694 -0.0694)">
       <use xlink:href="#DejaVuSans-Bold-32"/>
      </g>
     </g>
    </g>
    <g id="xtick_6">
     <g id="line2d_11">
      <path d="M 424.450521 825.64 
L 424.450521 24.72 
" clip-path="url(#pb4212d2990)" style="fill: none; stroke: #ffffff; stroke-width: 0.8; stroke-linecap: square"/>
     </g>
     <g id="line2d_12">
      <g>
       <use xlink:href="#m1a560f0847" x="424.450521" y="825.64" style="fill: #555555; stroke: #555555; stroke-width: 0.8"/>
      </g>
     </g>
     <g id="text_6">
      <!-- 3 -->
      <g style="fill: #555555" transform="translate(422.036161 837.913316) scale(0.0694 -0.0694)">
       <defs>
        <path id="DejaVuSans-Bold-33" d="M 2981 2516 
Q 3453 2394 3698 2092 
Q 3944 1791 3944 1325 
Q 3944 631 3412 270 
Q 2881 -91 1863 -91 
Q 1503 -91 1142 -33 
Q 781 25 428 141 
L 428 1069 
Q 766 900 1098 814 
Q 1431 728 1753 728 
Q 2231 728 2486 893 
Q 2741 1059 2741 1369 
Q 2741 1688 2480 1852 
Q 2219 2016 1709 2016 
L 1228 2016 
L 1228 2791 
L 1734 2791 
Q 2188 2791 2409 2933 
Q 2631 3075 2631 3366 
Q 2631 3634 2415 3781 
Q 2200 3928 1806 3928 
Q 1516 3928 1219 3862 
Q 922 3797 628 3669 
L 628 4550 
Q 984 4650 1334 4700 
Q 1684 4750 2022 4750 
Q 2931 4750 3382 4451 
Q 3834 4153 3834 3553 
Q 3834 3144 3618 2883 
Q 3403 2622 2981 2516 
z
" transform="scale(0.015625)"/>
       </defs>
       <use xlink:href="#DejaVuSans-Bold-33"/>
      </g>
     </g>
    </g>
    <g id="xtick_7">
     <g id="line2d_13">
      <path d="M 493.556699 825.64 
L 493.556699 24.72 
" clip-path="url(#pb4212d2990)" style="fill: none; stroke: #ffffff; stroke-width: 0.8; stroke-linecap: square"/>
     </g>
     <g id="line2d_14">
      <g>
       <use xlink:href="#m1a560f0847" x="493.556699" y="825.64" style="fill: #555555; stroke: #555555; stroke-width: 0.8"/>
      </g>
     </g>
     <g id="text_7">
      <!-- 4 -->
      <g style="fill: #555555" transform="translate(491.142338 837.913316) scale(0.0694 -0.0694)">
       <defs>
        <path id="DejaVuSans-Bold-34" d="M 2356 3675 
L 1038 1722 
L 2356 1722 
L 2356 3675 
z
M 2156 4666 
L 3494 4666 
L 3494 1722 
L 4159 1722 
L 4159 850 
L 3494 850 
L 3494 0 
L 2356 0 
L 2356 850 
L 288 850 
L 288 1881 
L 2156 4666 
z
" transform="scale(0.015625)"/>
       </defs>
       <use xlink:href="#DejaVuSans-Bold-34"/>
      </g>
     </g>
    </g>
    <g id="xtick_8">
     <g id="line2d_15">
      <path d="M 562.662877 825.64 
L 562.662877 24.72 
" clip-path="url(#pb4212d2990)" style="fill: none; stroke: #ffffff; stroke-width: 0.8; stroke-linecap: square"/>
     </g>
     <g id="line2d_16">
      <g>
       <use xlink:href="#m1a560f0847" x="562.662877" y="825.64" style="fill: #555555; stroke: #555555; stroke-width: 0.8"/>
      </g>
     </g>
     <g id="text_8">
      <!-- 5 -->
      <g style="fill: #555555" transform="translate(560.248516 837.913316) scale(0.0694 -0.0694)">
       <defs>
        <path id="DejaVuSans-Bold-35" d="M 678 4666 
L 3669 4666 
L 3669 3781 
L 1638 3781 
L 1638 3059 
Q 1775 3097 1914 3117 
Q 2053 3138 2203 3138 
Q 3056 3138 3531 2711 
Q 4006 2284 4006 1522 
Q 4006 766 3489 337 
Q 2972 -91 2053 -91 
Q 1656 -91 1267 -14 
Q 878 63 494 219 
L 494 1166 
Q 875 947 1217 837 
Q 1559 728 1863 728 
Q 2300 728 2551 942 
Q 2803 1156 2803 1522 
Q 2803 1891 2551 2103 
Q 2300 2316 1863 2316 
Q 1603 2316 1309 2248 
Q 1016 2181 678 2041 
L 678 4666 
z
" transform="scale(0.015625)"/>
       </defs>
       <use xlink:href="#DejaVuSans-Bold-35"/>
      </g>
     </g>
    </g>
    <g id="text_9">
     <!-- PC1 -->
     <g style="fill: #555555" transform="translate(293.630756 849.686117) scale(0.0833 -0.0833)">
      <defs>
       <path id="DejaVuSans-Bold-50" d="M 588 4666 
L 2584 4666 
Q 3475 4666 3951 4270 
Q 4428 3875 4428 3144 
Q 4428 2409 3951 2014 
Q 3475 1619 2584 1619 
L 1791 1619 
L 1791 0 
L 588 0 
L 588 4666 
z
M 1791 3794 
L 1791 2491 
L 2456 2491 
Q 2806 2491 2997 2661 
Q 3188 2831 3188 3144 
Q 3188 3456 2997 3625 
Q 2806 3794 2456 3794 
L 1791 3794 
z
" transform="scale(0.015625)"/>
       <path id="DejaVuSans-Bold-43" d="M 4288 256 
Q 3956 84 3597 -3 
Q 3238 -91 2847 -91 
Q 1681 -91 1000 561 
Q 319 1213 319 2328 
Q 319 3447 1000 4098 
Q 1681 4750 2847 4750 
Q 3238 4750 3597 4662 
Q 3956 4575 4288 4403 
L 4288 3438 
Q 3953 3666 3628 3772 
Q 3303 3878 2944 3878 
Q 2300 3878 1931 3465 
Q 1563 3053 1563 2328 
Q 1563 1606 1931 1193 
Q 2300 781 2944 781 
Q 3303 781 3628 887 
Q 3953 994 4288 1222 
L 4288 256 
z
" transform="scale(0.015625)"/>
      </defs>
      <use xlink:href="#DejaVuSans-Bold-50"/>
      <use xlink:href="#DejaVuSans-Bold-43" x="73.291016"/>
      <use xlink:href="#DejaVuSans-Bold-31" x="146.679688"/>
     </g>
    </g>
   </g>
   <g id="matplotlib.axis_2">
    <g id="ytick_1">
     <g id="line2d_17">
      <path d="M 41.87 736.637185 
L 563.406439 736.637185 
" clip-path="url(#pb4212d2990)" style="fill: none; stroke: #ffffff; stroke-width: 0.8; stroke-linecap: square"/>
     </g>
     <g id="line2d_18">
      <defs>
       <path id="ma5b9ad70b0" d="M 0 0 
L -3.5 0 
" style="stroke: #555555; stroke-width: 0.8"/>
      </defs>
      <g>
       <use xlink:href="#ma5b9ad70b0" x="41.87" y="736.637185" style="fill: #555555; stroke: #555555; stroke-width: 0.8"/>
      </g>
     </g>
     <g id="text_10">
      <!-- −1 -->
      <g style="fill: #555555" transform="translate(24.225775 739.273843) scale(0.0694 -0.0694)">
       <use xlink:href="#DejaVuSans-Bold-2212"/>
       <use xlink:href="#DejaVuSans-Bold-31" x="83.789062"/>
      </g>
     </g>
    </g>
    <g id="ytick_2">
     <g id="line2d_19">
      <path d="M 41.87 618.212591 
L 563.406439 618.212591 
" clip-path="url(#pb4212d2990)" style="fill: none; stroke: #ffffff; stroke-width: 0.8; stroke-linecap: square"/>
     </g>
     <g id="line2d_20">
      <g>
       <use xlink:href="#ma5b9ad70b0" x="41.87" y="618.212591" style="fill: #555555; stroke: #555555; stroke-width: 0.8"/>
      </g>
     </g>
     <g id="text_11">
      <!-- 0 -->
      <g style="fill: #555555" transform="translate(30.041278 620.849249) scale(0.0694 -0.0694)">
       <use xlink:href="#DejaVuSans-Bold-30"/>
      </g>
     </g>
    </g>
    <g id="ytick_3">
     <g id="line2d_21">
      <path d="M 41.87 499.787996 
L 563.406439 499.787996 
" clip-path="url(#pb4212d2990)" style="fill: none; stroke: #ffffff; stroke-width: 0.8; stroke-linecap: square"/>
     </g>
     <g id="line2d_22">
      <g>
       <use xlink:href="#ma5b9ad70b0" x="41.87" y="499.787996" style="fill: #555555; stroke: #555555; stroke-width: 0.8"/>
      </g>
     </g>
     <g id="text_12">
      <!-- 1 -->
      <g style="fill: #555555" transform="translate(30.041278 502.424654) scale(0.0694 -0.0694)">
       <use xlink:href="#DejaVuSans-Bold-31"/>
      </g>
     </g>
    </g>
    <g id="ytick_4">
     <g id="line2d_23">
      <path d="M 41.87 381.363402 
L 563.406439 381.363402 
" clip-path="url(#pb4212d2990)" style="fill: none; stroke: #ffffff; stroke-width: 0.8; stroke-linecap: square"/>
     </g>
     <g id="line2d_24">
      <g>
       <use xlink:href="#ma5b9ad70b0" x="41.87" y="381.363402" style="fill: #555555; stroke: #555555; stroke-width: 0.8"/>
      </g>
     </g>
     <g id="text_13">
      <!-- 2 -->
      <g style="fill: #555555" transform="translate(30.041278 384.00006) scale(0.0694 -0.0694)">
       <use xlink:href="#DejaVuSans-Bold-32"/>
      </g>
     </g>
    </g>
    <g id="ytick_5">
     <g id="line2d_25">
      <path d="M 41.87 262.938808 
L 563.406439 262.938808 
" clip-path="url(#pb4212d2990)" style="fill: none; stroke: #ffffff; stroke-width: 0.8; stroke-linecap: square"/>
     </g>
     <g id="line2d_26">
      <g>
       <use xlink:href="#ma5b9ad70b0" x="41.87" y="262.938808" style="fill: #555555; stroke: #555555; stroke-width: 0.8"/>
      </g>
     </g>
     <g id="text_14">
      <!-- 3 -->
      <g style="fill: #555555" transform="translate(30.041278 265.575465) scale(0.0694 -0.0694)">
       <use xlink:href="#DejaVuSans-Bold-33"/>
      </g>
     </g>
    </g>
    <g id="ytick_6">
     <g id="line2d_27">
      <path d="M 41.87 144.514213 
L 563.406439 144.514213 
" clip-path="url(#pb4212d2990)" style="fill: none; stroke: #ffffff; stroke-width: 0.8; stroke-linecap: square"/>
     </g>
     <g id="line2d_28">
      <g>
       <use xlink:href="#ma5b9ad70b0" x="41.87" y="144.514213" style="fill: #555555; stroke: #555555; stroke-width: 0.8"/>
      </g>
     </g>
     <g id="text_15">
      <!-- 4 -->
      <g style="fill: #555555" transform="translate(30.041278 147.150871) scale(0.0694 -0.0694)">
       <use xlink:href="#DejaVuSans-Bold-34"/>
      </g>
     </g>
    </g>
    <g id="ytick_7">
     <g id="line2d_29">
      <path d="M 41.87 26.089619 
L 563.406439 26.089619 
" clip-path="url(#pb4212d2990)" style="fill: none; stroke: #ffffff; stroke-width: 0.8; stroke-linecap: square"/>
     </g>
     <g id="line2d_30">
      <g>
       <use xlink:href="#ma5b9ad70b0" x="41.87" y="26.089619" style="fill: #555555; stroke: #555555; stroke-width: 0.8"/>
      </g>
     </g>
     <g id="text_16">
      <!-- 5 -->
      <g style="fill: #555555" transform="translate(30.041278 28.726277) scale(0.0694 -0.0694)">
       <use xlink:href="#DejaVuSans-Bold-35"/>
      </g>
     </g>
    </g>
    <g id="text_17">
     <!-- PC2 -->
     <g style="fill: #555555" transform="translate(18.493395 434.187463) rotate(-90) scale(0.0833 -0.0833)">
      <use xlink:href="#DejaVuSans-Bold-50"/>
      <use xlink:href="#DejaVuSans-Bold-43" x="73.291016"/>
      <use xlink:href="#DejaVuSans-Bold-32" x="146.679688"/>
     </g>
    </g>
   </g>
   <g id="PathCollection_1">
    <path d="M 124.931057 645.467784 
C 125.709695 645.467784 126.456546 645.158428 127.007127 644.607848 
C 127.557707 644.057267 127.867063 643.310416 127.867063 642.531778 
C 127.867063 641.75314 127.557707 641.006288 127.007127 640.455708 
C 126.456546 639.905128 125.709695 639.595772 124.931057 639.595772 
C 124.152419 639.595772 123.405567 639.905128 122.854987 640.455708 
C 122.304407 641.006288 121.995051 641.75314 121.995051 642.531778 
C 121.995051 643.310416 122.304407 644.057267 122.854987 644.607848 
C 123.405567 645.158428 124.152419 645.467784 124.931057 645.467784 
z
" clip-path="url(#pb4212d2990)" style="fill: #0049db; stroke: #ffffff; stroke-width: 0.398981"/>
    <path d="M 90.178328 672.92354 
C 91.222488 672.92354 92.224023 672.508691 92.962356 671.770358 
C 93.700688 671.032025 94.115538 670.03049 94.115538 668.98633 
C 94.115538 667.942169 93.700688 666.940635 92.962356 666.202302 
C 92.224023 665.463969 91.222488 665.04912 90.178328 665.04912 
C 89.134167 665.04912 88.132632 665.463969 87.3943 666.202302 
C 86.655967 666.940635 86.241117 667.942169 86.241117 668.98633 
C 86.241117 670.03049 86.655967 671.032025 87.3943 671.770358 
C 88.132632 672.508691 89.134167 672.92354 90.178328 672.92354 
z
" clip-path="url(#pb4212d2990)" style="fill: #0092b6; stroke: #ffffff; stroke-width: 0.398981"/>
    <path d="M 462.291045 776.933826 
C 463.316587 776.933826 464.300263 776.526374 465.025431 775.801206 
C 465.750598 775.076039 466.15805 774.092362 466.15805 773.06682 
C 466.15805 772.041278 465.750598 771.057602 465.025431 770.332434 
C 464.300263 769.607267 463.316587 769.199815 462.291045 769.199815 
C 461.265503 769.199815 460.281826 769.607267 459.556659 770.332434 
C 458.831491 771.057602 458.424039 772.041278 458.424039 773.06682 
C 458.424039 774.092362 458.831491 775.076039 459.556659 775.801206 
C 460.281826 776.526374 461.265503 776.933826 462.291045 776.933826 
z
" clip-path="url(#pb4212d2990)" style="fill: #0092b6; stroke: #ffffff; stroke-width: 0.398981"/>
    <path d="M 521.230029 739.79552 
C 522.336244 739.79552 523.397299 739.356016 524.179511 738.573805 
C 524.961723 737.791593 525.401226 736.730537 525.401226 735.624323 
C 525.401226 734.518108 524.961723 733.457053 524.179511 732.674841 
C 523.397299 731.892629 522.336244 731.453125 521.230029 731.453125 
C 520.123815 731.453125 519.062759 731.892629 518.280547 732.674841 
C 517.498336 733.457053 517.058832 734.518108 517.058832 735.624323 
C 517.058832 736.730537 517.498336 737.791593 518.280547 738.573805 
C 519.062759 739.356016 520.123815 739.79552 521.230029 739.79552 
z
" clip-path="url(#pb4212d2990)" style="fill: #0092b6; stroke: #ffffff; stroke-width: 0.398981"/>
    <path d="M 147.795601 498.033959 
C 148.567878 498.033959 149.308629 497.72713 149.854711 497.181048 
C 150.400793 496.634966 150.707622 495.894215 150.707622 495.121938 
C 150.707622 494.349661 150.400793 493.60891 149.854711 493.062827 
C 149.308629 492.516745 148.567878 492.209916 147.795601 492.209916 
C 147.023324 492.209916 146.282573 492.516745 145.73649 493.062827 
C 145.190408 493.60891 144.883579 494.349661 144.883579 495.121938 
C 144.883579 495.894215 145.190408 496.634966 145.73649 497.181048 
C 146.282573 497.72713 147.023324 498.033959 147.795601 498.033959 
z
" clip-path="url(#pb4212d2990)" style="fill: #0049db; stroke: #ffffff; stroke-width: 0.398981"/>
    <path d="M 266.048481 616.459944 
C 266.809904 616.459944 267.540244 616.157428 268.078651 615.61902 
C 268.617059 615.080613 268.919575 614.350273 268.919575 613.58885 
C 268.919575 612.827427 268.617059 612.097087 268.078651 611.55868 
C 267.540244 611.020273 266.809904 610.717756 266.048481 610.717756 
C 265.287058 610.717756 264.556718 611.020273 264.018311 611.55868 
C 263.479903 612.097087 263.177387 612.827427 263.177387 613.58885 
C 263.177387 614.350273 263.479903 615.080613 264.018311 615.61902 
C 264.556718 616.157428 265.287058 616.459944 266.048481 616.459944 
z
" clip-path="url(#pb4212d2990)" style="fill: #0049db; stroke: #ffffff; stroke-width: 0.398981"/>
    <path d="M 100.582171 667.462476 
C 101.171513 667.462476 101.736797 667.228327 102.153525 666.811599 
C 102.570253 666.394871 102.804402 665.829587 102.804402 665.240244 
C 102.804402 664.650902 102.570253 664.085618 102.153525 663.66889 
C 101.736797 663.252162 101.171513 663.018013 100.582171 663.018013 
C 99.992828 663.018013 99.427544 663.252162 99.010816 663.66889 
C 98.594088 664.085618 98.359939 664.650902 98.359939 665.240244 
C 98.359939 665.829587 98.594088 666.394871 99.010816 666.811599 
C 99.427544 667.228327 99.992828 667.462476 100.582171 667.462476 
z
" clip-path="url(#pb4212d2990)" style="fill: #0024ed; stroke: #ffffff; stroke-width: 0.398981"/>
    <path d="M 84.935135 666.291123 
C 85.600635 666.291123 86.238968 666.026717 86.709547 665.556138 
C 87.180127 665.085558 87.444533 664.447225 87.444533 663.781725 
C 87.444533 663.116225 87.180127 662.477893 86.709547 662.007313 
C 86.238968 661.536733 85.600635 661.272327 84.935135 661.272327 
C 84.269635 661.272327 83.631302 661.536733 83.160723 662.007313 
C 82.690143 662.477893 82.425737 663.116225 82.425737 663.781725 
C 82.425737 664.447225 82.690143 665.085558 83.160723 665.556138 
C 83.631302 666.026717 84.269635 666.291123 84.935135 666.291123 
z
" clip-path="url(#pb4212d2990)" style="fill: #0024ed; stroke: #ffffff; stroke-width: 0.398981"/>
    <path d="M 89.060196 655.049958 
C 89.622777 655.049958 90.162392 654.826442 90.560196 654.428638 
C 90.958001 654.030833 91.181517 653.491218 91.181517 652.928638 
C 91.181517 652.366057 90.958001 651.826442 90.560196 651.428638 
C 90.162392 651.030833 89.622777 650.807317 89.060196 650.807317 
C 88.497616 650.807317 87.958001 651.030833 87.560196 651.428638 
C 87.162392 651.826442 86.938876 652.366057 86.938876 652.928638 
C 86.938876 653.491218 87.162392 654.030833 87.560196 654.428638 
C 87.958001 654.826442 88.497616 655.049958 89.060196 655.049958 
z
" clip-path="url(#pb4212d2990)" style="fill: #0024ed; stroke: #ffffff; stroke-width: 0.398981"/>
    <path d="M 200.970219 558.397594 
C 201.791254 558.397594 202.578771 558.071393 203.159331 557.490834 
C 203.73989 556.910275 204.06609 556.122757 204.06609 555.301723 
C 204.06609 554.480688 203.73989 553.693171 203.159331 553.112612 
C 202.578771 552.532053 201.791254 552.205852 200.970219 552.205852 
C 200.149185 552.205852 199.361667 552.532053 198.781108 553.112612 
C 198.200549 553.693171 197.874349 554.480688 197.874349 555.301723 
C 197.874349 556.122757 198.200549 556.910275 198.781108 557.490834 
C 199.361667 558.071393 200.149185 558.397594 200.970219 558.397594 
z
" clip-path="url(#pb4212d2990)" style="fill: #006dc8; stroke: #ffffff; stroke-width: 0.398981"/>
    <path d="M 76.933355 657.681143 
C 77.936867 657.681143 78.899413 657.282444 79.609003 656.572854 
C 80.318593 655.863264 80.717292 654.900718 80.717292 653.897206 
C 80.717292 652.893694 80.318593 651.931148 79.609003 651.221558 
C 78.899413 650.511968 77.936867 650.113269 76.933355 650.113269 
C 75.929843 650.113269 74.967297 650.511968 74.257707 651.221558 
C 73.548117 651.931148 73.149418 652.893694 73.149418 653.897206 
C 73.149418 654.900718 73.548117 655.863264 74.257707 656.572854 
C 74.967297 657.282444 75.929843 657.681143 76.933355 657.681143 
z
" clip-path="url(#pb4212d2990)" style="fill: #0092b6; stroke: #ffffff; stroke-width: 0.398981"/>
    <path d="M 222.574551 464.226001 
C 223.351603 464.226001 224.096935 463.917275 224.646394 463.367816 
C 225.195853 462.818357 225.504579 462.073026 225.504579 461.295973 
C 225.504579 460.518921 225.195853 459.77359 224.646394 459.224131 
C 224.096935 458.674671 223.351603 458.365945 222.574551 458.365945 
C 221.797498 458.365945 221.052167 458.674671 220.502708 459.224131 
C 219.953249 459.77359 219.644523 460.518921 219.644523 461.295973 
C 219.644523 462.073026 219.953249 462.818357 220.502708 463.367816 
C 221.052167 463.917275 221.797498 464.226001 222.574551 464.226001 
z
" clip-path="url(#pb4212d2990)" style="fill: #0049db; stroke: #ffffff; stroke-width: 0.398981"/>
    <path d="M 467.774801 721.181143 
C 468.492455 721.181143 469.180812 720.896016 469.68827 720.388559 
C 470.195728 719.881101 470.480855 719.192743 470.480855 718.47509 
C 470.480855 717.757436 470.195728 717.069078 469.68827 716.561621 
C 469.180812 716.054163 468.492455 715.769036 467.774801 715.769036 
C 467.057147 715.769036 466.36879 716.054163 465.861332 716.561621 
C 465.353874 717.069078 465.068747 717.757436 465.068747 718.47509 
C 465.068747 719.192743 465.353874 719.881101 465.861332 720.388559 
C 466.36879 720.896016 467.057147 721.181143 467.774801 721.181143 
z
" clip-path="url(#pb4212d2990)" style="fill: #0024ed; stroke: #ffffff; stroke-width: 0.398981"/>
    <path d="M 271.017213 690.965305 
C 271.698739 690.965305 272.352444 690.694532 272.834356 690.21262 
C 273.316268 689.730708 273.587042 689.077003 273.587042 688.395476 
C 273.587042 687.71395 273.316268 687.060245 272.834356 686.578333 
C 272.352444 686.09642 271.698739 685.825647 271.017213 685.825647 
C 270.335686 685.825647 269.681981 686.09642 269.200069 686.578333 
C 268.718157 687.060245 268.447384 687.71395 268.447384 688.395476 
C 268.447384 689.077003 268.718157 689.730708 269.200069 690.21262 
C 269.681981 690.694532 270.335686 690.965305 271.017213 690.965305 
z
" clip-path="url(#pb4212d2990)" style="fill: #0024ed; stroke: #ffffff; stroke-width: 0.398981"/>
    <path d="M 73.198581 661.98287 
C 73.857096 661.98287 74.488729 661.721239 74.954369 661.255599 
C 75.42001 660.789958 75.681641 660.158326 75.681641 659.499811 
C 75.681641 658.841296 75.42001 658.209663 74.954369 657.744022 
C 74.488729 657.278382 73.857096 657.016751 73.198581 657.016751 
C 72.540066 657.016751 71.908434 657.278382 71.442793 657.744022 
C 70.977153 658.209663 70.715522 658.841296 70.715522 659.499811 
C 70.715522 660.158326 70.977153 660.789958 71.442793 661.255599 
C 71.908434 661.721239 72.540066 661.98287 73.198581 661.98287 
z
" clip-path="url(#pb4212d2990)" style="fill: #0024ed; stroke: #ffffff; stroke-width: 0.398981"/>
    <path d="M 290.12655 580.784499 
C 290.837849 580.784499 291.520111 580.501897 292.023076 579.998932 
C 292.526041 579.495967 292.808643 578.813705 292.808643 578.102406 
C 292.808643 577.391106 292.526041 576.708844 292.023076 576.205879 
C 291.520111 575.702915 290.837849 575.420312 290.12655 575.420312 
C 289.41525 575.420312 288.732988 575.702915 288.230023 576.205879 
C 287.727059 576.708844 287.444456 577.391106 287.444456 578.102406 
C 287.444456 578.813705 287.727059 579.495967 288.230023 579.998932 
C 288.732988 580.501897 289.41525 580.784499 290.12655 580.784499 
z
" clip-path="url(#pb4212d2990)" style="fill: #0024ed; stroke: #ffffff; stroke-width: 0.398981"/>
    <path d="M 111.951565 653.183714 
C 112.973343 653.183714 113.953408 652.777757 114.675914 652.055251 
C 115.39842 651.332745 115.804377 650.35268 115.804377 649.330902 
C 115.804377 648.309125 115.39842 647.329059 114.675914 646.606553 
C 113.953408 645.884047 112.973343 645.478091 111.951565 645.478091 
C 110.929788 645.478091 109.949722 645.884047 109.227216 646.606553 
C 108.50471 647.329059 108.098754 648.309125 108.098754 649.330902 
C 108.098754 650.35268 108.50471 651.332745 109.227216 652.055251 
C 109.949722 652.777757 110.929788 653.183714 111.951565 653.183714 
z
" clip-path="url(#pb4212d2990)" style="fill: #0092b6; stroke: #ffffff; stroke-width: 0.398981"/>
    <path d="M 363.678892 247.352521 
C 364.659094 247.352521 365.59928 246.963083 366.292387 246.269976 
C 366.985494 245.576869 367.374933 244.636682 367.374933 243.65648 
C 367.374933 242.676279 366.985494 241.736092 366.292387 241.042985 
C 365.59928 240.349878 364.659094 239.96044 363.678892 239.96044 
C 362.698691 239.96044 361.758504 240.349878 361.065397 241.042985 
C 360.37229 241.736092 359.982852 242.676279 359.982852 243.65648 
C 359.982852 244.636682 360.37229 245.576869 361.065397 246.269976 
C 361.758504 246.963083 362.698691 247.352521 363.678892 247.352521 
z
" clip-path="url(#pb4212d2990)" style="fill: #006dc8; stroke: #ffffff; stroke-width: 0.398981"/>
    <path d="M 91.705921 634.325591 
C 92.718515 634.325591 93.689773 633.923283 94.405785 633.207271 
C 95.121798 632.491258 95.524106 631.520001 95.524106 630.507406 
C 95.524106 629.494811 95.121798 628.523554 94.405785 627.807541 
C 93.689773 627.091529 92.718515 626.689221 91.705921 626.689221 
C 90.693326 626.689221 89.722068 627.091529 89.006056 627.807541 
C 88.290043 628.523554 87.887735 629.494811 87.887735 630.507406 
C 87.887735 631.520001 88.290043 632.491258 89.006056 633.207271 
C 89.722068 633.923283 90.693326 634.325591 91.705921 634.325591 
z
" clip-path="url(#pb4212d2990)" style="fill: #0092b6; stroke: #ffffff; stroke-width: 0.398981"/>
    <path d="M 186.768783 617.631274 
C 187.640801 617.631274 188.477221 617.284818 189.09383 616.668208 
C 189.71044 616.051598 190.056897 615.215179 190.056897 614.343161 
C 190.056897 613.471143 189.71044 612.634723 189.09383 612.018114 
C 188.477221 611.401504 187.640801 611.055048 186.768783 611.055048 
C 185.896766 611.055048 185.060346 611.401504 184.443736 612.018114 
C 183.827126 612.634723 183.48067 613.471143 183.48067 614.343161 
C 183.48067 615.215179 183.827126 616.051598 184.443736 616.668208 
C 185.060346 617.284818 185.896766 617.631274 186.768783 617.631274 
z
" clip-path="url(#pb4212d2990)" style="fill: #006dc8; stroke: #ffffff; stroke-width: 0.398981"/>
    <path d="M 539.700237 767.891137 
C 540.497793 767.891137 541.262791 767.574264 541.826748 767.010307 
C 542.390705 766.44635 542.707578 765.681352 542.707578 764.883796 
C 542.707578 764.08624 542.390705 763.321243 541.826748 762.757285 
C 541.262791 762.193328 540.497793 761.876456 539.700237 761.876456 
C 538.902681 761.876456 538.137684 762.193328 537.573726 762.757285 
C 537.009769 763.321243 536.692897 764.08624 536.692897 764.883796 
C 536.692897 765.681352 537.009769 766.44635 537.573726 767.010307 
C 538.137684 767.574264 538.902681 767.891137 539.700237 767.891137 
z
" clip-path="url(#pb4212d2990)" style="fill: #0049db; stroke: #ffffff; stroke-width: 0.398981"/>
    <path d="M 132.905816 669.27014 
C 133.761777 669.27014 134.582796 668.930063 135.188052 668.324806 
C 135.793309 667.71955 136.133386 666.898531 136.133386 666.04257 
C 136.133386 665.186608 135.793309 664.365589 135.188052 663.760333 
C 134.582796 663.155077 133.761777 662.815 132.905816 662.815 
C 132.049854 662.815 131.228835 663.155077 130.623579 663.760333 
C 130.018323 664.365589 129.678246 665.186608 129.678246 666.04257 
C 129.678246 666.898531 130.018323 667.71955 130.623579 668.324806 
C 131.228835 668.930063 132.049854 669.27014 132.905816 669.27014 
z
" clip-path="url(#pb4212d2990)" style="fill: #006dc8; stroke: #ffffff; stroke-width: 0.398981"/>
    <path d="M 135.27042 675.61392 
C 135.891348 675.61392 136.486927 675.367223 136.925989 674.928161 
C 137.365051 674.489099 137.611749 673.893519 137.611749 673.272592 
C 137.611749 672.651664 137.365051 672.056085 136.925989 671.617023 
C 136.486927 671.177961 135.891348 670.931263 135.27042 670.931263 
C 134.649493 670.931263 134.053913 671.177961 133.614851 671.617023 
C 133.175789 672.056085 132.929092 672.651664 132.929092 673.272592 
C 132.929092 673.893519 133.175789 674.489099 133.614851 674.928161 
C 134.053913 675.367223 134.649493 675.61392 135.27042 675.61392 
z
" clip-path="url(#pb4212d2990)" style="fill: #0024ed; stroke: #ffffff; stroke-width: 0.398981"/>
    <path d="M 254.897556 724.439073 
C 255.705615 724.439073 256.480686 724.118028 257.05207 723.546644 
C 257.623454 722.975261 257.944499 722.200189 257.944499 721.392131 
C 257.944499 720.584072 257.623454 719.809001 257.05207 719.237617 
C 256.480686 718.666233 255.705615 718.345188 254.897556 718.345188 
C 254.089498 718.345188 253.314426 718.666233 252.743043 719.237617 
C 252.171659 719.809001 251.850614 720.584072 251.850614 721.392131 
C 251.850614 722.200189 252.171659 722.975261 252.743043 723.546644 
C 253.314426 724.118028 254.089498 724.439073 254.897556 724.439073 
z
" clip-path="url(#pb4212d2990)" style="fill: #0049db; stroke: #ffffff; stroke-width: 0.398981"/>
    <path d="M 339.14576 705.796386 
C 339.996529 705.796386 340.812567 705.458372 341.414151 704.856788 
C 342.015735 704.255204 342.353749 703.439166 342.353749 702.588397 
C 342.353749 701.737628 342.015735 700.921591 341.414151 700.320006 
C 340.812567 699.718422 339.996529 699.380408 339.14576 699.380408 
C 338.294992 699.380408 337.478954 699.718422 336.877369 700.320006 
C 336.275785 700.921591 335.937771 701.737628 335.937771 702.588397 
C 335.937771 703.439166 336.275785 704.255204 336.877369 704.856788 
C 337.478954 705.458372 338.294992 705.796386 339.14576 705.796386 
z
" clip-path="url(#pb4212d2990)" style="fill: #006dc8; stroke: #ffffff; stroke-width: 0.398981"/>
    <path d="M 94.747667 496.511462 
C 95.603172 496.511462 96.423753 496.171566 97.028686 495.566633 
C 97.633619 494.9617 97.973514 494.14112 97.973514 493.285615 
C 97.973514 492.43011 97.633619 491.60953 97.028686 491.004597 
C 96.423753 490.399664 95.603172 490.059768 94.747667 490.059768 
C 93.892163 490.059768 93.071582 490.399664 92.466649 491.004597 
C 91.861716 491.60953 91.52182 492.43011 91.52182 493.285615 
C 91.52182 494.14112 91.861716 494.9617 92.466649 495.566633 
C 93.071582 496.171566 93.892163 496.511462 94.747667 496.511462 
z
" clip-path="url(#pb4212d2990)" style="fill: #00b6a4; stroke: #ffffff; stroke-width: 0.398981"/>
    <path d="M 84.547828 631.323452 
C 85.253788 631.323452 85.93093 631.042971 86.430119 630.543781 
C 86.929308 630.044592 87.209789 629.367451 87.209789 628.66149 
C 87.209789 627.95553 86.929308 627.278389 86.430119 626.779199 
C 85.93093 626.28001 85.253788 625.999529 84.547828 625.999529 
C 83.841867 625.999529 83.164726 626.28001 82.665537 626.779199 
C 82.166348 627.278389 81.885866 627.95553 81.885866 628.66149 
C 81.885866 629.367451 82.166348 630.044592 82.665537 630.543781 
C 83.164726 631.042971 83.841867 631.323452 84.547828 631.323452 
z
" clip-path="url(#pb4212d2990)" style="fill: #0024ed; stroke: #ffffff; stroke-width: 0.398981"/>
    <path d="M 65.576202 662.343377 
C 66.44112 662.343377 67.27073 661.999742 67.88232 661.388152 
C 68.49391 660.776562 68.837546 659.946952 68.837546 659.082033 
C 68.837546 658.217115 68.49391 657.387505 67.88232 656.775915 
C 67.27073 656.164325 66.44112 655.82069 65.576202 655.82069 
C 64.711283 655.82069 63.881673 656.164325 63.270083 656.775915 
C 62.658494 657.387505 62.314858 658.217115 62.314858 659.082033 
C 62.314858 659.946952 62.658494 660.776562 63.270083 661.388152 
C 63.881673 661.999742 64.711283 662.343377 65.576202 662.343377 
z
" clip-path="url(#pb4212d2990)" style="fill: #006dc8; stroke: #ffffff; stroke-width: 0.398981"/>
    <path d="M 318.280728 703.2702 
C 319.405889 703.2702 320.485118 702.823169 321.280728 702.027559 
C 322.076337 701.23195 322.523368 700.152721 322.523368 699.027559 
C 322.523368 697.902398 322.076337 696.823169 321.280728 696.027559 
C 320.485118 695.23195 319.405889 694.784919 318.280728 694.784919 
C 317.155566 694.784919 316.076337 695.23195 315.280728 696.027559 
C 314.485118 696.823169 314.038087 697.902398 314.038087 699.027559 
C 314.038087 700.152721 314.485118 701.23195 315.280728 702.027559 
C 316.076337 702.823169 317.155566 703.2702 318.280728 703.2702 
z
" clip-path="url(#pb4212d2990)" style="fill: #0092b6; stroke: #ffffff; stroke-width: 0.398981"/>
    <path d="M 391.026868 65.20697 
C 392.109298 65.20697 393.147541 64.776916 393.912935 64.011522 
C 394.678329 63.246128 395.108383 62.207885 395.108383 61.125455 
C 395.108383 60.043024 394.678329 59.004781 393.912935 58.239387 
C 393.147541 57.473994 392.109298 57.043939 391.026868 57.043939 
C 389.944437 57.043939 388.906195 57.473994 388.140801 58.239387 
C 387.375407 59.004781 386.945353 60.043024 386.945353 61.125455 
C 386.945353 62.207885 387.375407 63.246128 388.140801 64.011522 
C 388.906195 64.776916 389.944437 65.20697 391.026868 65.20697 
z
" clip-path="url(#pb4212d2990)" style="fill: #0092b6; stroke: #ffffff; stroke-width: 0.398981"/>
    <path d="M 102.824975 658.611912 
C 103.721398 658.611912 104.581226 658.255759 105.215092 657.621893 
C 105.848959 656.988026 106.205112 656.128198 106.205112 655.231775 
C 106.205112 654.335352 105.848959 653.475524 105.215092 652.841657 
C 104.581226 652.207791 103.721398 651.851638 102.824975 651.851638 
C 101.928552 651.851638 101.068724 652.207791 100.434857 652.841657 
C 99.800991 653.475524 99.444838 654.335352 99.444838 655.231775 
C 99.444838 656.128198 99.800991 656.988026 100.434857 657.621893 
C 101.068724 658.255759 101.928552 658.611912 102.824975 658.611912 
z
" clip-path="url(#pb4212d2990)" style="fill: #006dc8; stroke: #ffffff; stroke-width: 0.398981"/>
    <path d="M 284.634856 792.697094 
C 285.553135 792.697094 286.433927 792.332258 287.083248 791.682937 
C 287.732569 791.033616 288.097405 790.152824 288.097405 789.234545 
C 288.097405 788.316267 287.732569 787.435475 287.083248 786.786154 
C 286.433927 786.136833 285.553135 785.771997 284.634856 785.771997 
C 283.716578 785.771997 282.835786 786.136833 282.186465 786.786154 
C 281.537143 787.435475 281.172307 788.316267 281.172307 789.234545 
C 281.172307 790.152824 281.537143 791.033616 282.186465 791.682937 
C 282.835786 792.332258 283.716578 792.697094 284.634856 792.697094 
z
" clip-path="url(#pb4212d2990)" style="fill: #006dc8; stroke: #ffffff; stroke-width: 0.398981"/>
    <path d="M 118.164733 624.385378 
C 119.175134 624.385378 120.144286 623.983942 120.858747 623.269481 
C 121.573208 622.55502 121.974644 621.585867 121.974644 620.575467 
C 121.974644 619.565067 121.573208 618.595914 120.858747 617.881453 
C 120.144286 617.166992 119.175134 616.765556 118.164733 616.765556 
C 117.154333 616.765556 116.18518 617.166992 115.470719 617.881453 
C 114.756259 618.595914 114.354822 619.565067 114.354822 620.575467 
C 114.354822 621.585867 114.756259 622.55502 115.470719 623.269481 
C 116.18518 623.983942 117.154333 624.385378 118.164733 624.385378 
z
" clip-path="url(#pb4212d2990)" style="fill: #0092b6; stroke: #ffffff; stroke-width: 0.398981"/>
    <path d="M 298.047392 679.424633 
C 298.800441 679.424633 299.522747 679.125444 300.055233 678.592958 
C 300.587719 678.060473 300.886908 677.338166 300.886908 676.585118 
C 300.886908 675.832069 300.587719 675.109763 300.055233 674.577277 
C 299.522747 674.044792 298.800441 673.745602 298.047392 673.745602 
C 297.294344 673.745602 296.572037 674.044792 296.039552 674.577277 
C 295.507066 675.109763 295.207877 675.832069 295.207877 676.585118 
C 295.207877 677.338166 295.507066 678.060473 296.039552 678.592958 
C 296.572037 679.125444 297.294344 679.424633 298.047392 679.424633 
z
" clip-path="url(#pb4212d2990)" style="fill: #0049db; stroke: #ffffff; stroke-width: 0.398981"/>
    <path d="M 196.09608 465.659139 
C 196.860735 465.659139 197.594175 465.355339 198.134868 464.814646 
C 198.675561 464.273953 198.979362 463.540513 198.979362 462.775858 
C 198.979362 462.011203 198.675561 461.277763 198.134868 460.73707 
C 197.594175 460.196377 196.860735 459.892577 196.09608 459.892577 
C 195.331425 459.892577 194.597985 460.196377 194.057292 460.73707 
C 193.5166 461.277763 193.212799 462.011203 193.212799 462.775858 
C 193.212799 463.540513 193.5166 464.273953 194.057292 464.814646 
C 194.597985 465.355339 195.331425 465.659139 196.09608 465.659139 
z
" clip-path="url(#pb4212d2990)" style="fill: #0049db; stroke: #ffffff; stroke-width: 0.398981"/>
   </g>
   <g id="PathCollection_2"/>
   <g id="PathCollection_3"/>
   <g id="PathCollection_4"/>
   <g id="PathCollection_5"/>
   <g id="PathCollection_6"/>
   <g id="PathCollection_7"/>
   <g id="PathCollection_8"/>
   <g id="PathCollection_9"/>
   <g id="PathCollection_10"/>
   <g id="PathCollection_11"/>
   <g id="text_18">
    <!-- AK -->
    <g style="opacity: 0.4" transform="translate(127.510432 651.075997) scale(0.07 -0.07)">
     <defs>
      <path id="DejaVuSans-Bold-41" d="M 3419 850 
L 1538 850 
L 1241 0 
L 31 0 
L 1759 4666 
L 3194 4666 
L 4922 0 
L 3713 0 
L 3419 850 
z
M 1838 1716 
L 3116 1716 
L 2478 3572 
L 1838 1716 
z
" transform="scale(0.015625)"/>
      <path id="DejaVuSans-Bold-4b" d="M 588 4666 
L 1791 4666 
L 1791 2963 
L 3525 4666 
L 4922 4666 
L 2675 2456 
L 5153 0 
L 3647 0 
L 1791 1838 
L 1791 0 
L 588 0 
L 588 4666 
z
" transform="scale(0.015625)"/>
     </defs>
     <use xlink:href="#DejaVuSans-Bold-41"/>
     <use xlink:href="#DejaVuSans-Bold-4b" x="77.392578"/>
    </g>
   </g>
   <g id="text_19">
    <!-- AZ -->
    <g style="opacity: 0.4" transform="translate(92.931609 677.530549) scale(0.07 -0.07)">
     <defs>
      <path id="DejaVuSans-Bold-5a" d="M 359 4666 
L 4281 4666 
L 4281 3938 
L 1778 909 
L 4353 909 
L 4353 0 
L 288 0 
L 288 728 
L 2791 3756 
L 359 3756 
L 359 4666 
z
" transform="scale(0.015625)"/>
     </defs>
     <use xlink:href="#DejaVuSans-Bold-41"/>
     <use xlink:href="#DejaVuSans-Bold-5a" x="77.392578"/>
    </g>
   </g>
   <g id="text_20">
    <!-- CA -->
    <g style="opacity: 0.4" transform="translate(465.013701 781.611039) scale(0.07 -0.07)">
     <use xlink:href="#DejaVuSans-Bold-43"/>
     <use xlink:href="#DejaVuSans-Bold-41" x="73.388672"/>
    </g>
   </g>
   <g id="text_21">
    <!-- CO -->
    <g style="opacity: 0.4" transform="translate(523.68581 744.168541) scale(0.07 -0.07)">
     <defs>
      <path id="DejaVuSans-Bold-4f" d="M 2719 3878 
Q 2169 3878 1866 3472 
Q 1563 3066 1563 2328 
Q 1563 1594 1866 1187 
Q 2169 781 2719 781 
Q 3272 781 3575 1187 
Q 3878 1594 3878 2328 
Q 3878 3066 3575 3472 
Q 3272 3878 2719 3878 
z
M 2719 4750 
Q 3844 4750 4481 4106 
Q 5119 3463 5119 2328 
Q 5119 1197 4481 553 
Q 3844 -91 2719 -91 
Q 1597 -91 958 553 
Q 319 1197 319 2328 
Q 319 3463 958 4106 
Q 1597 4750 2719 4750 
z
" transform="scale(0.015625)"/>
     </defs>
     <use xlink:href="#DejaVuSans-Bold-43"/>
     <use xlink:href="#DejaVuSans-Bold-4f" x="73.388672"/>
    </g>
   </g>
   <g id="text_22">
    <!-- CT -->
    <g style="opacity: 0.4" transform="translate(150.839273 503.666156) scale(0.07 -0.07)">
     <defs>
      <path id="DejaVuSans-Bold-54" d="M 31 4666 
L 4331 4666 
L 4331 3756 
L 2784 3756 
L 2784 0 
L 1581 0 
L 1581 3756 
L 31 3756 
L 31 4666 
z
" transform="scale(0.015625)"/>
     </defs>
     <use xlink:href="#DejaVuSans-Bold-43"/>
     <use xlink:href="#DejaVuSans-Bold-54" x="73.388672"/>
    </g>
   </g>
   <g id="text_23">
    <!-- ID -->
    <g style="opacity: 0.4" transform="translate(269.840825 622.133069) scale(0.07 -0.07)">
     <defs>
      <path id="DejaVuSans-Bold-49" d="M 588 4666 
L 1791 4666 
L 1791 0 
L 588 0 
L 588 4666 
z
" transform="scale(0.015625)"/>
      <path id="DejaVuSans-Bold-44" d="M 1791 3756 
L 1791 909 
L 2222 909 
Q 2959 909 3348 1275 
Q 3738 1641 3738 2338 
Q 3738 3031 3350 3393 
Q 2963 3756 2222 3756 
L 1791 3756 
z
M 588 4666 
L 1856 4666 
Q 2919 4666 3439 4514 
Q 3959 4363 4331 4000 
Q 4659 3684 4818 3271 
Q 4978 2859 4978 2338 
Q 4978 1809 4818 1395 
Q 4659 981 4331 666 
Q 3956 303 3431 151 
Q 2906 0 1856 0 
L 588 0 
L 588 4666 
z
" transform="scale(0.015625)"/>
     </defs>
     <use xlink:href="#DejaVuSans-Bold-49"/>
     <use xlink:href="#DejaVuSans-Bold-44" x="37.207031"/>
    </g>
   </g>
   <g id="text_24">
    <!-- IL -->
    <g style="opacity: 0.4" transform="translate(105.049905 673.784463) scale(0.07 -0.07)">
     <defs>
      <path id="DejaVuSans-Bold-4c" d="M 588 4666 
L 1791 4666 
L 1791 909 
L 3903 909 
L 3903 0 
L 588 0 
L 588 4666 
z
" transform="scale(0.015625)"/>
     </defs>
     <use xlink:href="#DejaVuSans-Bold-49"/>
     <use xlink:href="#DejaVuSans-Bold-4c" x="37.207031"/>
    </g>
   </g>
   <g id="text_25">
    <!-- IN -->
    <g style="opacity: 0.4" transform="translate(88.703963 672.325944) scale(0.07 -0.07)">
     <defs>
      <path id="DejaVuSans-Bold-4e" d="M 588 4666 
L 1931 4666 
L 3628 1466 
L 3628 4666 
L 4769 4666 
L 4769 0 
L 3425 0 
L 1728 3200 
L 1728 0 
L 588 0 
L 588 4666 
z
" transform="scale(0.015625)"/>
     </defs>
     <use xlink:href="#DejaVuSans-Bold-49"/>
     <use xlink:href="#DejaVuSans-Bold-4e" x="37.207031"/>
    </g>
   </g>
   <g id="text_26">
    <!-- IA -->
    <g style="opacity: 0.4" transform="translate(93.049415 661.472856) scale(0.07 -0.07)">
     <use xlink:href="#DejaVuSans-Bold-49"/>
     <use xlink:href="#DejaVuSans-Bold-41" x="37.207031"/>
    </g>
   </g>
   <g id="text_27">
    <!-- ME -->
    <g style="opacity: 0.4" transform="translate(203.096235 563.845942) scale(0.07 -0.07)">
     <defs>
      <path id="DejaVuSans-Bold-4d" d="M 588 4666 
L 2119 4666 
L 3181 2169 
L 4250 4666 
L 5778 4666 
L 5778 0 
L 4641 0 
L 4641 3413 
L 3566 897 
L 2803 897 
L 1728 3413 
L 1728 0 
L 588 0 
L 588 4666 
z
" transform="scale(0.015625)"/>
      <path id="DejaVuSans-Bold-45" d="M 588 4666 
L 3834 4666 
L 3834 3756 
L 1791 3756 
L 1791 2888 
L 3713 2888 
L 3713 1978 
L 1791 1978 
L 1791 909 
L 3903 909 
L 3903 0 
L 588 0 
L 588 4666 
z
" transform="scale(0.015625)"/>
     </defs>
     <use xlink:href="#DejaVuSans-Bold-4d"/>
     <use xlink:href="#DejaVuSans-Bold-45" x="99.511719"/>
    </g>
   </g>
   <g id="text_28">
    <!-- MD -->
    <g style="opacity: 0.4" transform="translate(78.544761 662.441425) scale(0.07 -0.07)">
     <use xlink:href="#DejaVuSans-Bold-4d"/>
     <use xlink:href="#DejaVuSans-Bold-44" x="99.511719"/>
    </g>
   </g>
   <g id="text_29">
    <!-- MA -->
    <g style="opacity: 0.4" transform="translate(224.382832 469.840192) scale(0.07 -0.07)">
     <use xlink:href="#DejaVuSans-Bold-4d"/>
     <use xlink:href="#DejaVuSans-Bold-41" x="99.511719"/>
    </g>
   </g>
   <g id="text_30">
    <!-- MI -->
    <g style="opacity: 0.4" transform="translate(470.989645 727.019308) scale(0.07 -0.07)">
     <use xlink:href="#DejaVuSans-Bold-4d"/>
     <use xlink:href="#DejaVuSans-Bold-49" x="99.511719"/>
    </g>
   </g>
   <g id="text_31">
    <!-- MN -->
    <g style="opacity: 0.4" transform="translate(272.605103 696.939695) scale(0.07 -0.07)">
     <use xlink:href="#DejaVuSans-Bold-4d"/>
     <use xlink:href="#DejaVuSans-Bold-4e" x="99.511719"/>
    </g>
   </g>
   <g id="text_32">
    <!-- MO -->
    <g style="opacity: 0.4" transform="translate(74.739987 668.044029) scale(0.07 -0.07)">
     <use xlink:href="#DejaVuSans-Bold-4d"/>
     <use xlink:href="#DejaVuSans-Bold-4f" x="99.511719"/>
    </g>
   </g>
   <g id="text_33">
    <!-- MT -->
    <g style="opacity: 0.4" transform="translate(292.255846 586.646624) scale(0.07 -0.07)">
     <use xlink:href="#DejaVuSans-Bold-4d"/>
     <use xlink:href="#DejaVuSans-Bold-54" x="99.511719"/>
    </g>
   </g>
   <g id="text_34">
    <!-- NV -->
    <g style="opacity: 0.4" transform="translate(114.313831 657.875121) scale(0.07 -0.07)">
     <defs>
      <path id="DejaVuSans-Bold-56" d="M 31 4666 
L 1241 4666 
L 2478 1222 
L 3713 4666 
L 4922 4666 
L 3194 0 
L 1759 0 
L 31 4666 
z
" transform="scale(0.015625)"/>
     </defs>
     <use xlink:href="#DejaVuSans-Bold-4e"/>
     <use xlink:href="#DejaVuSans-Bold-56" x="83.691406"/>
    </g>
   </g>
   <g id="text_35">
    <!-- NH -->
    <g style="opacity: 0.4" transform="translate(365.820767 252.200699) scale(0.07 -0.07)">
     <defs>
      <path id="DejaVuSans-Bold-48" d="M 588 4666 
L 1791 4666 
L 1791 2888 
L 3566 2888 
L 3566 4666 
L 4769 4666 
L 4769 0 
L 3566 0 
L 3566 1978 
L 1791 1978 
L 1791 0 
L 588 0 
L 588 4666 
z
" transform="scale(0.015625)"/>
     </defs>
     <use xlink:href="#DejaVuSans-Bold-4e"/>
     <use xlink:href="#DejaVuSans-Bold-48" x="83.691406"/>
    </g>
   </g>
   <g id="text_36">
    <!-- NJ -->
    <g style="opacity: 0.4" transform="translate(95.474749 639.051625) scale(0.07 -0.07)">
     <defs>
      <path id="DejaVuSans-Bold-4a" d="M 588 4666 
L 1791 4666 
L 1791 453 
Q 1791 -419 1317 -850 
Q 844 -1281 -116 -1281 
L -359 -1281 
L -359 -372 
L -172 -372 
Q 203 -372 395 -162 
Q 588 47 588 453 
L 588 4666 
z
" transform="scale(0.015625)"/>
     </defs>
     <use xlink:href="#DejaVuSans-Bold-4e"/>
     <use xlink:href="#DejaVuSans-Bold-4a" x="83.691406"/>
    </g>
   </g>
   <g id="text_37">
    <!-- NM -->
    <g style="opacity: 0.4" transform="translate(188.356674 622.88738) scale(0.07 -0.07)">
     <use xlink:href="#DejaVuSans-Bold-4e"/>
     <use xlink:href="#DejaVuSans-Bold-4d" x="83.691406"/>
    </g>
   </g>
   <g id="text_38">
    <!-- NY -->
    <g style="opacity: 0.4" transform="translate(542.236956 773.428015) scale(0.07 -0.07)">
     <defs>
      <path id="DejaVuSans-Bold-59" d="M -63 4666 
L 1253 4666 
L 2316 3003 
L 3378 4666 
L 4697 4666 
L 2919 1966 
L 2919 0 
L 1716 0 
L 1716 1966 
L -63 4666 
z
" transform="scale(0.015625)"/>
     </defs>
     <use xlink:href="#DejaVuSans-Bold-4e"/>
     <use xlink:href="#DejaVuSans-Bold-59" x="83.691406"/>
    </g>
   </g>
   <g id="text_39">
    <!-- NC -->
    <g style="opacity: 0.4" transform="translate(135.408081 674.586789) scale(0.07 -0.07)">
     <use xlink:href="#DejaVuSans-Bold-4e"/>
     <use xlink:href="#DejaVuSans-Bold-43" x="83.691406"/>
    </g>
   </g>
   <g id="text_40">
    <!-- OH -->
    <g style="opacity: 0.4" transform="translate(137.365811 681.816811) scale(0.07 -0.07)">
     <use xlink:href="#DejaVuSans-Bold-4f"/>
     <use xlink:href="#DejaVuSans-Bold-48" x="85.009766"/>
    </g>
   </g>
   <g id="text_41">
    <!-- OR -->
    <g style="opacity: 0.4" transform="translate(257.227009 729.936349) scale(0.07 -0.07)">
     <defs>
      <path id="DejaVuSans-Bold-52" d="M 2297 2597 
Q 2675 2597 2839 2737 
Q 3003 2878 3003 3200 
Q 3003 3519 2839 3656 
Q 2675 3794 2297 3794 
L 1791 3794 
L 1791 2597 
L 2297 2597 
z
M 1791 1766 
L 1791 0 
L 588 0 
L 588 4666 
L 2425 4666 
Q 3347 4666 3776 4356 
Q 4206 4047 4206 3378 
Q 4206 2916 3982 2619 
Q 3759 2322 3309 2181 
Q 3556 2125 3751 1926 
Q 3947 1728 4147 1325 
L 4800 0 
L 3519 0 
L 2950 1159 
Q 2778 1509 2601 1637 
Q 2425 1766 2131 1766 
L 1791 1766 
z
" transform="scale(0.015625)"/>
     </defs>
     <use xlink:href="#DejaVuSans-Bold-4f"/>
     <use xlink:href="#DejaVuSans-Bold-52" x="85.009766"/>
    </g>
   </g>
   <g id="text_42">
    <!-- PA -->
    <g style="opacity: 0.4" transform="translate(342.191073 711.132616) scale(0.07 -0.07)">
     <use xlink:href="#DejaVuSans-Bold-50"/>
     <use xlink:href="#DejaVuSans-Bold-41" x="64.166016"/>
    </g>
   </g>
   <g id="text_43">
    <!-- RI -->
    <g style="opacity: 0.4" transform="translate(98.750558 501.829834) scale(0.07 -0.07)">
     <use xlink:href="#DejaVuSans-Bold-52"/>
     <use xlink:href="#DejaVuSans-Bold-49" x="77.001953"/>
    </g>
   </g>
   <g id="text_44">
    <!-- SD -->
    <g style="opacity: 0.4" transform="translate(87.121734 637.205709) scale(0.07 -0.07)">
     <defs>
      <path id="DejaVuSans-Bold-53" d="M 3834 4519 
L 3834 3531 
Q 3450 3703 3084 3790 
Q 2719 3878 2394 3878 
Q 1963 3878 1756 3759 
Q 1550 3641 1550 3391 
Q 1550 3203 1689 3098 
Q 1828 2994 2194 2919 
L 2706 2816 
Q 3484 2659 3812 2340 
Q 4141 2022 4141 1434 
Q 4141 663 3683 286 
Q 3225 -91 2284 -91 
Q 1841 -91 1394 -6 
Q 947 78 500 244 
L 500 1259 
Q 947 1022 1364 901 
Q 1781 781 2169 781 
Q 2563 781 2772 912 
Q 2981 1044 2981 1288 
Q 2981 1506 2839 1625 
Q 2697 1744 2272 1838 
L 1806 1941 
Q 1106 2091 782 2419 
Q 459 2747 459 3303 
Q 459 4000 909 4375 
Q 1359 4750 2203 4750 
Q 2588 4750 2994 4692 
Q 3400 4634 3834 4519 
z
" transform="scale(0.015625)"/>
     </defs>
     <use xlink:href="#DejaVuSans-Bold-53"/>
     <use xlink:href="#DejaVuSans-Bold-44" x="72.021484"/>
    </g>
   </g>
   <g id="text_45">
    <!-- TN -->
    <g style="opacity: 0.4" transform="translate(68.259483 667.626252) scale(0.07 -0.07)">
     <use xlink:href="#DejaVuSans-Bold-54"/>
     <use xlink:href="#DejaVuSans-Bold-4e" x="68.212891"/>
    </g>
   </g>
   <g id="text_46">
    <!-- UT -->
    <g style="opacity: 0.4" transform="translate(321.050962 707.571778) scale(0.07 -0.07)">
     <defs>
      <path id="DejaVuSans-Bold-55" d="M 588 4666 
L 1791 4666 
L 1791 1869 
Q 1791 1291 1980 1042 
Q 2169 794 2597 794 
Q 3028 794 3217 1042 
Q 3406 1291 3406 1869 
L 3406 4666 
L 4609 4666 
L 4609 1869 
Q 4609 878 4112 393 
Q 3616 -91 2597 -91 
Q 1581 -91 1084 393 
Q 588 878 588 1869 
L 588 4666 
z
" transform="scale(0.015625)"/>
     </defs>
     <use xlink:href="#DejaVuSans-Bold-55"/>
     <use xlink:href="#DejaVuSans-Bold-54" x="81.201172"/>
    </g>
   </g>
   <g id="text_47">
    <!-- VT -->
    <g style="opacity: 0.4" transform="translate(393.93054 69.669673) scale(0.07 -0.07)">
     <use xlink:href="#DejaVuSans-Bold-56"/>
     <use xlink:href="#DejaVuSans-Bold-54" x="77.392578"/>
    </g>
   </g>
   <g id="text_48">
    <!-- VA -->
    <g style="opacity: 0.4" transform="translate(105.643881 663.775994) scale(0.07 -0.07)">
     <use xlink:href="#DejaVuSans-Bold-56"/>
     <use xlink:href="#DejaVuSans-Bold-41" x="70.642578"/>
    </g>
   </g>
   <g id="text_49">
    <!-- WA -->
    <g style="opacity: 0.4" transform="translate(286.223294 797.778764) scale(0.07 -0.07)">
     <defs>
      <path id="DejaVuSans-Bold-57" d="M 191 4666 
L 1344 4666 
L 2150 1275 
L 2950 4666 
L 4109 4666 
L 4909 1275 
L 5716 4666 
L 6859 4666 
L 5759 0 
L 4372 0 
L 3525 3547 
L 2688 0 
L 1300 0 
L 191 4666 
z
" transform="scale(0.015625)"/>
     </defs>
     <use xlink:href="#DejaVuSans-Bold-57"/>
     <use xlink:href="#DejaVuSans-Bold-41" x="105.802734"/>
    </g>
   </g>
   <g id="text_50">
    <!-- WV -->
    <g style="opacity: 0.4" transform="translate(119.595671 629.119685) scale(0.07 -0.07)">
     <use xlink:href="#DejaVuSans-Bold-57"/>
     <use xlink:href="#DejaVuSans-Bold-56" x="110.302734"/>
    </g>
   </g>
   <g id="text_51">
    <!-- WI -->
    <g style="opacity: 0.4" transform="translate(300.884892 685.129336) scale(0.07 -0.07)">
     <use xlink:href="#DejaVuSans-Bold-57"/>
     <use xlink:href="#DejaVuSans-Bold-49" x="110.302734"/>
    </g>
   </g>
   <g id="text_52">
    <!-- WY -->
    <g style="opacity: 0.4" transform="translate(197.701471 471.320077) scale(0.07 -0.07)">
     <use xlink:href="#DejaVuSans-Bold-57"/>
     <use xlink:href="#DejaVuSans-Bold-59" x="110.302734"/>
    </g>
   </g>
   <g id="patch_3">
    <path d="M 41.87 825.64 
L 41.87 24.72 
" style="fill: none; stroke: #ffffff; stroke-linejoin: miter; stroke-linecap: square"/>
   </g>
   <g id="patch_4">
    <path d="M 563.406439 825.64 
L 563.406439 24.72 
" style="fill: none; stroke: #ffffff; stroke-linejoin: miter; stroke-linecap: square"/>
   </g>
   <g id="patch_5">
    <path d="M 41.87 825.64 
L 563.406439 825.64 
" style="fill: none; stroke: #ffffff; stroke-linejoin: miter; stroke-linecap: square"/>
   </g>
   <g id="patch_6">
    <path d="M 41.87 24.72 
L 563.406439 24.72 
" style="fill: none; stroke: #ffffff; stroke-linejoin: miter; stroke-linecap: square"/>
   </g>
   <g id="text_53">
    <!-- Ski states summary PCA, 76.2% variance explained -->
    <g transform="translate(157.830407 18.72) scale(0.1 -0.1)">
     <defs>
      <path id="DejaVuSans-Bold-6b" d="M 538 4863 
L 1656 4863 
L 1656 2216 
L 2944 3500 
L 4244 3500 
L 2534 1894 
L 4378 0 
L 3022 0 
L 1656 1459 
L 1656 0 
L 538 0 
L 538 4863 
z
" transform="scale(0.015625)"/>
      <path id="DejaVuSans-Bold-69" d="M 538 3500 
L 1656 3500 
L 1656 0 
L 538 0 
L 538 3500 
z
M 538 4863 
L 1656 4863 
L 1656 3950 
L 538 3950 
L 538 4863 
z
" transform="scale(0.015625)"/>
      <path id="DejaVuSans-Bold-20" transform="scale(0.015625)"/>
      <path id="DejaVuSans-Bold-73" d="M 3272 3391 
L 3272 2541 
Q 2913 2691 2578 2766 
Q 2244 2841 1947 2841 
Q 1628 2841 1473 2761 
Q 1319 2681 1319 2516 
Q 1319 2381 1436 2309 
Q 1553 2238 1856 2203 
L 2053 2175 
Q 2913 2066 3209 1816 
Q 3506 1566 3506 1031 
Q 3506 472 3093 190 
Q 2681 -91 1863 -91 
Q 1516 -91 1145 -36 
Q 775 19 384 128 
L 384 978 
Q 719 816 1070 734 
Q 1422 653 1784 653 
Q 2113 653 2278 743 
Q 2444 834 2444 1013 
Q 2444 1163 2330 1236 
Q 2216 1309 1875 1350 
L 1678 1375 
Q 931 1469 631 1722 
Q 331 1975 331 2491 
Q 331 3047 712 3315 
Q 1094 3584 1881 3584 
Q 2191 3584 2531 3537 
Q 2872 3491 3272 3391 
z
" transform="scale(0.015625)"/>
      <path id="DejaVuSans-Bold-74" d="M 1759 4494 
L 1759 3500 
L 2913 3500 
L 2913 2700 
L 1759 2700 
L 1759 1216 
Q 1759 972 1856 886 
Q 1953 800 2241 800 
L 2816 800 
L 2816 0 
L 1856 0 
Q 1194 0 917 276 
Q 641 553 641 1216 
L 641 2700 
L 84 2700 
L 84 3500 
L 641 3500 
L 641 4494 
L 1759 4494 
z
" transform="scale(0.015625)"/>
      <path id="DejaVuSans-Bold-61" d="M 2106 1575 
Q 1756 1575 1579 1456 
Q 1403 1338 1403 1106 
Q 1403 894 1545 773 
Q 1688 653 1941 653 
Q 2256 653 2472 879 
Q 2688 1106 2688 1447 
L 2688 1575 
L 2106 1575 
z
M 3816 1997 
L 3816 0 
L 2688 0 
L 2688 519 
Q 2463 200 2181 54 
Q 1900 -91 1497 -91 
Q 953 -91 614 226 
Q 275 544 275 1050 
Q 275 1666 698 1953 
Q 1122 2241 2028 2241 
L 2688 2241 
L 2688 2328 
Q 2688 2594 2478 2717 
Q 2269 2841 1825 2841 
Q 1466 2841 1156 2769 
Q 847 2697 581 2553 
L 581 3406 
Q 941 3494 1303 3539 
Q 1666 3584 2028 3584 
Q 2975 3584 3395 3211 
Q 3816 2838 3816 1997 
z
" transform="scale(0.015625)"/>
      <path id="DejaVuSans-Bold-65" d="M 4031 1759 
L 4031 1441 
L 1416 1441 
Q 1456 1047 1700 850 
Q 1944 653 2381 653 
Q 2734 653 3104 758 
Q 3475 863 3866 1075 
L 3866 213 
Q 3469 63 3072 -14 
Q 2675 -91 2278 -91 
Q 1328 -91 801 392 
Q 275 875 275 1747 
Q 275 2603 792 3093 
Q 1309 3584 2216 3584 
Q 3041 3584 3536 3087 
Q 4031 2591 4031 1759 
z
M 2881 2131 
Q 2881 2450 2695 2645 
Q 2509 2841 2209 2841 
Q 1884 2841 1681 2658 
Q 1478 2475 1428 2131 
L 2881 2131 
z
" transform="scale(0.015625)"/>
      <path id="DejaVuSans-Bold-75" d="M 500 1363 
L 500 3500 
L 1625 3500 
L 1625 3150 
Q 1625 2866 1622 2436 
Q 1619 2006 1619 1863 
Q 1619 1441 1641 1255 
Q 1663 1069 1716 984 
Q 1784 875 1895 815 
Q 2006 756 2150 756 
Q 2500 756 2700 1025 
Q 2900 1294 2900 1772 
L 2900 3500 
L 4019 3500 
L 4019 0 
L 2900 0 
L 2900 506 
Q 2647 200 2364 54 
Q 2081 -91 1741 -91 
Q 1134 -91 817 281 
Q 500 653 500 1363 
z
" transform="scale(0.015625)"/>
      <path id="DejaVuSans-Bold-6d" d="M 3781 2919 
Q 3994 3244 4286 3414 
Q 4578 3584 4928 3584 
Q 5531 3584 5847 3212 
Q 6163 2841 6163 2131 
L 6163 0 
L 5038 0 
L 5038 1825 
Q 5041 1866 5042 1909 
Q 5044 1953 5044 2034 
Q 5044 2406 4934 2573 
Q 4825 2741 4581 2741 
Q 4263 2741 4089 2478 
Q 3916 2216 3909 1719 
L 3909 0 
L 2784 0 
L 2784 1825 
Q 2784 2406 2684 2573 
Q 2584 2741 2328 2741 
Q 2006 2741 1831 2477 
Q 1656 2213 1656 1722 
L 1656 0 
L 531 0 
L 531 3500 
L 1656 3500 
L 1656 2988 
Q 1863 3284 2130 3434 
Q 2397 3584 2719 3584 
Q 3081 3584 3359 3409 
Q 3638 3234 3781 2919 
z
" transform="scale(0.015625)"/>
      <path id="DejaVuSans-Bold-72" d="M 3138 2547 
Q 2991 2616 2845 2648 
Q 2700 2681 2553 2681 
Q 2122 2681 1889 2404 
Q 1656 2128 1656 1613 
L 1656 0 
L 538 0 
L 538 3500 
L 1656 3500 
L 1656 2925 
Q 1872 3269 2151 3426 
Q 2431 3584 2822 3584 
Q 2878 3584 2943 3579 
Q 3009 3575 3134 3559 
L 3138 2547 
z
" transform="scale(0.015625)"/>
      <path id="DejaVuSans-Bold-79" d="M 78 3500 
L 1197 3500 
L 2138 1125 
L 2938 3500 
L 4056 3500 
L 2584 -331 
Q 2363 -916 2067 -1148 
Q 1772 -1381 1288 -1381 
L 641 -1381 
L 641 -647 
L 991 -647 
Q 1275 -647 1404 -556 
Q 1534 -466 1606 -231 
L 1638 -134 
L 78 3500 
z
" transform="scale(0.015625)"/>
      <path id="DejaVuSans-Bold-2c" d="M 653 1209 
L 1778 1209 
L 1778 256 
L 1006 -909 
L 341 -909 
L 653 256 
L 653 1209 
z
" transform="scale(0.015625)"/>
      <path id="DejaVuSans-Bold-37" d="M 428 4666 
L 3944 4666 
L 3944 3988 
L 2125 0 
L 953 0 
L 2675 3781 
L 428 3781 
L 428 4666 
z
" transform="scale(0.015625)"/>
      <path id="DejaVuSans-Bold-36" d="M 2316 2303 
Q 2000 2303 1842 2098 
Q 1684 1894 1684 1484 
Q 1684 1075 1842 870 
Q 2000 666 2316 666 
Q 2634 666 2792 870 
Q 2950 1075 2950 1484 
Q 2950 1894 2792 2098 
Q 2634 2303 2316 2303 
z
M 3803 4544 
L 3803 3681 
Q 3506 3822 3243 3889 
Q 2981 3956 2731 3956 
Q 2194 3956 1894 3657 
Q 1594 3359 1544 2772 
Q 1750 2925 1990 3001 
Q 2231 3078 2516 3078 
Q 3231 3078 3670 2659 
Q 4109 2241 4109 1563 
Q 4109 813 3618 361 
Q 3128 -91 2303 -91 
Q 1394 -91 895 523 
Q 397 1138 397 2266 
Q 397 3422 980 4083 
Q 1563 4744 2578 4744 
Q 2900 4744 3203 4694 
Q 3506 4644 3803 4544 
z
" transform="scale(0.015625)"/>
      <path id="DejaVuSans-Bold-2e" d="M 653 1209 
L 1778 1209 
L 1778 0 
L 653 0 
L 653 1209 
z
" transform="scale(0.015625)"/>
      <path id="DejaVuSans-Bold-25" d="M 4959 1925 
Q 4738 1925 4616 1733 
Q 4494 1541 4494 1184 
Q 4494 825 4614 633 
Q 4734 441 4959 441 
Q 5184 441 5303 633 
Q 5422 825 5422 1184 
Q 5422 1541 5301 1733 
Q 5181 1925 4959 1925 
z
M 4959 2450 
Q 5541 2450 5875 2112 
Q 6209 1775 6209 1184 
Q 6209 594 5875 251 
Q 5541 -91 4959 -91 
Q 4378 -91 4042 251 
Q 3706 594 3706 1184 
Q 3706 1772 4042 2111 
Q 4378 2450 4959 2450 
z
M 2094 -91 
L 1403 -91 
L 4319 4750 
L 5013 4750 
L 2094 -91 
z
M 1453 4750 
Q 2034 4750 2367 4411 
Q 2700 4072 2700 3481 
Q 2700 2891 2367 2550 
Q 2034 2209 1453 2209 
Q 872 2209 539 2550 
Q 206 2891 206 3481 
Q 206 4072 539 4411 
Q 872 4750 1453 4750 
z
M 1453 4225 
Q 1228 4225 1106 4031 
Q 984 3838 984 3481 
Q 984 3122 1106 2926 
Q 1228 2731 1453 2731 
Q 1678 2731 1798 2926 
Q 1919 3122 1919 3481 
Q 1919 3838 1797 4031 
Q 1675 4225 1453 4225 
z
" transform="scale(0.015625)"/>
      <path id="DejaVuSans-Bold-76" d="M 97 3500 
L 1216 3500 
L 2088 1081 
L 2956 3500 
L 4078 3500 
L 2700 0 
L 1472 0 
L 97 3500 
z
" transform="scale(0.015625)"/>
      <path id="DejaVuSans-Bold-6e" d="M 4056 2131 
L 4056 0 
L 2931 0 
L 2931 347 
L 2931 1631 
Q 2931 2084 2911 2256 
Q 2891 2428 2841 2509 
Q 2775 2619 2662 2680 
Q 2550 2741 2406 2741 
Q 2056 2741 1856 2470 
Q 1656 2200 1656 1722 
L 1656 0 
L 538 0 
L 538 3500 
L 1656 3500 
L 1656 2988 
Q 1909 3294 2193 3439 
Q 2478 3584 2822 3584 
Q 3428 3584 3742 3212 
Q 4056 2841 4056 2131 
z
" transform="scale(0.015625)"/>
      <path id="DejaVuSans-Bold-63" d="M 3366 3391 
L 3366 2478 
Q 3138 2634 2908 2709 
Q 2678 2784 2431 2784 
Q 1963 2784 1702 2511 
Q 1441 2238 1441 1747 
Q 1441 1256 1702 982 
Q 1963 709 2431 709 
Q 2694 709 2930 787 
Q 3166 866 3366 1019 
L 3366 103 
Q 3103 6 2833 -42 
Q 2563 -91 2291 -91 
Q 1344 -91 809 395 
Q 275 881 275 1747 
Q 275 2613 809 3098 
Q 1344 3584 2291 3584 
Q 2566 3584 2833 3536 
Q 3100 3488 3366 3391 
z
" transform="scale(0.015625)"/>
      <path id="DejaVuSans-Bold-78" d="M 1422 1791 
L 159 3500 
L 1344 3500 
L 2059 2463 
L 2784 3500 
L 3969 3500 
L 2706 1797 
L 4031 0 
L 2847 0 
L 2059 1106 
L 1281 0 
L 97 0 
L 1422 1791 
z
" transform="scale(0.015625)"/>
      <path id="DejaVuSans-Bold-70" d="M 1656 506 
L 1656 -1331 
L 538 -1331 
L 538 3500 
L 1656 3500 
L 1656 2988 
Q 1888 3294 2169 3439 
Q 2450 3584 2816 3584 
Q 3463 3584 3878 3070 
Q 4294 2556 4294 1747 
Q 4294 938 3878 423 
Q 3463 -91 2816 -91 
Q 2450 -91 2169 54 
Q 1888 200 1656 506 
z
M 2400 2772 
Q 2041 2772 1848 2508 
Q 1656 2244 1656 1747 
Q 1656 1250 1848 986 
Q 2041 722 2400 722 
Q 2759 722 2948 984 
Q 3138 1247 3138 1747 
Q 3138 2247 2948 2509 
Q 2759 2772 2400 2772 
z
" transform="scale(0.015625)"/>
      <path id="DejaVuSans-Bold-6c" d="M 538 4863 
L 1656 4863 
L 1656 0 
L 538 0 
L 538 4863 
z
" transform="scale(0.015625)"/>
      <path id="DejaVuSans-Bold-64" d="M 2919 2988 
L 2919 4863 
L 4044 4863 
L 4044 0 
L 2919 0 
L 2919 506 
Q 2688 197 2409 53 
Q 2131 -91 1766 -91 
Q 1119 -91 703 423 
Q 288 938 288 1747 
Q 288 2556 703 3070 
Q 1119 3584 1766 3584 
Q 2128 3584 2408 3439 
Q 2688 3294 2919 2988 
z
M 2181 722 
Q 2541 722 2730 984 
Q 2919 1247 2919 1747 
Q 2919 2247 2730 2509 
Q 2541 2772 2181 2772 
Q 1825 2772 1636 2509 
Q 1447 2247 1447 1747 
Q 1447 1247 1636 984 
Q 1825 722 2181 722 
z
" transform="scale(0.015625)"/>
     </defs>
     <use xlink:href="#DejaVuSans-Bold-53"/>
     <use xlink:href="#DejaVuSans-Bold-6b" x="72.021484"/>
     <use xlink:href="#DejaVuSans-Bold-69" x="138.525391"/>
     <use xlink:href="#DejaVuSans-Bold-20" x="172.802734"/>
     <use xlink:href="#DejaVuSans-Bold-73" x="207.617188"/>
     <use xlink:href="#DejaVuSans-Bold-74" x="267.138672"/>
     <use xlink:href="#DejaVuSans-Bold-61" x="314.941406"/>
     <use xlink:href="#DejaVuSans-Bold-74" x="382.421875"/>
     <use xlink:href="#DejaVuSans-Bold-65" x="430.224609"/>
     <use xlink:href="#DejaVuSans-Bold-73" x="498.046875"/>
     <use xlink:href="#DejaVuSans-Bold-20" x="557.568359"/>
     <use xlink:href="#DejaVuSans-Bold-73" x="592.382812"/>
     <use xlink:href="#DejaVuSans-Bold-75" x="651.904297"/>
     <use xlink:href="#DejaVuSans-Bold-6d" x="723.095703"/>
     <use xlink:href="#DejaVuSans-Bold-6d" x="827.294922"/>
     <use xlink:href="#DejaVuSans-Bold-61" x="931.494141"/>
     <use xlink:href="#DejaVuSans-Bold-72" x="998.974609"/>
     <use xlink:href="#DejaVuSans-Bold-79" x="1048.291016"/>
     <use xlink:href="#DejaVuSans-Bold-20" x="1113.476562"/>
     <use xlink:href="#DejaVuSans-Bold-50" x="1148.291016"/>
     <use xlink:href="#DejaVuSans-Bold-43" x="1221.582031"/>
     <use xlink:href="#DejaVuSans-Bold-41" x="1294.970703"/>
     <use xlink:href="#DejaVuSans-Bold-2c" x="1374.238281"/>
     <use xlink:href="#DejaVuSans-Bold-20" x="1412.226562"/>
     <use xlink:href="#DejaVuSans-Bold-37" x="1447.041016"/>
     <use xlink:href="#DejaVuSans-Bold-36" x="1516.621094"/>
     <use xlink:href="#DejaVuSans-Bold-2e" x="1586.201172"/>
     <use xlink:href="#DejaVuSans-Bold-32" x="1624.189453"/>
     <use xlink:href="#DejaVuSans-Bold-25" x="1693.769531"/>
     <use xlink:href="#DejaVuSans-Bold-20" x="1793.964844"/>
     <use xlink:href="#DejaVuSans-Bold-76" x="1828.779297"/>
     <use xlink:href="#DejaVuSans-Bold-61" x="1893.964844"/>
     <use xlink:href="#DejaVuSans-Bold-72" x="1961.445312"/>
     <use xlink:href="#DejaVuSans-Bold-69" x="2010.761719"/>
     <use xlink:href="#DejaVuSans-Bold-61" x="2045.039062"/>
     <use xlink:href="#DejaVuSans-Bold-6e" x="2112.519531"/>
     <use xlink:href="#DejaVuSans-Bold-63" x="2183.710938"/>
     <use xlink:href="#DejaVuSans-Bold-65" x="2242.988281"/>
     <use xlink:href="#DejaVuSans-Bold-20" x="2310.810547"/>
     <use xlink:href="#DejaVuSans-Bold-65" x="2345.625"/>
     <use xlink:href="#DejaVuSans-Bold-78" x="2413.447266"/>
     <use xlink:href="#DejaVuSans-Bold-70" x="2477.949219"/>
     <use xlink:href="#DejaVuSans-Bold-6c" x="2549.53125"/>
     <use xlink:href="#DejaVuSans-Bold-61" x="2583.808594"/>
     <use xlink:href="#DejaVuSans-Bold-69" x="2651.289062"/>
     <use xlink:href="#DejaVuSans-Bold-6e" x="2685.566406"/>
     <use xlink:href="#DejaVuSans-Bold-65" x="2756.757812"/>
     <use xlink:href="#DejaVuSans-Bold-64" x="2824.580078"/>
    </g>
   </g>
   <g id="legend_1">
    <g id="patch_7">
     <path d="M 458.642377 208.8575 
L 556.406439 208.8575 
Q 558.406439 208.8575 558.406439 206.8575 
L 558.406439 31.72 
Q 558.406439 29.72 556.406439 29.72 
L 458.642377 29.72 
Q 456.642377 29.72 456.642377 31.72 
L 456.642377 206.8575 
Q 456.642377 208.8575 458.642377 208.8575 
z
" style="fill: #e5e5e5; opacity: 0.8; stroke: #cccccc; stroke-width: 0.5; stroke-linejoin: miter"/>
    </g>
    <g id="text_54">
     <!-- Quartile -->
     <g transform="translate(468.642377 41.318437) scale(0.1 -0.1)">
      <defs>
       <path id="DejaVuSans-Bold-51" d="M 2847 -84 
L 2753 -84 
Q 1600 -84 959 553 
Q 319 1191 319 2328 
Q 319 3463 958 4106 
Q 1597 4750 2719 4750 
Q 3853 4750 4486 4112 
Q 5119 3475 5119 2328 
Q 5119 1541 4783 972 
Q 4447 403 3816 116 
L 4756 -934 
L 3609 -934 
L 2847 -84 
z
M 2719 3878 
Q 2169 3878 1866 3472 
Q 1563 3066 1563 2328 
Q 1563 1578 1859 1179 
Q 2156 781 2719 781 
Q 3272 781 3575 1187 
Q 3878 1594 3878 2328 
Q 3878 3066 3575 3472 
Q 3272 3878 2719 3878 
z
" transform="scale(0.015625)"/>
      </defs>
      <use xlink:href="#DejaVuSans-Bold-51"/>
      <use xlink:href="#DejaVuSans-Bold-75" x="85.009766"/>
      <use xlink:href="#DejaVuSans-Bold-61" x="156.201172"/>
      <use xlink:href="#DejaVuSans-Bold-72" x="223.681641"/>
      <use xlink:href="#DejaVuSans-Bold-74" x="272.998047"/>
      <use xlink:href="#DejaVuSans-Bold-69" x="320.800781"/>
      <use xlink:href="#DejaVuSans-Bold-6c" x="355.078125"/>
      <use xlink:href="#DejaVuSans-Bold-65" x="389.355469"/>
     </g>
    </g>
    <g id="PathCollection_12">
     <defs>
      <path id="m909bd88a0f" d="M 0 3 
C 0.795609 3 1.55874 2.683901 2.12132 2.12132 
C 2.683901 1.55874 3 0.795609 3 0 
C 3 -0.795609 2.683901 -1.55874 2.12132 -2.12132 
C 1.55874 -2.683901 0.795609 -3 0 -3 
C -0.795609 -3 -1.55874 -2.683901 -2.12132 -2.12132 
C -2.683901 -1.55874 -3 -0.795609 -3 0 
C -3 0.795609 -2.683901 1.55874 -2.12132 2.12132 
C -1.55874 2.683901 -0.795609 3 0 3 
z
" style="stroke: #0024ed; stroke-width: 0.5"/>
     </defs>
     <g>
      <use xlink:href="#m909bd88a0f" x="470.642377" y="53.371562" style="fill: #0024ed; stroke: #0024ed; stroke-width: 0.5"/>
     </g>
    </g>
    <g id="text_55">
     <!-- (41.6, 53.1] -->
     <g transform="translate(488.642377 55.996562) scale(0.1 -0.1)">
      <defs>
       <path id="DejaVuSans-Bold-28" d="M 2413 -844 
L 1484 -844 
Q 1006 -72 778 623 
Q 550 1319 550 2003 
Q 550 2688 779 3389 
Q 1009 4091 1484 4856 
L 2413 4856 
Q 2013 4116 1813 3408 
Q 1613 2700 1613 2009 
Q 1613 1319 1811 609 
Q 2009 -100 2413 -844 
z
" transform="scale(0.015625)"/>
       <path id="DejaVuSans-Bold-5d" d="M 2375 -844 
L 434 -844 
L 434 -141 
L 1313 -141 
L 1313 4159 
L 434 4159 
L 434 4863 
L 2375 4863 
L 2375 -844 
z
" transform="scale(0.015625)"/>
      </defs>
      <use xlink:href="#DejaVuSans-Bold-28"/>
      <use xlink:href="#DejaVuSans-Bold-34" x="45.703125"/>
      <use xlink:href="#DejaVuSans-Bold-31" x="115.283203"/>
      <use xlink:href="#DejaVuSans-Bold-2e" x="184.863281"/>
      <use xlink:href="#DejaVuSans-Bold-36" x="222.851562"/>
      <use xlink:href="#DejaVuSans-Bold-2c" x="292.431641"/>
      <use xlink:href="#DejaVuSans-Bold-20" x="330.419922"/>
      <use xlink:href="#DejaVuSans-Bold-35" x="365.234375"/>
      <use xlink:href="#DejaVuSans-Bold-33" x="434.814453"/>
      <use xlink:href="#DejaVuSans-Bold-2e" x="504.394531"/>
      <use xlink:href="#DejaVuSans-Bold-31" x="542.382812"/>
      <use xlink:href="#DejaVuSans-Bold-5d" x="611.962891"/>
     </g>
    </g>
    <g id="PathCollection_13">
     <defs>
      <path id="m65b0b02565" d="M 0 3 
C 0.795609 3 1.55874 2.683901 2.12132 2.12132 
C 2.683901 1.55874 3 0.795609 3 0 
C 3 -0.795609 2.683901 -1.55874 2.12132 -2.12132 
C 1.55874 -2.683901 0.795609 -3 0 -3 
C -0.795609 -3 -1.55874 -2.683901 -2.12132 -2.12132 
C -2.683901 -1.55874 -3 -0.795609 -3 0 
C -3 0.795609 -2.683901 1.55874 -2.12132 2.12132 
C -1.55874 2.683901 -0.795609 3 0 3 
z
" style="stroke: #0049db; stroke-width: 0.5"/>
     </defs>
     <g>
      <use xlink:href="#m65b0b02565" x="470.642377" y="68.049687" style="fill: #0049db; stroke: #0049db; stroke-width: 0.5"/>
     </g>
    </g>
    <g id="text_56">
     <!-- (53.1, 60.4] -->
     <g transform="translate(488.642377 70.674687) scale(0.1 -0.1)">
      <use xlink:href="#DejaVuSans-Bold-28"/>
      <use xlink:href="#DejaVuSans-Bold-35" x="45.703125"/>
      <use xlink:href="#DejaVuSans-Bold-33" x="115.283203"/>
      <use xlink:href="#DejaVuSans-Bold-2e" x="184.863281"/>
      <use xlink:href="#DejaVuSans-Bold-31" x="222.851562"/>
      <use xlink:href="#DejaVuSans-Bold-2c" x="292.431641"/>
      <use xlink:href="#DejaVuSans-Bold-20" x="330.419922"/>
      <use xlink:href="#DejaVuSans-Bold-36" x="365.234375"/>
      <use xlink:href="#DejaVuSans-Bold-30" x="434.814453"/>
      <use xlink:href="#DejaVuSans-Bold-2e" x="504.394531"/>
      <use xlink:href="#DejaVuSans-Bold-34" x="542.382812"/>
      <use xlink:href="#DejaVuSans-Bold-5d" x="611.962891"/>
     </g>
    </g>
    <g id="PathCollection_14">
     <defs>
      <path id="m4eefb56046" d="M 0 3 
C 0.795609 3 1.55874 2.683901 2.12132 2.12132 
C 2.683901 1.55874 3 0.795609 3 0 
C 3 -0.795609 2.683901 -1.55874 2.12132 -2.12132 
C 1.55874 -2.683901 0.795609 -3 0 -3 
C -0.795609 -3 -1.55874 -2.683901 -2.12132 -2.12132 
C -2.683901 -1.55874 -3 -0.795609 -3 0 
C -3 0.795609 -2.683901 1.55874 -2.12132 2.12132 
C -1.55874 2.683901 -0.795609 3 0 3 
z
" style="stroke: #006dc8; stroke-width: 0.5"/>
     </defs>
     <g>
      <use xlink:href="#m4eefb56046" x="470.642377" y="82.727812" style="fill: #006dc8; stroke: #006dc8; stroke-width: 0.5"/>
     </g>
    </g>
    <g id="text_57">
     <!-- (60.4, 78.4] -->
     <g transform="translate(488.642377 85.352812) scale(0.1 -0.1)">
      <defs>
       <path id="DejaVuSans-Bold-38" d="M 2228 2088 
Q 1891 2088 1709 1903 
Q 1528 1719 1528 1375 
Q 1528 1031 1709 848 
Q 1891 666 2228 666 
Q 2563 666 2741 848 
Q 2919 1031 2919 1375 
Q 2919 1722 2741 1905 
Q 2563 2088 2228 2088 
z
M 1350 2484 
Q 925 2613 709 2878 
Q 494 3144 494 3541 
Q 494 4131 934 4440 
Q 1375 4750 2228 4750 
Q 3075 4750 3515 4442 
Q 3956 4134 3956 3541 
Q 3956 3144 3739 2878 
Q 3522 2613 3097 2484 
Q 3572 2353 3814 2058 
Q 4056 1763 4056 1313 
Q 4056 619 3595 264 
Q 3134 -91 2228 -91 
Q 1319 -91 855 264 
Q 391 619 391 1313 
Q 391 1763 633 2058 
Q 875 2353 1350 2484 
z
M 1631 3419 
Q 1631 3141 1786 2991 
Q 1941 2841 2228 2841 
Q 2509 2841 2662 2991 
Q 2816 3141 2816 3419 
Q 2816 3697 2662 3845 
Q 2509 3994 2228 3994 
Q 1941 3994 1786 3844 
Q 1631 3694 1631 3419 
z
" transform="scale(0.015625)"/>
      </defs>
      <use xlink:href="#DejaVuSans-Bold-28"/>
      <use xlink:href="#DejaVuSans-Bold-36" x="45.703125"/>
      <use xlink:href="#DejaVuSans-Bold-30" x="115.283203"/>
      <use xlink:href="#DejaVuSans-Bold-2e" x="184.863281"/>
      <use xlink:href="#DejaVuSans-Bold-34" x="222.851562"/>
      <use xlink:href="#DejaVuSans-Bold-2c" x="292.431641"/>
      <use xlink:href="#DejaVuSans-Bold-20" x="330.419922"/>
      <use xlink:href="#DejaVuSans-Bold-37" x="365.234375"/>
      <use xlink:href="#DejaVuSans-Bold-38" x="434.814453"/>
      <use xlink:href="#DejaVuSans-Bold-2e" x="504.394531"/>
      <use xlink:href="#DejaVuSans-Bold-34" x="542.382812"/>
      <use xlink:href="#DejaVuSans-Bold-5d" x="611.962891"/>
     </g>
    </g>
    <g id="PathCollection_15">
     <defs>
      <path id="m2eb53d93db" d="M 0 3 
C 0.795609 3 1.55874 2.683901 2.12132 2.12132 
C 2.683901 1.55874 3 0.795609 3 0 
C 3 -0.795609 2.683901 -1.55874 2.12132 -2.12132 
C 1.55874 -2.683901 0.795609 -3 0 -3 
C -0.795609 -3 -1.55874 -2.683901 -2.12132 -2.12132 
C -2.683901 -1.55874 -3 -0.795609 -3 0 
C -3 0.795609 -2.683901 1.55874 -2.12132 2.12132 
C -1.55874 2.683901 -0.795609 3 0 3 
z
" style="stroke: #0092b6; stroke-width: 0.5"/>
     </defs>
     <g>
      <use xlink:href="#m2eb53d93db" x="470.642377" y="97.405937" style="fill: #0092b6; stroke: #0092b6; stroke-width: 0.5"/>
     </g>
    </g>
    <g id="text_58">
     <!-- (78.4, 93.0] -->
     <g transform="translate(488.642377 100.030937) scale(0.1 -0.1)">
      <defs>
       <path id="DejaVuSans-Bold-39" d="M 641 103 
L 641 966 
Q 928 831 1190 764 
Q 1453 697 1709 697 
Q 2247 697 2547 995 
Q 2847 1294 2900 1881 
Q 2688 1725 2447 1647 
Q 2206 1569 1925 1569 
Q 1209 1569 770 1986 
Q 331 2403 331 3084 
Q 331 3838 820 4291 
Q 1309 4744 2131 4744 
Q 3044 4744 3544 4128 
Q 4044 3513 4044 2388 
Q 4044 1231 3459 570 
Q 2875 -91 1856 -91 
Q 1528 -91 1228 -42 
Q 928 6 641 103 
z
M 2125 2350 
Q 2441 2350 2600 2554 
Q 2759 2759 2759 3169 
Q 2759 3575 2600 3781 
Q 2441 3988 2125 3988 
Q 1809 3988 1650 3781 
Q 1491 3575 1491 3169 
Q 1491 2759 1650 2554 
Q 1809 2350 2125 2350 
z
" transform="scale(0.015625)"/>
      </defs>
      <use xlink:href="#DejaVuSans-Bold-28"/>
      <use xlink:href="#DejaVuSans-Bold-37" x="45.703125"/>
      <use xlink:href="#DejaVuSans-Bold-38" x="115.283203"/>
      <use xlink:href="#DejaVuSans-Bold-2e" x="184.863281"/>
      <use xlink:href="#DejaVuSans-Bold-34" x="222.851562"/>
      <use xlink:href="#DejaVuSans-Bold-2c" x="292.431641"/>
      <use xlink:href="#DejaVuSans-Bold-20" x="330.419922"/>
      <use xlink:href="#DejaVuSans-Bold-39" x="365.234375"/>
      <use xlink:href="#DejaVuSans-Bold-33" x="434.814453"/>
      <use xlink:href="#DejaVuSans-Bold-2e" x="504.394531"/>
      <use xlink:href="#DejaVuSans-Bold-30" x="542.382812"/>
      <use xlink:href="#DejaVuSans-Bold-5d" x="611.962891"/>
     </g>
    </g>
    <g id="PathCollection_16">
     <defs>
      <path id="m8fef388fca" d="M 0 3 
C 0.795609 3 1.55874 2.683901 2.12132 2.12132 
C 2.683901 1.55874 3 0.795609 3 0 
C 3 -0.795609 2.683901 -1.55874 2.12132 -2.12132 
C 1.55874 -2.683901 0.795609 -3 0 -3 
C -0.795609 -3 -1.55874 -2.683901 -2.12132 -2.12132 
C -2.683901 -1.55874 -3 -0.795609 -3 0 
C -3 0.795609 -2.683901 1.55874 -2.12132 2.12132 
C -1.55874 2.683901 -0.795609 3 0 3 
z
" style="stroke: #00b6a4; stroke-width: 0.5"/>
     </defs>
     <g>
      <use xlink:href="#m8fef388fca" x="470.642377" y="112.084062" style="fill: #00b6a4; stroke: #00b6a4; stroke-width: 0.5"/>
     </g>
    </g>
    <g id="text_59">
     <!-- NA -->
     <g transform="translate(488.642377 114.709062) scale(0.1 -0.1)">
      <use xlink:href="#DejaVuSans-Bold-4e"/>
      <use xlink:href="#DejaVuSans-Bold-41" x="83.691406"/>
     </g>
    </g>
    <g id="text_60">
     <!-- AdultWeekend -->
     <g transform="translate(468.642377 129.387187) scale(0.1 -0.1)">
      <use xlink:href="#DejaVuSans-Bold-41"/>
      <use xlink:href="#DejaVuSans-Bold-64" x="77.392578"/>
      <use xlink:href="#DejaVuSans-Bold-75" x="148.974609"/>
      <use xlink:href="#DejaVuSans-Bold-6c" x="220.166016"/>
      <use xlink:href="#DejaVuSans-Bold-74" x="254.443359"/>
      <use xlink:href="#DejaVuSans-Bold-57" x="302.246094"/>
      <use xlink:href="#DejaVuSans-Bold-65" x="408.923828"/>
      <use xlink:href="#DejaVuSans-Bold-65" x="476.746094"/>
      <use xlink:href="#DejaVuSans-Bold-6b" x="544.568359"/>
      <use xlink:href="#DejaVuSans-Bold-65" x="608.447266"/>
      <use xlink:href="#DejaVuSans-Bold-6e" x="676.269531"/>
      <use xlink:href="#DejaVuSans-Bold-64" x="747.460938"/>
     </g>
    </g>
    <g id="PathCollection_17">
     <defs>
      <path id="m026ae578e5" d="M 0 2.586805 
C 0.686029 2.586805 1.344052 2.314243 1.829147 1.829147 
C 2.314243 1.344052 2.586805 0.686029 2.586805 0 
C 2.586805 -0.686029 2.314243 -1.344052 1.829147 -1.829147 
C 1.344052 -2.314243 0.686029 -2.586805 0 -2.586805 
C -0.686029 -2.586805 -1.344052 -2.314243 -1.829147 -1.829147 
C -2.314243 -1.344052 -2.586805 -0.686029 -2.586805 0 
C -2.586805 0.686029 -2.314243 1.344052 -1.829147 1.829147 
C -1.344052 2.314243 -0.686029 2.586805 0 2.586805 
z
" style="stroke: #333333; stroke-width: 0.5"/>
     </defs>
     <g>
      <use xlink:href="#m026ae578e5" x="470.642377" y="141.440312" style="fill: #333333; stroke: #333333; stroke-width: 0.5"/>
     </g>
    </g>
    <g id="text_61">
     <!-- 50 -->
     <g transform="translate(488.642377 144.065312) scale(0.1 -0.1)">
      <use xlink:href="#DejaVuSans-Bold-35"/>
      <use xlink:href="#DejaVuSans-Bold-30" x="69.580078"/>
     </g>
    </g>
    <g id="PathCollection_18">
     <defs>
      <path id="me9faf64b88" d="M 0 3.053101 
C 0.809692 3.053101 1.58633 2.731407 2.158869 2.158869 
C 2.731407 1.58633 3.053101 0.809692 3.053101 0 
C 3.053101 -0.809692 2.731407 -1.58633 2.158869 -2.158869 
C 1.58633 -2.731407 0.809692 -3.053101 0 -3.053101 
C -0.809692 -3.053101 -1.58633 -2.731407 -2.158869 -2.158869 
C -2.731407 -1.58633 -3.053101 -0.809692 -3.053101 0 
C -3.053101 0.809692 -2.731407 1.58633 -2.158869 2.158869 
C -1.58633 2.731407 -0.809692 3.053101 0 3.053101 
z
" style="stroke: #333333; stroke-width: 0.5"/>
     </defs>
     <g>
      <use xlink:href="#me9faf64b88" x="470.642377" y="156.118437" style="fill: #333333; stroke: #333333; stroke-width: 0.5"/>
     </g>
    </g>
    <g id="text_62">
     <!-- 60 -->
     <g transform="translate(488.642377 158.743437) scale(0.1 -0.1)">
      <use xlink:href="#DejaVuSans-Bold-36"/>
      <use xlink:href="#DejaVuSans-Bold-30" x="69.580078"/>
     </g>
    </g>
    <g id="PathCollection_19">
     <defs>
      <path id="m2e311a77be" d="M 0 3.457065 
C 0.916824 3.457065 1.796221 3.092807 2.444514 2.444514 
C 3.092807 1.796221 3.457065 0.916824 3.457065 0 
C 3.457065 -0.916824 3.092807 -1.796221 2.444514 -2.444514 
C 1.796221 -3.092807 0.916824 -3.457065 0 -3.457065 
C -0.916824 -3.457065 -1.796221 -3.092807 -2.444514 -2.444514 
C -3.092807 -1.796221 -3.457065 -0.916824 -3.457065 0 
C -3.457065 0.916824 -3.092807 1.796221 -2.444514 2.444514 
C -1.796221 3.092807 -0.916824 3.457065 0 3.457065 
z
" style="stroke: #333333; stroke-width: 0.5"/>
     </defs>
     <g>
      <use xlink:href="#m2e311a77be" x="470.642377" y="170.796562" style="fill: #333333; stroke: #333333; stroke-width: 0.5"/>
     </g>
    </g>
    <g id="text_63">
     <!-- 70 -->
     <g transform="translate(488.642377 173.421562) scale(0.1 -0.1)">
      <use xlink:href="#DejaVuSans-Bold-37"/>
      <use xlink:href="#DejaVuSans-Bold-30" x="69.580078"/>
     </g>
    </g>
    <g id="PathCollection_20">
     <defs>
      <path id="m8f238dd615" d="M 0 3.81853 
C 1.012686 3.81853 1.984031 3.416185 2.700108 2.700108 
C 3.416185 1.984031 3.81853 1.012686 3.81853 0 
C 3.81853 -1.012686 3.416185 -1.984031 2.700108 -2.700108 
C 1.984031 -3.416185 1.012686 -3.81853 0 -3.81853 
C -1.012686 -3.81853 -1.984031 -3.416185 -2.700108 -2.700108 
C -3.416185 -1.984031 -3.81853 -1.012686 -3.81853 0 
C -3.81853 1.012686 -3.416185 1.984031 -2.700108 2.700108 
C -1.984031 3.416185 -1.012686 3.81853 0 3.81853 
z
" style="stroke: #333333; stroke-width: 0.5"/>
     </defs>
     <g>
      <use xlink:href="#m8f238dd615" x="470.642377" y="185.474687" style="fill: #333333; stroke: #333333; stroke-width: 0.5"/>
     </g>
    </g>
    <g id="text_64">
     <!-- 80 -->
     <g transform="translate(488.642377 188.099687) scale(0.1 -0.1)">
      <use xlink:href="#DejaVuSans-Bold-38"/>
      <use xlink:href="#DejaVuSans-Bold-30" x="69.580078"/>
     </g>
    </g>
    <g id="PathCollection_21">
     <defs>
      <path id="m9d33050438" d="M 0 4.148619 
C 1.100227 4.148619 2.155539 3.711494 2.933517 2.933517 
C 3.711494 2.155539 4.148619 1.100227 4.148619 0 
C 4.148619 -1.100227 3.711494 -2.155539 2.933517 -2.933517 
C 2.155539 -3.711494 1.100227 -4.148619 0 -4.148619 
C -1.100227 -4.148619 -2.155539 -3.711494 -2.933517 -2.933517 
C -3.711494 -2.155539 -4.148619 -1.100227 -4.148619 0 
C -4.148619 1.100227 -3.711494 2.155539 -2.933517 2.933517 
C -2.155539 3.711494 -1.100227 4.148619 0 4.148619 
z
" style="stroke: #333333; stroke-width: 0.5"/>
     </defs>
     <g>
      <use xlink:href="#m9d33050438" x="470.642377" y="200.152812" style="fill: #333333; stroke: #333333; stroke-width: 0.5"/>
     </g>
    </g>
    <g id="text_65">
     <!-- 90 -->
     <g transform="translate(488.642377 202.777812) scale(0.1 -0.1)">
      <use xlink:href="#DejaVuSans-Bold-39"/>
      <use xlink:href="#DejaVuSans-Bold-30" x="69.580078"/>
     </g>
    </g>
   </g>
  </g>
 </g>
 <defs>
  <clipPath id="pb4212d2990">
   <rect x="41.87" y="24.72" width="521.536439" height="800.92"/>
  </clipPath>
 </defs>
</svg>
